<svg xmlns="http://www.w3.org/2000/svg" width="848.184" height="224.047"><g fill="#C8122E"><path d="M783.385 53.826c-3.495 0-11.711 5.813-21.297 16.698 4.625 26.935 9.304 50.415 13.545 67.986 7.484 31.022 12.253 38.131 14.035 39.76a.829.829 0 0 0 1.213-.097c1.023-1.308 3.136-5.436 5.178-18.284 7.297-45.914 4.715-90.006-5.996-102.56-2.014-2.358-4.197-3.503-6.678-3.503m18.082 106.918c-2.603 16.429-5.92 23.444-11.074 23.477h-.04c-4.791 0-10.497-5.284-19.74-43.148-4.113-16.867-8.636-39.261-13.13-65.041-3.55 4.447-7.202 9.532-10.81 15.21a191.797 191.797 0 0 0-7.427 12.788c9.629 18.807 19.812 46.041 19.812 77.076v2.741h-45.8v-2.741c0-31.035 10.192-58.269 19.814-77.076a189.354 189.354 0 0 0-7.423-12.788c-3.59-5.651-7.222-10.705-10.747-15.141-3.343 19.13-8.07 44.193-13.147 64.968-9.262 37.868-14.983 43.152-19.78 43.152h-.035c-5.162-.033-8.478-7.052-11.092-23.477-3.451-21.73-4.838-44.197-3.91-63.249.719-14.829 3.24-34.449 11.156-43.723 3.074-3.6 6.725-5.425 10.838-5.425 5.436 0 13.95 6.116 23.015 15.89 2.573-5.787 7.502-7.97 11.315-9.647 1.72-.764 4.207-1.655 5.389-3.527.596-.938.525-2.282.187-3.125-1.115-2.785-7.016-4.299-16.037-2.021-.917-16.712 13.312-23.07 21.24-23.208 12.845-.218 21.266 8.288 23.836 23.955l3.009 17.029c8.873-9.454 17.172-15.346 22.499-15.346 4.122 0 7.769 1.825 10.842 5.425 7.917 9.27 10.437 28.894 11.16 43.723.928 19.052-.463 41.519-3.92 63.249M736.16 0c-61.771 0-112.023 50.252-112.023 112.021 0 61.774 50.252 112.026 112.023 112.026 61.772 0 112.024-50.252 112.024-112.026C848.184 50.252 797.932 0 736.16 0m-2.693 28.173c-7.811.504-13.077 5.801-14.702 11.386 3.618-.215 9.085-.048 12.536 2.806a9.062 9.062 0 0 1 3.277 7.329c-.703 11.781-16.121 7.623-18.435 19.29 4.79 5.665 9.62 12.22 14.13 19.324a185.58 185.58 0 0 1 5.887 9.925 193.967 193.967 0 0 1 5.886-9.925c4.533-7.134 9.389-13.721 14.198-19.399l-3.845-21.771c-1.561-9.679-7.467-19.693-18.932-18.965m-44.535 25.653c-2.473 0-4.655 1.145-6.67 3.503-10.72 12.554-13.293 56.646-5.998 102.56 2.047 12.875 4.166 16.994 5.184 18.291.3.376.858.42 1.213.098 1.779-1.615 6.56-8.69 14.076-39.755 5.35-22.123 10.292-48.911 13.557-67.933-9.611-10.929-17.86-16.764-21.362-16.764m29.833 124.546h34.786c-.534-26.953-8.91-50.828-17.391-68.265-8.477 17.437-16.854 41.312-17.395 68.265m-148.933-27.487c0-.915-.119-1.731-.355-2.45-.395-1.154-1.086-2.06-2.071-2.716-.987-.656-2.151-.985-3.492-.985-1.381 0-2.565.329-3.55.985-.988.657-1.678 1.562-2.072 2.717-.237.718-.356 1.534-.356 2.449 0 .238.119.358.356.358h11.185c.236 0 .355-.12.355-.358Zm-5.682 18.053c-3.039 0-5.576-.7-7.614-2.102-2.038-1.4-3.448-3.343-4.23-5.827a17.844 17.844 0 0 1-.734-3.05c-.176-1.124-.263-2.434-.263-3.934s.077-2.821.234-3.964c.156-1.146.391-2.171.704-3.078.783-2.487 2.202-4.42 4.261-5.8 2.056-1.38 4.506-2.071 7.346-2.071 2.959 0 5.455.7 7.487 2.1 2.032 1.402 3.442 3.324 4.231 5.77.157.512.296 1.027.414 1.539.118.513.217 1.105.297 1.774.078.673.137 1.432.177 2.279.039.85.059 1.845.059 2.99 0 .394-.217.592-.651.592h-17.576c-.237 0-.356.118-.356.354 0 .435.04.828.119 1.184.079.355.177.69.296 1.005.986 2.88 3.116 4.32 6.391 4.32 1.617 0 2.96-.255 4.025-.77 1.065-.51 1.952-1.162 2.663-1.952.315-.314.611-.354.888-.117l3.491 3.076c.276.237.295.514.059.828-1.224 1.42-2.821 2.585-4.793 3.493-1.973.907-4.281 1.36-6.925 1.36Zm-26.755 0c-2.88 0-5.356-.67-7.427-2.012-2.072-1.341-3.521-3.295-4.349-5.86-.592-1.775-.889-4.121-.889-7.041s.297-5.267.889-7.042c.828-2.565 2.277-4.517 4.349-5.86 2.071-1.341 4.547-2.011 7.427-2.011 2.13 0 4.024.394 5.682 1.182a12.21 12.21 0 0 1 4.202 3.256c.236.316.216.592-.06.828l-3.728 3.256c-.317.235-.593.197-.829-.12-.71-.788-1.471-1.4-2.278-1.834-.809-.434-1.805-.65-2.989-.65-1.263 0-2.358.305-3.284.917-.927.612-1.608 1.547-2.043 2.81-.236.71-.394 1.49-.472 2.338a31.973 31.973 0 0 0-.119 2.93c0 1.104.04 2.09.119 2.959.078.868.236 1.658.472 2.367.435 1.223 1.116 2.14 2.043 2.752.926.612 2.021.917 3.284.917 1.184 0 2.18-.216 2.989-.651.807-.433 1.568-1.046 2.278-1.835.236-.274.512-.296.829-.06l3.728 3.257c.237.197.256.472.06.828-1.145 1.342-2.545 2.407-4.202 3.195-1.658.789-3.552 1.184-5.682 1.184Zm-24.695-.652c-.395 0-.593-.196-.593-.591v-27.341c0-.395.198-.591.593-.591h5.444c.394 0 .592.196.592.59v27.342c0 .395-.198.59-.592.59H512.7Zm0-33.91c-.395 0-.593-.196-.593-.592v-5.147c0-.395.198-.593.593-.593h5.444c.394 0 .592.198.592.593v5.147c0 .396-.198.592-.592.592H512.7Zm-17.618 33.91c-.396 0-.592-.196-.592-.591v-22.428c0-.237-.118-.357-.355-.357h-1.893c-.395 0-.592-.197-.592-.591v-3.965c0-.395.197-.591.592-.591h1.893c.237 0 .355-.118.355-.356v-1.835c0-3.352.799-5.78 2.397-7.28 1.597-1.498 3.955-2.248 7.072-2.248h2.603c.395 0 .593.198.593.593v4.733c0 .396-.198.592-.593.592h-1.834c-.75 0-1.361.05-1.834.15-.473.097-.839.286-1.095.562-.257.274-.435.63-.533 1.064-.099.434-.148 1.005-.148 1.716v1.953c0 .238.118.356.355.356h5.089c.395 0 .593.196.593.59v3.966c0 .394-.198.59-.593.59h-5.089c-.237 0-.355.12-.355.358v22.428c0 .395-.198.59-.591.59h-5.445Zm-19.547 0c-.394 0-.592-.196-.592-.591v-22.428c0-.237-.118-.357-.355-.357h-1.893c-.395 0-.592-.197-.592-.591v-3.965c0-.395.197-.591.592-.591h1.893c.237 0 .355-.118.355-.356v-1.835c0-3.352.8-5.78 2.397-7.28 1.597-1.498 3.955-2.248 7.072-2.248h2.604c.394 0 .591.198.591.593v4.733c0 .396-.197.592-.591.592h-1.834c-.751 0-1.362.05-1.835.15-.473.097-.839.286-1.095.562-.257.274-.436.63-.532 1.064-.099.434-.148 1.005-.148 1.716v1.953c0 .238.117.356.355.356h5.089c.394 0 .591.196.591.59v3.966c0 .394-.197.59-.591.59h-5.089c-.238 0-.355.12-.355.358v22.428c0 .395-.198.59-.593.59h-5.444Zm-23.796-5.68c2.012 0 3.629-.462 4.852-1.388 1.222-.925 2.111-2.216 2.664-3.868.118-.355.216-.768.296-1.24.078-.472.147-1.064.207-1.772a62.57 62.57 0 0 0 .148-2.57c.039-1.003.059-2.214.059-3.631 0-1.417-.02-2.628-.059-3.634a62.494 62.494 0 0 0-.148-2.567 23.26 23.26 0 0 0-.207-1.773 8.474 8.474 0 0 0-.296-1.241c-.553-1.652-1.442-2.941-2.664-3.867-1.223-.926-2.84-1.388-4.852-1.388-2.012 0-3.62.462-4.823 1.388-1.204.926-2.082 2.215-2.634 3.867-.118.356-.227.769-.325 1.24a14.71 14.71 0 0 0-.237 1.774 40.812 40.812 0 0 0-.118 2.567c-.021 1.006-.03 2.217-.03 3.634 0 1.417.009 2.628.03 3.632.019 1.004.059 1.86.118 2.569.059.708.137 1.3.237 1.773.098.47.207.884.325 1.239.552 1.652 1.43 2.943 2.634 3.868 1.203.926 2.811 1.389 4.823 1.389Zm0 6.332c-3.472 0-6.451-.82-8.936-2.46-2.487-1.64-4.242-4.06-5.267-7.26a22.254 22.254 0 0 1-.504-1.896 18.688 18.688 0 0 1-.325-2.193 48.628 48.628 0 0 1-.177-2.932c-.04-1.126-.06-2.48-.06-4.06 0-1.58.02-2.934.06-4.061.038-1.126.098-2.103.177-2.933.079-.83.187-1.56.325-2.193.138-.632.306-1.263.504-1.896 1.025-3.2 2.78-5.62 5.267-7.26 2.485-1.638 5.464-2.46 8.936-2.46 3.511 0 6.51.822 8.995 2.46 2.486 1.64 4.241 4.06 5.267 7.26.197.633.364 1.264.503 1.896.138.633.246 1.364.326 2.193.078.83.137 1.807.177 2.933a120.1 120.1 0 0 1 .058 4.06c0 1.582-.019 2.935-.058 4.06a51.235 51.235 0 0 1-.177 2.933c-.08.83-.188 1.56-.326 2.193a23.015 23.015 0 0 1-.503 1.897c-1.026 3.2-2.781 5.619-5.267 7.26-2.485 1.639-5.484 2.459-8.995 2.459Zm-49.178-5.385c2.05 0 3.619-.395 4.704-1.184 1.085-.79 1.628-2.012 1.628-3.67v-2.19c0-.235-.118-.353-.355-.353h-4.734c-2.131 0-3.69.304-4.676.916-.986.613-1.48 1.588-1.48 2.93 0 2.367 1.637 3.55 4.913 3.55Zm7.042 4.733c-.395 0-.592-.196-.592-.591v-2.071h-.059c-.671.986-1.677 1.785-3.018 2.397-1.342.61-3.018.917-5.03.917a12.64 12.64 0 0 1-3.699-.531c-1.164-.352-2.18-.883-3.048-1.592-.868-.707-1.558-1.602-2.071-2.685-.513-1.08-.77-2.368-.77-3.863 0-3.106 1.016-5.387 3.049-6.841 2.03-1.454 4.821-2.183 8.373-2.183h5.8c.237 0 .355-.12.355-.358v-1.373c0-1.674-.455-2.888-1.361-3.644-.908-.756-2.565-1.134-4.971-1.134-1.618 0-2.94.186-3.965.56-1.028.378-1.875.84-2.545 1.393-.356.275-.632.235-.828-.12l-2.19-3.905c-.198-.315-.158-.57.117-.77 1.145-.827 2.526-1.498 4.144-2.011 1.617-.513 3.61-.77 5.976-.77 4.341 0 7.408.79 9.203 2.368 1.795 1.579 2.693 4.103 2.693 7.575v18.64c0 .396-.198.592-.592.592h-4.971Zm-30.146 0c-.395 0-.591-.196-.591-.591v-27.341c0-.395.196-.591.591-.591h5.445c.394 0 .591.196.591.59v27.342c0 .395-.197.59-.591.59h-5.445Zm0-33.91c-.395 0-.591-.196-.591-.592v-5.147c0-.395.196-.593.591-.593h5.445c.394 0 .591.198.591.593v5.147c0 .396-.197.592-.591.592h-5.445Zm-20.411 28.644c2.761 0 4.536-1.223 5.326-3.67.196-.67.345-1.4.443-2.19.099-.788.149-1.834.149-3.135 0-1.302-.05-2.346-.149-3.137a13.94 13.94 0 0 0-.443-2.19c-.79-2.446-2.565-3.668-5.326-3.668-2.722 0-4.48 1.222-5.267 3.668a13.713 13.713 0 0 0-.444 2.19c-.099.79-.149 1.835-.149 3.137 0 1.3.05 2.347.149 3.136.098.789.246 1.52.444 2.19.787 2.446 2.545 3.669 5.267 3.669Zm6.51 5.266c-.395 0-.592-.196-.592-.591v-2.13h-.059c-.673.987-1.618 1.796-2.842 2.426-1.222.63-2.801.947-4.733.947-2.447 0-4.519-.573-6.214-1.716-1.697-1.145-2.921-2.86-3.669-5.15a19.67 19.67 0 0 1-.769-3.403c-.159-1.163-.238-2.711-.238-4.644 0-1.933.079-3.482.238-4.646.157-1.163.414-2.3.769-3.402.748-2.288 1.972-4.004 3.669-5.15 1.695-1.142 3.767-1.715 6.214-1.715 1.932 0 3.511.316 4.733.947 1.224.632 2.169 1.44 2.842 2.426h.059v-13.848c0-.395.197-.593.592-.593H371c.394 0 .592.198.592.593v39.058c0 .395-.198.59-.592.59h-5.444Zm-30.643-17.401c0-.915-.118-1.731-.355-2.45-.395-1.154-1.086-2.06-2.072-2.716-.986-.656-2.15-.985-3.491-.985-1.382 0-2.565.329-3.552.985-.986.657-1.676 1.562-2.07 2.717-.237.718-.355 1.534-.355 2.449 0 .238.118.358.355.358h11.185c.237 0 .355-.12.355-.358Zm-5.682 18.053c-3.038 0-5.576-.7-7.614-2.102-2.038-1.4-3.448-3.343-4.231-5.827a18.034 18.034 0 0 1-.734-3.05c-.174-1.124-.262-2.434-.262-3.934s.077-2.821.234-3.964c.156-1.146.39-2.171.704-3.078.783-2.487 2.202-4.42 4.26-5.8 2.057-1.38 4.507-2.071 7.348-2.071 2.959 0 5.453.7 7.486 2.1 2.031 1.402 3.441 3.324 4.23 5.77.159.512.297 1.027.414 1.539.12.513.218 1.105.298 1.774.077.673.137 1.432.177 2.279.039.85.059 1.845.059 2.99 0 .394-.217.592-.651.592h-17.576c-.237 0-.355.118-.355.354 0 .435.039.828.118 1.184a7.1 7.1 0 0 0 .296 1.005c.986 2.88 3.116 4.32 6.391 4.32 1.617 0 2.959-.255 4.025-.77 1.065-.51 1.952-1.162 2.663-1.952.315-.314.611-.354.886-.117l3.493 3.076c.275.237.296.514.059.828-1.223 1.42-2.821 2.585-4.793 3.493-1.974.907-4.282 1.36-6.925 1.36Zm-55.007-40.301c0-.395.197-.593.592-.593h5.267c.512 0 .848.198 1.006.593l11.066 24.797h.237l10.889-24.797c.156-.395.492-.593 1.006-.593h5.208c.394 0 .592.198.592.593v39.058c0 .395-.198.59-.592.59h-5.149c-.394 0-.592-.195-.592-.59v-24.62h-.236l-8.522 18.94c-.237.512-.612.768-1.124.768h-3.434c-.512 0-.887-.256-1.124-.768l-8.521-18.94h-.237v24.62c0 .395-.199.59-.592.59h-5.148c-.395 0-.592-.195-.592-.59v-39.058Zm-28.762 39.649c-.394 0-.591-.196-.591-.591v-27.341c0-.395.197-.591.591-.591h5.445c.394 0 .592.196.592.59v27.342c0 .395-.198.59-.592.59h-5.445Zm0-33.91c-.394 0-.591-.196-.591-.592v-5.147c0-.395.197-.593.591-.593h5.445c.394 0 .592.198.592.593v5.147c0 .396-.198.592-.592.592h-5.445Zm-19.297 28.644c2.722 0 4.477-1.223 5.266-3.67.197-.67.346-1.4.445-2.19.098-.788.146-1.834.146-3.135 0-1.302-.048-2.346-.146-3.137a13.935 13.935 0 0 0-.445-2.19c-.789-2.446-2.544-3.668-5.266-3.668-2.762 0-4.538 1.222-5.326 3.668a13.604 13.604 0 0 0-.444 2.19c-.099.79-.149 1.835-.149 3.137 0 1.3.05 2.347.149 3.136.098.789.245 1.52.444 2.19.788 2.446 2.564 3.669 5.326 3.669Zm1.716 5.918c-1.934 0-3.512-.317-4.736-.947-1.222-.63-2.169-1.44-2.839-2.426h-.06v2.13c0 .395-.197.59-.591.59h-5.445c-.394 0-.591-.195-.591-.59v-39.058c0-.395.197-.593.591-.593h5.445c.394 0 .591.198.591.593v13.848h.06c.67-.986 1.617-1.794 2.839-2.426 1.224-.631 2.802-.947 4.736-.947 2.445 0 4.516.573 6.213 1.715 1.696 1.146 2.92 2.862 3.669 5.15.356 1.103.612 2.239.77 3.402.156 1.164.237 2.713.237 4.646 0 1.933-.081 3.48-.237 4.644a19.671 19.671 0 0 1-.77 3.404c-.749 2.289-1.973 4.004-3.669 5.149-1.697 1.143-3.768 1.716-6.213 1.716Zm-34.005-5.385c2.051 0 3.619-.395 4.705-1.184 1.085-.79 1.627-2.012 1.627-3.67v-2.19c0-.235-.118-.353-.355-.353h-4.734c-2.131 0-3.69.304-4.676.916-.986.613-1.479 1.588-1.479 2.93 0 2.367 1.636 3.55 4.912 3.55Zm7.042 4.733c-.396 0-.592-.196-.592-.591v-2.071h-.059c-.671.986-1.677 1.785-3.018 2.397-1.342.61-3.019.917-5.03.917-1.302 0-2.535-.177-3.699-.531-1.165-.352-2.18-.883-3.048-1.592-.869-.707-1.559-1.602-2.072-2.685-.512-1.08-.768-2.368-.768-3.863 0-3.106 1.014-5.387 3.048-6.841 2.031-1.454 4.822-2.183 8.373-2.183h5.8c.237 0 .355-.12.355-.358v-1.373c0-1.674-.454-2.888-1.361-3.644-.909-.756-2.565-1.134-4.971-1.134-1.618 0-2.94.186-3.965.56-1.026.378-1.875.84-2.545 1.393-.355.275-.632.235-.829-.12l-2.189-3.905c-.198-.315-.159-.57.118-.77 1.144-.827 2.525-1.498 4.143-2.011 1.617-.513 3.61-.77 5.977-.77 4.34 0 7.407.79 9.202 2.368 1.795 1.579 2.692 4.103 2.692 7.575v18.64c0 .396-.197.592-.591.592h-4.971Zm-29.826 0c-.395 0-.592-.196-.592-.591v-16.452c0-1.853-.454-3.353-1.361-4.498-.908-1.143-2.248-1.715-4.024-1.715-1.736 0-3.078.572-4.024 1.715-.947 1.145-1.421 2.645-1.421 4.498v16.452c0 .395-.197.59-.591.59h-5.445c-.395 0-.591-.195-.591-.59v-39.058c0-.395.196-.593.591-.593h5.445c.394 0 .591.198.591.593v13.789h.059c.631-.908 1.569-1.687 2.811-2.338 1.243-.651 2.812-.976 4.705-.976 1.539 0 2.91.265 4.113.798a9.268 9.268 0 0 1 3.107 2.219c.868.947 1.529 2.063 1.982 3.345.454 1.282.681 2.69.681 4.23v17.99c0 .396-.197.592-.591.592h-5.445Zm-47.166-6.685c0 .236.118.353.355.353h5.977c2.249 0 4.054-.392 5.415-1.18 1.361-.788 2.338-2.087 2.929-3.9a4.99 4.99 0 0 0 .296-1.03c.079-.414.148-.945.207-1.596.06-.648.109-1.467.149-2.451a96.96 96.96 0 0 0 .059-3.66c0-1.456-.021-2.678-.059-3.661a52.32 52.32 0 0 0-.149-2.48 15.302 15.302 0 0 0-.207-1.595 5.037 5.037 0 0 0-.296-1.004c-.591-1.812-1.568-3.11-2.929-3.898-1.361-.787-3.166-1.181-5.415-1.181h-5.977c-.237 0-.355.119-.355.354V161.6Zm-6.983-33.024c0-.393.197-.591.593-.591h14.41c7.037 0 11.523 2.983 13.46 8.949.158.513.296 1.056.414 1.63a25.3 25.3 0 0 1 .327 2.102c.099.832.168 1.85.208 3.055.039 1.205.059 2.677.059 4.415 0 1.737-.02 3.21-.059 4.415a36.684 36.684 0 0 1-.208 3.053c-.099.83-.208 1.53-.327 2.103a17.692 17.692 0 0 1-.414 1.63c-1.937 5.967-6.423 8.948-13.46 8.948h-14.41c-.396 0-.593-.196-.593-.591v-39.118Zm-28.762 39.709c-.395 0-.592-.196-.592-.591v-2.071h-.059a9.181 9.181 0 0 1-2.929 2.397c-1.165.61-2.654.917-4.468.917-1.539 0-2.91-.267-4.113-.798a8.928 8.928 0 0 1-3.078-2.221c-.849-.945-1.499-2.06-1.953-3.343-.454-1.282-.68-2.692-.68-4.231v-17.991c0-.395.197-.591.591-.591h5.445c.394 0 .592.196.592.59v16.454c0 1.853.433 3.352 1.302 4.497.867 1.144 2.209 1.716 4.024 1.716 1.696 0 3.008-.572 3.936-1.716.926-1.145 1.39-2.623 1.39-4.44v-16.51c0-.395.197-.591.592-.591h5.445c.394 0 .592.196.592.59v27.342c0 .395-.198.59-.592.59h-5.445Zm-36.247-5.266c2.722 0 4.477-1.223 5.267-3.67.197-.67.345-1.4.444-2.19.098-.788.148-1.834.148-3.135 0-1.302-.05-2.346-.148-3.137a13.937 13.937 0 0 0-.444-2.19c-.79-2.446-2.545-3.668-5.267-3.668-2.762 0-4.538 1.222-5.326 3.668a13.713 13.713 0 0 0-.444 2.19c-.099.79-.148 1.835-.148 3.137 0 1.3.049 2.347.148 3.136.098.789.246 1.52.444 2.19.788 2.446 2.564 3.669 5.326 3.669Zm1.716 5.918c-1.933 0-3.512-.317-4.734-.947-1.224-.63-2.17-1.44-2.841-2.426h-.059v2.13c0 .395-.198.59-.592.59H39.98c-.395 0-.592-.195-.592-.59v-39.058c0-.395.197-.593.592-.593h5.444c.394 0 .592.198.592.593v13.848h.059c.671-.986 1.617-1.794 2.841-2.426 1.222-.631 2.801-.947 4.734-.947 2.446 0 4.517.573 6.214 1.715 1.696 1.146 2.919 2.862 3.669 5.15.355 1.103.611 2.239.77 3.402.157 1.164.236 2.713.236 4.646 0 1.933-.079 3.48-.236 4.644a19.858 19.858 0 0 1-.77 3.404c-.75 2.289-1.973 4.004-3.669 5.149-1.697 1.143-3.768 1.716-6.214 1.716Zm-30.998-15.27-5.327-15.621h-.177l-5.385 15.622h10.889Zm-8.818-25.031c.118-.395.374-.593.77-.593h5.444c.394 0 .651.198.769.593l13.612 39.058c.118.395-.021.59-.415.59h-5.799c-.395 0-.651-.195-.77-.59l-2.663-7.811H9.632l-2.663 7.81c-.118.396-.375.592-.769.592H.46c-.396 0-.533-.196-.415-.591l13.789-39.058ZM65.815 88.85c-.902 1.12-2.316 1.68-4.239 1.68-1.884 0-3.277-.55-4.179-1.65-.903-1.1-1.354-2.906-1.354-5.422 0-2.317.451-4.087 1.354-5.305.902-1.217 2.295-1.827 4.179-1.827 3.728 0 5.593 2.379 5.593 7.132 0 2.475-.451 4.273-1.354 5.392m4.511-15.482c-1.087-1.025-2.382-1.775-3.885-2.25-1.504-.474-3.125-.71-4.865-.71-1.74 0-3.342.227-4.806.68a9.866 9.866 0 0 0-3.826 2.184c-1.087 1.001-1.938 2.3-2.551 3.892-.613 1.593-.94 3.53-.979 5.813v.885c0 .276.02.57.06.885 0 1.022-.119 1.877-.355 2.566-.237.688-.533 1.24-.888 1.653-.355.413-.75.708-1.183.884a3.414 3.414 0 0 1-1.302.266h-8.26c-1.134 0-2.231-.127-3.29-.385a37.399 37.399 0 0 1-3.245-.947 44.96 44.96 0 0 1-3.374-1.303 83.626 83.626 0 0 0-3.61-1.45c-.355-.118-.591.021-.71.415l-1.598 4.68c-.118.358 0 .596.356.713a480.65 480.65 0 0 0 5.237 1.934c1.48.535 2.701 1.052 3.669 1.547.966.496 1.676 1.01 2.13 1.548.453.534.681 1.178.681 1.931 0 .911-.435 1.664-1.302 2.26-.868.594-2.486.892-4.853.892h-11.54c-1.144 0-2.269-.128-3.373-.384-1.105-.256-2.092-.68-2.959-1.272-.869-.591-1.568-1.382-2.101-2.368-.533-.988-.799-2.229-.799-3.729 0-1.536.286-3.036.859-4.496.57-1.46 1.192-2.742 1.864-3.847.197-.316.137-.573-.178-.77L4.674 82.66c-.354-.238-.631-.198-.828.118a16.78 16.78 0 0 0-1.449 2.456 25.06 25.06 0 0 0-2.072 6.213A17.617 17.617 0 0 0 0 94.79c0 4.063 1.25 7.28 3.752 9.646 2.501 2.367 6.313 3.551 11.434 3.551H28.66c2.127 0 3.928-.227 5.406-.68 1.477-.454 2.679-1.056 3.605-1.805.926-.75 1.605-1.617 2.039-2.603a7.73 7.73 0 0 0 .65-3.138 6.37 6.37 0 0 0-.382-2.218c-.254-.692-.479-1.195-.674-1.51h6.205c.552 0 1.144-.04 1.775-.118a8.263 8.263 0 0 0 1.837-.45 7.28 7.28 0 0 0 1.726-.928 5.361 5.361 0 0 0 1.434-1.556c1.067 1.236 2.391 2.122 3.971 2.66 1.581.537 3.359.806 5.335.806 1.817 0 3.477-.237 4.979-.71 1.501-.472 2.785-1.221 3.852-2.248 1.067-1.026 1.896-2.347 2.489-3.966.593-1.617.89-3.588.89-5.916 0-2.407-.307-4.46-.92-6.156-.613-1.695-1.463-3.056-2.551-4.083m127.449-17.576h-5.455c-.39 0-.587.197-.587.59v30.603c0 1.182-.228 1.999-.685 2.453-.457.452-1.182.678-2.174.678h-6.195V64.669c0-.395-.196-.593-.586-.593h-5.456c-.39 0-.587.198-.587.593v25.447h-10.533c-.395 0-.592.2-.592.597v4.723c0 .399.197.598.592.598h25.98c2.464 0 4.224-.601 5.28-1.805 1.057-1.203 1.584-3.086 1.584-5.652V56.384c0-.394-.196-.592-.586-.592m-38.057 34.324h-12.842c-.316-.117-.74-.343-1.272-.677-.533-.335-1.046-.796-1.54-1.385-.493-.588-.926-1.306-1.301-2.151-.375-.844-.562-1.857-.562-3.034 0-2.003.54-3.595 1.627-4.773 1.085-1.18 2.634-1.77 4.646-1.77 2.445 0 4.536.949 6.273 2.842.276.316.552.335.828.059l3.196-3.314c.316-.237.375-.512.178-.83-1.027-1.34-2.447-2.454-4.261-3.342-1.815-.887-4.025-1.332-6.63-1.332-2.405 0-4.427.375-6.064 1.122-1.638.747-2.96 1.7-3.965 2.86a10.536 10.536 0 0 0-2.16 3.895c-.435 1.435-.651 2.842-.651 4.22 0 1.73.256 3.204.769 4.424.512 1.22 1.163 2.282 1.953 3.186h-20.765c-2.88 0-4.498-1.024-4.852-3.072V56.383c0-.394-.197-.591-.587-.591h-5.455c-.391 0-.587.197-.587.59V84.8c0 .984-.02 1.82-.06 2.51-.04.689-.16 1.24-.357 1.654-.2.414-.486.709-.864.886-.376.179-.903.266-1.578.266H96.64V64.669c0-.394-.196-.592-.586-.592h-5.456c-.391 0-.587.198-.587.592v25.447H79.478c-.395 0-.592.2-.592.598v4.723c0 .398.197.597.592.597h25.234c1.81 0 3.257-.22 4.339-.657 1.082-.438 1.9-1.215 2.45-2.332.705 1.275 1.62 2.092 2.745 2.45 1.124.36 2.435.539 3.935.539h41.537c.394 0 .592-.2.592-.597v-4.723c0-.398-.198-.598-.592-.598m158.186-24.561h5.682c.393 0 .591-.198.591-.596V59.82c0-.397-.198-.596-.59-.596h-5.683c-.395 0-.592.2-.592.597v5.139c0 .398.197.596.592.596m174.166-.001h4.971c.394 0 .591-.198.591-.596V59.82c0-.397-.197-.596-.59-.596h-4.972c-.395 0-.592.2-.592.597v5.139c0 .398.197.596.592.596M26.985 112.071h-4.97c-.396 0-.593.2-.593.598v5.136c0 .398.197.598.592.598h4.971c.394 0 .591-.2.591-.598v-5.136c0-.399-.197-.598-.59-.598m457.391-46.516h4.971c.394 0 .592-.198.592-.596V59.82c0-.397-.198-.596-.592-.596h-4.971c-.395 0-.592.2-.592.597v5.139c0 .398.197.596.592.596m-272.221-9.764H206.7c-.39 0-.585.198-.585.592v39.058c0 .395.195.592.585.592h5.456c.39 0 .587-.197.587-.592V56.384c0-.394-.197-.592-.587-.592M19.292 112.071h-4.971c-.395 0-.592.2-.592.598v5.136c0 .398.197.598.592.598h4.971c.394 0 .591-.2.591-.598v-5.136c0-.399-.197-.598-.591-.598m166.228-2.604h-5.978c-.435-.316-.857-.76-1.273-1.33-.413-.574-.62-1.255-.62-2.043 0-.829.256-1.529.768-2.1.513-.574 1.224-.859 2.131-.859 1.065 0 2.012.453 2.841 1.361.078.08.157.12.236.12.08 0 .197-.08.356-.238l1.538-1.42c.157-.158.157-.356 0-.592-.513-.672-1.204-1.204-2.07-1.598-.869-.395-1.856-.592-2.959-.592-1.145 0-2.112.178-2.9.532-.79.355-1.441.82-1.953 1.391a5.088 5.088 0 0 0-1.095 1.894 6.78 6.78 0 0 0-.326 2.041c0 .671.088 1.303.266 1.895.178.591.405 1.103.68 1.538h-2.189c-.237 0-.355.137-.355.414v2.13c0 .276.119.415.356.415h12.546c.236 0 .355-.139.355-.415v-2.13c0-.277-.119-.414-.356-.414m224.12-53.675h-5.456c-.39 0-.586.198-.586.592v39.058c0 .395.196.592.586.592h5.456c.39 0 .587-.197.587-.592V56.384c0-.394-.197-.592-.587-.592m-157.424 56.279h-4.971c-.394 0-.591.2-.591.598v5.136c0 .398.197.598.59.598h4.972c.395 0 .592-.2.592-.598v-5.136c0-.399-.197-.598-.592-.598M358.62 90.116h-5.267c-1.894 0-3.343-.451-4.349-1.355-1.007-.902-1.51-2.592-1.51-5.068 0-2.24.503-4.027 1.51-5.362 1.006-1.335 2.396-2.004 4.172-2.004 1.893 0 3.273.6 4.142 1.797.867 1.199 1.302 2.958 1.302 5.275v6.717Zm36.64-18.641h-5.457c-.392 0-.587.197-.587.589V86.99c0 1.179-.228 1.996-.68 2.449-.455.45-1.175.677-2.16.677h-21.129V83.45c0-2.401-.297-4.426-.89-6.08-.593-1.65-1.425-2.988-2.492-4.011-1.067-1.022-2.343-1.77-3.826-2.242-1.483-.471-3.114-.708-4.895-.708-1.62 0-3.164.248-4.627.74a10.047 10.047 0 0 0-3.856 2.367c-1.107 1.086-1.998 2.486-2.67 4.202-.672 1.717-1.008 3.778-1.008 6.184 0 2.249.268 4.142.8 5.682.532 1.538 1.291 2.79 2.277 3.758.986.967 2.2 1.656 3.64 2.07 1.44.415 3.087.622 4.941.622h5.978c0 1.222-.118 2.228-.354 3.018-.238.789-.574 1.4-1.006 1.835-.436.434-.988.739-1.659.917-.67.178-1.46.266-2.367.266h-6.924c-.394 0-.59.197-.59.592v4.734c0 .394.196.592.59.592h7.991c3.555 0 6.27-.848 8.14-2.544 1.871-1.697 2.807-4.4 2.807-8.108v-1.302h23.733c2.465 0 4.225-.601 5.282-1.805 1.055-1.202 1.584-3.086 1.584-5.651V72.067c0-.394-.197-.592-.586-.592Z"/><path d="M568.538 88.85c-.903 1.12-2.316 1.68-4.239 1.68-1.885 0-3.278-.55-4.18-1.65-.902-1.1-1.353-2.906-1.353-5.422 0-2.317.451-4.087 1.353-5.305.902-1.217 2.295-1.827 4.18-1.827 3.727 0 5.592 2.379 5.592 7.132 0 2.475-.452 4.273-1.353 5.392m7.062-11.4c-.615-1.695-1.464-3.056-2.55-4.082-1.088-1.025-2.384-1.775-3.886-2.25-1.504-.474-3.125-.71-4.865-.71-1.74 0-3.343.227-4.807.68a9.862 9.862 0 0 0-3.825 2.184c-1.087 1.001-1.939 2.3-2.552 3.892-.612 1.593-.939 3.53-.978 5.813v.885c0 .276.02.57.06.885 0 1.022-.119 1.877-.356 2.566-.237.688-.532 1.24-.888 1.653-.354.413-.75.708-1.184.884a3.402 3.402 0 0 1-1.3.266h-17.578c-1.46 0-2.633-.287-3.52-.859-.89-.572-1.333-1.39-1.333-2.456V81.89c0-2.367-.352-4.25-1.056-5.65-.705-1.4-1.673-2.467-2.903-3.198-1.232-.728-2.705-1.212-4.418-1.448a47.927 47.927 0 0 0-5.59-.415l9.743-11.421c.158-.316.078-.593-.233-.83l-3.828-3.196c-.277-.157-.533-.096-.77.18L504.2 70.942a7.924 7.924 0 0 1-.59.656c-.237.239-.356.498-.356.777V76.5c0 .398.196.597.592.597h9.528c4.023 0 6.037 1.728 6.037 5.184v3.181c0 .904-.052 1.65-.149 2.24-.099.59-.317 1.06-.65 1.413-.337.352-.82.608-1.45.765-.633.158-1.48.236-2.546.236H499.94l-.032.002-.026-.002h-1.006c-1.499 0-2.692-.314-3.58-.944-.888-.629-1.332-1.533-1.332-2.714V72.064c0-.393-.197-.59-.586-.59h-5.045c-.235 0-.46.04-.675.118-.216.079-.322.237-.322.472v12.27c0 1.061-.02 1.956-.06 2.685-.039.727-.147 1.316-.325 1.77-.178.453-.453.785-.828 1.001-.376.216-.917.325-1.627.325h-4.854c-1.46 0-2.625-.293-3.492-.885-.867-.59-1.34-1.455-1.42-2.596v-14.57c0-.393-.197-.59-.59-.59h-5.447c-.393 0-.59.197-.59.59v12.92c0 .944-.03 1.75-.089 2.419-.059.668-.188 1.198-.385 1.593a1.807 1.807 0 0 1-.859.854c-.376.178-.897.266-1.569.266h-24.5c-.985 0-1.707-.228-2.159-.681-.453-.453-.68-1.272-.68-2.457V75.796c0-.395-.198-.591-.593-.591h-5.443c-.396 0-.593.197-.593.59v12.724c0 2.58.533 4.478 1.598 5.692 1.065 1.217 2.841 1.824 5.327 1.824h28.94c1.853 0 3.322-.23 4.407-.688 1.085-.459 1.903-1.246 2.456-2.362.671 1.276 1.578 2.104 2.722 2.482 1.145.379 2.465.568 3.965.568h5.504c1.883 0 3.383-.22 4.497-.658 1.116-.438 1.947-1.236 2.493-2.392.667 1.276 1.572 2.104 2.715 2.482 1.145.379 2.487.568 4.025.568l.031-.002.027.002h17.4c1.848 0 3.381-.25 4.593-.747 1.212-.499 2.151-1.385 2.815-2.66.666 1.395 1.607 2.312 2.83 2.75 1.223.438 2.662.657 4.32.657h16.332c.553 0 1.146-.04 1.777-.12a8.263 8.263 0 0 0 1.837-.45 7.293 7.293 0 0 0 1.725-.927 5.364 5.364 0 0 0 1.435-1.556c1.066 1.236 2.39 2.122 3.971 2.66 1.581.537 3.36.806 5.334.806 1.818 0 3.478-.237 4.98-.71 1.501-.472 2.784-1.221 3.852-2.248 1.067-1.026 1.896-2.347 2.49-3.966.592-1.617.888-3.588.888-5.916 0-2.407-.307-4.46-.919-6.156m-119.867 23.611h-5.68c-.395 0-.592.2-.592.598v5.137c0 .398.197.598.591.598h5.681c.395 0 .593-.2.593-.598v-5.137c0-.399-.198-.598-.593-.598m-42.668-51.248h-5.978c-.433-.276-.857-.701-1.27-1.273-.415-.571-.622-1.251-.622-2.041 0-.868.256-1.588.768-2.161.513-.571 1.223-.857 2.13-.857a3.18 3.18 0 0 1 1.54.384c.473.258.907.583 1.302.977.156.158.355.138.592-.06l1.538-1.48c.118-.118.118-.295 0-.532-.513-.67-1.203-1.213-2.07-1.628-.869-.413-1.856-.62-2.96-.62-1.145 0-2.112.187-2.9.562-.79.375-1.44.849-1.953 1.419a5.137 5.137 0 0 0-1.095 1.895 6.787 6.787 0 0 0-.326 2.04c0 .673.09 1.294.267 1.866.178.572.404 1.075.681 1.509h-2.19c-.236 0-.355.138-.355.414v2.19c0 .276.12.414.355.414h12.546c.237 0 .354-.138.354-.414v-2.19c0-.276-.117-.414-.354-.414m-153.157 62.256h-4.97c-.395 0-.592.2-.592.598v5.136c0 .398.197.598.591.598h4.971c.395 0 .592-.2.592-.598v-5.136c0-.399-.197-.598-.592-.598m28.702-11.126h-5.68c-.396 0-.592.2-.592.598v5.136c0 .4.196.598.591.598h5.681c.394 0 .592-.199.592-.598v-5.136c0-.399-.198-.598-.592-.598"/><path d="M327.728 87.611c-.199.806-.586 1.394-1.158 1.768-.573.374-1.385.59-2.433.65-1.05.058-2.404.086-4.065.086h-12.94c.08-.39.14-.804.18-1.237.037-.43.058-.884.058-1.356v-8.014c1.663-.784 3.562-1.51 5.698-2.179a21.782 21.782 0 0 1 6.53-1.002c1.66 0 3.025.178 4.094.531 1.067.353 1.93.864 2.582 1.531.652.67 1.106 1.493 1.363 2.475.259.983.387 2.101.387 3.36 0 1.453-.1 2.582-.296 3.387m3.928-13.356c-1.166-1.222-2.659-2.169-4.478-2.84-1.817-.67-4.032-1.007-6.642-1.007-2.413 0-4.736.327-6.968.977-2.236.651-4.3 1.43-6.197 2.338V56.384c0-.394-.197-.592-.587-.592h-5.454c-.392 0-.587.197-.587.591v26.23c0 1.537-.03 2.787-.089 3.751-.06.966-.188 1.733-.385 2.304-.197.572-.493.956-.889 1.153-.394.197-.926.294-1.596.294h-3.846c-1.501 0-2.693-.314-3.582-.943-.887-.629-1.33-1.533-1.33-2.714V72.064c0-.393-.197-.59-.588-.59h-5.454c-.392 0-.587.197-.587.59V84.57a49.25 49.25 0 0 1-.06 2.596c-.04.71-.147 1.277-.325 1.71a1.766 1.766 0 0 1-.858.945c-.395.197-.926.294-1.597.294h-9.148a13.89 13.89 0 0 1-3.29-.384 37.302 37.302 0 0 1-3.246-.947 44.96 44.96 0 0 1-3.373-1.302 81.809 81.809 0 0 0-3.61-1.45c-.354-.118-.592.021-.71.415l-1.599 4.68c-.117.356 0 .594.357.713a545.91 545.91 0 0 0 5.237 1.934c1.48.534 2.7 1.05 3.668 1.546.967.496 1.678 1.01 2.131 1.547.452.535.68 1.18.68 1.932 0 .912-.435 1.665-1.301 2.26-.868.594-2.486.892-4.853.892h-11.54a14.9 14.9 0 0 1-3.374-.384c-1.104-.257-2.09-.68-2.959-1.273-.869-.592-1.567-1.38-2.1-2.367-.532-.987-.798-2.229-.798-3.728 0-1.538.284-3.038.856-4.497.572-1.46 1.195-2.743 1.865-3.847.198-.316.138-.572-.176-.769l-4.677-2.427c-.353-.237-.632-.197-.828.118a16.705 16.705 0 0 0-1.45 2.456 24.85 24.85 0 0 0-1.212 2.96 24.165 24.165 0 0 0-.858 3.254 17.621 17.621 0 0 0-.327 3.344c0 4.062 1.25 7.278 3.752 9.646 2.501 2.367 6.314 3.551 11.435 3.551h13.473c2.127 0 3.928-.228 5.408-.68 1.476-.455 2.676-1.056 3.603-1.806.926-.75 1.606-1.618 2.04-2.604a7.724 7.724 0 0 0 .65-3.136 6.38 6.38 0 0 0-.382-2.22c-.255-.69-.48-1.193-.673-1.508h9.103c1.882 0 3.362-.219 4.438-.657 1.075-.439 1.889-1.237 2.435-2.392.666 1.276 1.57 2.103 2.714 2.481 1.024.34 2.207.525 3.546.56.079.004 5.272.008 5.272.008 1.1 0 2.053-.06 2.853-.178a4.982 4.982 0 0 0 2.142-.828c.509.67 1.387 1.006 2.64 1.006h15.596c2.175 0 4.024-.139 5.546-.415 1.523-.276 2.768-.828 3.736-1.657.968-.829 1.67-1.992 2.105-3.49.435-1.5.653-3.473.653-5.92 0-2.13-.267-4.072-.8-5.828-.536-1.756-1.385-3.245-2.55-4.469m62.707 26.69h-5.68c-.395 0-.592.2-.592.598v5.136c0 .4.197.598.591.598h5.681c.395 0 .593-.199.593-.598v-5.136c0-.399-.198-.598-.593-.598"/></g></svg>