<?xml version="1.0" encoding="utf-8"?>
<!-- Generator: Adobe Illustrator 24.3.0, SVG Export Plug-In . SVG Version: 6.00 Build 0)  -->
<svg version="1.1" id="Layer_1" xmlns="http://www.w3.org/2000/svg" xmlns:xlink="http://www.w3.org/1999/xlink" x="0px" y="0px"
	 viewBox="0 0 1117.7 437.7" style="enable-background:new 0 0 1117.7 437.7;" xml:space="preserve">
<style type="text/css">
	.st0{clip-path:url(#SVGID_2_);}
	.st1{clip-path:url(#SVGID_4_);}
	.st2{clip-path:url(#SVGID_6_);}
	.st3{fill:#010101;}
	.st4{clip-path:url(#SVGID_8_);}
	.st5{clip-path:url(#SVGID_10_);}
	.st6{clip-path:url(#SVGID_12_);}
	.st7{clip-path:url(#SVGID_14_);}
	.st8{clip-path:url(#SVGID_16_);}
	.st9{clip-path:url(#SVGID_18_);}
	.st10{clip-path:url(#SVGID_20_);}
	.st11{clip-path:url(#SVGID_22_);}
	.st12{clip-path:url(#SVGID_24_);}
	.st13{clip-path:url(#SVGID_26_);}
	.st14{clip-path:url(#SVGID_28_);}
	.st15{clip-path:url(#SVGID_30_);}
	.st16{clip-path:url(#SVGID_32_);}
	.st17{clip-path:url(#SVGID_34_);}
	.st18{clip-path:url(#SVGID_36_);}
	.st19{fill:#FFFFFF;}
	.st20{clip-path:url(#SVGID_38_);}
	.st21{fill:#BF232D;}
	.st22{clip-path:url(#SVGID_40_);}
	.st23{fill:#DCDDDE;}
	.st24{clip-path:url(#SVGID_42_);}
	.st25{clip-path:url(#SVGID_44_);}
	.st26{clip-path:url(#SVGID_46_);}
	.st27{clip-path:url(#SVGID_48_);}
	.st28{clip-path:url(#SVGID_50_);}
	.st29{clip-path:url(#SVGID_52_);}
	.st30{clip-path:url(#SVGID_54_);}
	.st31{clip-path:url(#SVGID_56_);}
	.st32{clip-path:url(#SVGID_58_);}
	.st33{clip-path:url(#SVGID_60_);}
	.st34{clip-path:url(#SVGID_62_);}
	.st35{clip-path:url(#SVGID_64_);}
	.st36{clip-path:url(#SVGID_66_);}
	.st37{clip-path:url(#SVGID_68_);}
	.st38{clip-path:url(#SVGID_70_);}
	.st39{clip-path:url(#SVGID_72_);}
	.st40{clip-path:url(#SVGID_74_);}
	.st41{clip-path:url(#SVGID_76_);}
	.st42{clip-path:url(#SVGID_78_);}
	.st43{clip-path:url(#SVGID_80_);}
	.st44{clip-path:url(#SVGID_82_);}
	.st45{clip-path:url(#SVGID_84_);}
	.st46{clip-path:url(#SVGID_86_);}
	.st47{clip-path:url(#SVGID_88_);}
	.st48{clip-path:url(#SVGID_90_);}
	.st49{clip-path:url(#SVGID_92_);}
	.st50{clip-path:url(#SVGID_94_);}
	.st51{clip-path:url(#SVGID_96_);}
	.st52{clip-path:url(#SVGID_98_);}
	.st53{clip-path:url(#SVGID_100_);}
	.st54{clip-path:url(#SVGID_102_);}
	.st55{clip-path:url(#SVGID_104_);}
	.st56{clip-path:url(#SVGID_106_);}
	.st57{clip-path:url(#SVGID_108_);}
	.st58{clip-path:url(#SVGID_110_);}
	.st59{clip-path:url(#SVGID_112_);}
	.st60{clip-path:url(#SVGID_114_);}
	.st61{clip-path:url(#SVGID_116_);}
	.st62{clip-path:url(#SVGID_118_);}
	.st63{clip-path:url(#SVGID_120_);}
	.st64{clip-path:url(#SVGID_122_);}
	.st65{clip-path:url(#SVGID_124_);}
	.st66{clip-path:url(#SVGID_126_);}
	.st67{clip-path:url(#SVGID_128_);}
	.st68{clip-path:url(#SVGID_130_);}
	.st69{clip-path:url(#SVGID_132_);}
	.st70{clip-path:url(#SVGID_134_);}
	.st71{clip-path:url(#SVGID_136_);}
	.st72{clip-path:url(#SVGID_138_);}
	.st73{fill:#231F20;}
	.st74{font-family:'Akhand-Extrabold';}
	.st75{font-size:69.99px;}
	.st76{font-family:'GESSTextBold-Bold';}
</style>
<g>
	<defs>
		<rect id="SVGID_1_" x="-24.8" y="-31" width="536.7" height="491.6"/>
	</defs>
	<clipPath id="SVGID_2_">
		<use xlink:href="#SVGID_1_"  style="overflow:visible;"/>
	</clipPath>
	<g class="st0">
		<g>
			<defs>
				<rect id="SVGID_3_" x="-259.1" y="-200" width="1624.6" height="837.7"/>
			</defs>
			<clipPath id="SVGID_4_">
				<use xlink:href="#SVGID_3_"  style="overflow:visible;"/>
			</clipPath>
			<g class="st1">
				<g>
					<defs>
						<rect id="SVGID_5_" x="-259.1" y="-200" width="1624.6" height="837.7"/>
					</defs>
					<clipPath id="SVGID_6_">
						<use xlink:href="#SVGID_5_"  style="overflow:visible;"/>
					</clipPath>
					<g class="st2">
						<path class="st3" d="M540.1,364.4h-9.6l-2.4,12.3h-11.4l11-52.9h15l11,52.9h-11.4L540.1,364.4z M538.3,354.9
							c-1.3-6.4-2.3-13-3-19.5c-0.6,5.4-1.6,11.9-3,19.5H538.3z"/>
					</g>
				</g>
				<g>
					<defs>
						<rect id="SVGID_7_" x="-259.1" y="-200" width="1624.6" height="837.7"/>
					</defs>
					<clipPath id="SVGID_8_">
						<use xlink:href="#SVGID_7_"  style="overflow:visible;"/>
					</clipPath>
					<g class="st4">
						<path class="st3" d="M578.8,364.4h-9.6l-2.4,12.3h-11.4l11-52.9h15l11,52.9h-11.4L578.8,364.4z M577,354.9
							c-1.3-6.4-2.3-13-3-19.5c-0.6,5.4-1.6,11.9-3,19.5H577z"/>
					</g>
				</g>
				<g>
					<defs>
						<rect id="SVGID_9_" x="-259.1" y="-200" width="1624.6" height="837.7"/>
					</defs>
					<clipPath id="SVGID_10_">
						<use xlink:href="#SVGID_9_"  style="overflow:visible;"/>
					</clipPath>
					<g class="st5">
						<polygon class="st3" points="624.6,333.6 615,333.6 615,376.8 603.4,376.8 603.4,333.6 593.8,333.6 593.8,323.6 624.6,323.6 
													"/>
					</g>
				</g>
				<g>
					<defs>
						<rect id="SVGID_11_" x="-259.1" y="-200" width="1624.6" height="837.7"/>
					</defs>
					<clipPath id="SVGID_12_">
						<use xlink:href="#SVGID_11_"  style="overflow:visible;"/>
					</clipPath>
					<g class="st6">
						<polygon class="st3" points="666.5,376.8 640.5,376.8 640.5,323.6 652.1,323.6 652.1,366.8 666.5,366.8 						"/>
					</g>
				</g>
				<g>
					<defs>
						<rect id="SVGID_13_" x="-259.1" y="-200" width="1624.6" height="837.7"/>
					</defs>
					<clipPath id="SVGID_14_">
						<use xlink:href="#SVGID_13_"  style="overflow:visible;"/>
					</clipPath>
					<g class="st7">
						<rect x="670.7" y="323.6" class="st3" width="11.6" height="52.9"/>
					</g>
				</g>
				<g>
					<defs>
						<rect id="SVGID_15_" x="-259.1" y="-200" width="1624.6" height="837.7"/>
					</defs>
					<clipPath id="SVGID_16_">
						<use xlink:href="#SVGID_15_"  style="overflow:visible;"/>
					</clipPath>
					<g class="st8">
						<path class="st3" d="M704.7,358l-3.8-10.3c0.2,2.8,0.2,6.4,0.2,10.4v18.7h-11v-52.9h11l6.6,17.5l3.6,10.4
							c1-3.2,2.4-6.8,3.6-10.4l6.6-17.5h11.2v52.9h-11.2v-18.9l0.2-10.4c-1,3-2.2,6.6-3.6,10.4l-2,5.4h-9.6L704.7,358z"/>
					</g>
				</g>
				<g>
					<defs>
						<rect id="SVGID_17_" x="-259.1" y="-200" width="1624.6" height="837.7"/>
					</defs>
					<clipPath id="SVGID_18_">
						<use xlink:href="#SVGID_17_"  style="overflow:visible;"/>
					</clipPath>
					<g class="st9">
						<path class="st3" d="M772.2,363.8c0,4.2-1.4,7.6-4.2,10s-6.8,3.8-12,3.8s-9.2-1.2-12-3.8c-2.8-2.4-4-5.8-4-10v-27.3
							c-0.2-3.8,1.3-7.4,4-10c2.8-2.4,6.8-3.8,12-3.8s9.2,1.2,12,3.8c2.8,2.4,4.2,5.8,4.2,10V363.8z M760.8,337.4
							c0-2.6-1.6-3.8-4.6-3.8s-4.6,1.2-4.6,3.8v25.9c0,2.6,1.6,3.8,4.6,3.8s4.6-1.2,4.6-3.8V337.4z"/>
					</g>
				</g>
				<g>
					<defs>
						<rect id="SVGID_19_" x="-259.1" y="-200" width="1624.6" height="837.7"/>
					</defs>
					<clipPath id="SVGID_20_">
						<use xlink:href="#SVGID_19_"  style="overflow:visible;"/>
					</clipPath>
					<g class="st10">
						<path class="st3" d="M811.3,323.6v40c0,4.2-1.4,7.6-4.2,10s-6.8,3.8-12,3.8s-9.2-1.2-12-3.8c-2.8-2.4-4.2-5.8-4.2-10v-40h11.6
							v39.6c0,2.6,1.6,3.8,4.6,3.8s4.6-1.2,4.6-3.8v-39.6H811.3z"/>
					</g>
				</g>
				<g>
					<defs>
						<rect id="SVGID_21_" x="-259.1" y="-200" width="1624.6" height="837.7"/>
					</defs>
					<clipPath id="SVGID_22_">
						<use xlink:href="#SVGID_21_"  style="overflow:visible;"/>
					</clipPath>
					<g class="st11">
						<path class="st3" d="M823.9,351.3c-4.8-3.2-7.2-7.4-7.2-12.9v-1.8c0-4.2,1.2-7.6,3.8-10s6.6-3.6,11.8-3.6s9.2,1.2,11.8,3.6
							c2.7,2.6,4.2,6.2,4,10v4.2h-11.6v-3.6c0.1-1-0.2-2-0.8-2.8c-0.9-0.7-2-1.1-3.2-1c-1.4,0-2.6,0.2-3,0.8
							c-0.6,0.8-0.9,1.8-0.8,2.8v1c0,2,1.2,3.8,3.8,5.4l9.4,6c2.2,1.3,4,3.2,5.2,5.4c1.1,2.4,1.7,4.9,1.6,7.6v1.6
							c0.2,3.7-1.3,7.4-4,10c-2.6,2.4-6.6,3.6-12,3.6c-5.2,0-9.2-1.2-12-3.6c-2.7-2.6-4.2-6.2-4-10v-4h11.6v3.6
							c0,2.4,1.4,3.6,4.2,3.6c2.8,0,4.4-1.2,4.4-3.6v-1c0-1-0.2-1.9-0.6-2.8c-0.7-1-1.7-1.9-2.8-2.4L823.9,351.3z"/>
					</g>
				</g>
				<g>
					<defs>
						<rect id="SVGID_23_" x="-259.1" y="-200" width="1624.6" height="837.7"/>
					</defs>
					<clipPath id="SVGID_24_">
						<use xlink:href="#SVGID_23_"  style="overflow:visible;"/>
					</clipPath>
					<g class="st12">
						<rect x="853.5" y="323.6" class="st3" width="11.6" height="52.9"/>
					</g>
				</g>
				<g>
					<defs>
						<rect id="SVGID_25_" x="-259.1" y="-200" width="1624.6" height="837.7"/>
					</defs>
					<clipPath id="SVGID_26_">
						<use xlink:href="#SVGID_25_"  style="overflow:visible;"/>
					</clipPath>
					<g class="st13">
						<path class="st3" d="M907,323.6v52.9h-11l-7.2-18.3c-0.8-2-1.6-4-2.2-6c-0.5-1.6-1.1-3.2-1.8-4.8c-0.3-1.2-0.7-2.4-1.2-3.6
							c-0.4-1-0.6-1.8-0.8-2.4s-0.2-1-0.4-1c1.2,3.8,2,11.1,2,21.9v14.1h-11.4v-52.9h11.4l7,17.7c2.4,5.7,4.4,11.6,6,17.5
							c-1.2-4.6-1.8-11.9-1.8-22.1v-13.3h11.4L907,323.6z"/>
					</g>
				</g>
				<g>
					<defs>
						<rect id="SVGID_27_" x="-259.1" y="-200" width="1624.6" height="837.7"/>
					</defs>
					<clipPath id="SVGID_28_">
						<use xlink:href="#SVGID_27_"  style="overflow:visible;"/>
					</clipPath>
					<g class="st14">
						<polygon class="st3" points="941.8,376.8 914.8,376.8 914.8,323.6 941.8,323.6 941.8,333.6 926.2,333.6 926.2,344.9 
							939.6,344.9 939.6,354.9 926.2,354.9 926.2,366.8 941.8,366.8 						"/>
					</g>
				</g>
				<g>
					<defs>
						<rect id="SVGID_29_" x="-259.1" y="-200" width="1624.6" height="837.7"/>
					</defs>
					<clipPath id="SVGID_30_">
						<use xlink:href="#SVGID_29_"  style="overflow:visible;"/>
					</clipPath>
					<g class="st15">
						<polygon class="st3" points="985.1,376.8 959,376.8 959,323.6 970.9,323.6 970.9,366.8 985.1,366.8 						"/>
					</g>
				</g>
				<g>
					<defs>
						<rect id="SVGID_31_" x="-259.1" y="-200" width="1624.6" height="837.7"/>
					</defs>
					<clipPath id="SVGID_32_">
						<use xlink:href="#SVGID_31_"  style="overflow:visible;"/>
					</clipPath>
					<g class="st16">
						<polygon class="st3" points="1015.3,376.8 989.3,376.8 989.3,323.6 1000.9,323.6 1000.9,366.8 1015.3,366.8 						"/>
					</g>
				</g>
				<g>
					<defs>
						<rect id="SVGID_33_" x="-259.1" y="-200" width="1624.6" height="837.7"/>
					</defs>
					<clipPath id="SVGID_34_">
						<use xlink:href="#SVGID_33_"  style="overflow:visible;"/>
					</clipPath>
					<g class="st17">
						<path class="st3" d="M1050.9,357.4v6.4c0.2,3.8-1.4,7.4-4.2,10c-2.8,2.4-6.8,3.8-12,3.8s-9.2-1.2-12-3.8c-2.8-2.4-4-5.8-4-10
							v-27.2c-0.2-3.8,1.3-7.4,4-10c2.8-2.4,6.8-3.8,12-3.8s9.2,1.2,12,3.8c2.9,2.5,4.4,6.2,4.2,10v6.4h-11.6v-5.8
							c0-2.6-1.6-3.8-4.6-3.8s-4.6,1.2-4.6,3.8V363c0,2.6,1.6,3.8,4.6,3.8s4.6-1.2,4.6-3.8v-5.8h11.6V357.4z"/>
					</g>
				</g>
				<g>
					<defs>
						<rect id="SVGID_35_" x="-259.1" y="-200" width="1624.6" height="837.7"/>
					</defs>
					<clipPath id="SVGID_36_">
						<use xlink:href="#SVGID_35_"  style="overflow:visible;"/>
					</clipPath>
					<g class="st18">
						<path class="st19" d="M502.1,215.4c0,114.6-93.5,207.8-209.1,207.8c-115.4,0-209.1-92.9-209.1-207.8S177.6,7.6,293.2,7.6
							C408.5,7.6,502,100.5,502.1,215.4"/>
					</g>
				</g>
				<g>
					<defs>
						<rect id="SVGID_37_" x="-259.1" y="-200" width="1624.6" height="837.7"/>
					</defs>
					<clipPath id="SVGID_38_">
						<use xlink:href="#SVGID_37_"  style="overflow:visible;"/>
					</clipPath>
					<g class="st20">
						<path class="st21" d="M290.8,426.9c-118.3,0-214.9-95.7-214.9-213.5S172.3,0,290.8,0c118.4,0,214.9,95.7,214.9,213.6
							S409.2,426.9,290.8,426.9 M290.8,20.9c-106.9,0-193.9,86.4-193.9,192.7s87,192.6,193.9,192.6s193.8-86.4,193.8-192.6
							S397.5,20.9,290.8,20.9"/>
					</g>
				</g>
				<g>
					<defs>
						<rect id="SVGID_39_" x="-259.1" y="-200" width="1624.6" height="837.7"/>
					</defs>
					<clipPath id="SVGID_40_">
						<use xlink:href="#SVGID_39_"  style="overflow:visible;"/>
					</clipPath>
					<g class="st22">
						<path class="st23" d="M290.8,386.7c-96.1,0-174.2-77.6-174.2-173.1S194.7,40.4,290.8,40.4S465,118,465,213.6
							S386.9,386.7,290.8,386.7 M290.8,54.9c-87.9,0-159.4,71.1-159.4,158.6S202.9,372,290.8,372s159.4-71.1,159.4-158.4
							S378.7,54.9,290.8,54.9"/>
					</g>
				</g>
				<g>
					<defs>
						<rect id="SVGID_41_" x="-259.1" y="-200" width="1624.6" height="837.7"/>
					</defs>
					<clipPath id="SVGID_42_">
						<use xlink:href="#SVGID_41_"  style="overflow:visible;"/>
					</clipPath>
					<g class="st24">
						<path class="st23" d="M290.8,386.7c-31.4,0-60.9-18.5-82.7-52c-21.2-32.4-32.8-75.6-32.8-121.2c0-45.8,11.6-88.8,32.8-121.2
							c21.8-33.4,51.3-51.9,82.7-51.9s60.9,18.5,82.7,51.9c21.2,32.4,32.8,75.6,32.8,121.2c0,45.8-11.6,88.8-32.8,121.2
							C351.7,368.2,322.2,386.7,290.8,386.7 M290.8,55c-55.7,0-100.7,71.1-100.7,158.6S235.3,372,290.8,372
							c55.7,0,100.7-71,100.7-158.4S346.3,54.9,290.8,55"/>
					</g>
				</g>
				<g>
					<defs>
						<rect id="SVGID_43_" x="-259.1" y="-200" width="1624.6" height="837.7"/>
					</defs>
					<clipPath id="SVGID_44_">
						<use xlink:href="#SVGID_43_"  style="overflow:visible;"/>
					</clipPath>
					<g class="st25">
						<rect x="283.4" y="52.1" class="st23" width="14.8" height="327.2"/>
					</g>
				</g>
				<g>
					<defs>
						<rect id="SVGID_45_" x="-259.1" y="-200" width="1624.6" height="837.7"/>
					</defs>
					<clipPath id="SVGID_46_">
						<use xlink:href="#SVGID_45_"  style="overflow:visible;"/>
					</clipPath>
					<g class="st26">
						<rect x="126.2" y="204" class="st23" width="329.2" height="14.7"/>
					</g>
				</g>
				<g>
					<defs>
						<rect id="SVGID_47_" x="-259.1" y="-200" width="1624.6" height="837.7"/>
					</defs>
					<clipPath id="SVGID_48_">
						<use xlink:href="#SVGID_47_"  style="overflow:visible;"/>
					</clipPath>
					<g class="st27">
						<rect x="144" y="123.4" class="st23" width="293.6" height="14.7"/>
					</g>
				</g>
				<g>
					<defs>
						<rect id="SVGID_49_" x="-259.1" y="-200" width="1624.6" height="837.7"/>
					</defs>
					<clipPath id="SVGID_50_">
						<use xlink:href="#SVGID_49_"  style="overflow:visible;"/>
					</clipPath>
					<g class="st28">
						<rect x="141.2" y="284.6" class="st23" width="299" height="14.7"/>
					</g>
				</g>
				<g>
					<defs>
						<rect id="SVGID_51_" x="-259.1" y="-200" width="1624.6" height="837.7"/>
					</defs>
					<clipPath id="SVGID_52_">
						<use xlink:href="#SVGID_51_"  style="overflow:visible;"/>
					</clipPath>
					<g class="st29">
						<path class="st19" d="M39.9,378.4l-18.2-4.2c0,0-3.8,0.6-5-11.5c-0.8-7.4-1-14.9-0.6-22.3l4,0.2c0,0,0.6-33.2,3-46.4
							s11.2-51.4,11.2-51.4l0.6-5.8l-13,1l3.4-3.2l19.8-1.4c0,0,29.2-10.8,38.7-15.3c9.6-4.6,57.7-14.9,63.3-15.1
							c5.6-0.4,10-0.8,26.8,4.2c16.6,5,228.9,85.8,228.9,85.8l0.2,81.4l-33.4,6.8c0,0-6,9-8.2,9.5s-282,7.4-282,7.4l-8.8-14.1
							l-32.4-1l1.6-3.4L39.9,378.4z"/>
					</g>
				</g>
				<g>
					<defs>
						<rect id="SVGID_53_" x="-259.1" y="-200" width="1624.6" height="837.7"/>
					</defs>
					<clipPath id="SVGID_54_">
						<use xlink:href="#SVGID_53_"  style="overflow:visible;"/>
					</clipPath>
					<g class="st30">
						<path class="st3" d="M350.5,298.9v22.9c-13.2-3.2-26.4-6.6-39.6-9.8c-0.6-8-1.4-15.9-2-23.9H308v23.1
							c-15.6-3.6-31.2-7-46.9-10.5c-0.4-8.8-0.6-17.5-1-26.3h-1.2v25.7c-7.2-1.6-14-2.8-20.6-4.2c-9.2-2-18.4-4-27.8-5.6
							c-2.2-0.4-2.6-1.2-2.6-3.4c-0.2-14.3-0.4-28.5-0.8-42.8c-0.1-3.1-0.5-6.1-1-9.2h-1c-0.4,2.2-0.8,4.6-1,6.8
							c-0.2,14.7-0.4,29.3-0.6,44v3.8c-23.2,3.4-42.2,15.3-61.3,29c0.4-7.4,0.6-14.1,1.2-20.7c1.6-17.1,3.2-34.2,5.2-51.3
							c1.1-9,2.7-18,4.8-26.9c0.8-3.8,3-7.6,5.2-10.8c2.6-3.8,6.4-5.2,11-3.8c58.1,19.1,116.1,38.6,172.6,61.9
							c15,6.2,29.6,13.1,44.5,19.5c2.6,1.2,3.6,2.6,3.4,5.4c-0.6,8.2-0.4,16.3-1.6,24.3c-1.2,7.8-5.4,11-13.4,10.4
							c-6.8-0.6-13.6-2.2-20.4-3.6c-0.8-0.2-1.6-1.8-1.6-2.8c-0.6-5.8-1-11.5-1.4-17.5l-0.6-3.6C350.9,299,350.7,298.9,350.5,298.9"
							/>
					</g>
				</g>
				<g>
					<defs>
						<rect id="SVGID_55_" x="-259.1" y="-200" width="1624.6" height="837.7"/>
					</defs>
					<clipPath id="SVGID_56_">
						<use xlink:href="#SVGID_55_"  style="overflow:visible;"/>
					</clipPath>
					<g class="st31">
						<path class="st3" d="M142,223.5c-1,6-2.4,11.9-3.2,18.1c-1.8,15.5-3.6,31.2-5.2,46.8c-1,11-1.6,22.1-2.4,33.2
							c-0.2,2.2-1,3.4-2.8,3.8c-9.8,2.4-19.6,5.4-29.4,7c-15.7,2.7-31.7,3.5-47.7,2.6c-5-0.4-10-1-15.6-1.8c1.2-4.4,2-8.2,3.2-11.7
							c4.4-13.3,8.4-26.7,13.4-39.8c8.2-21.5,21.8-39.6,38.7-55.3c0.8-0.8,1.6-1.4,2.4-2.2c0.2-0.2,0.2-0.4,0.4-1.2
							c-6.2,1.2-12,2.2-17.6,3.2c-1.4,0.2-2.8,0.8-4.4,1c-16.4,3.3-26.4,13.9-32.8,28.6c-6.8,15.7-10.6,32-13.2,48.8
							c-1,7-1.8,13.9-2.6,20.9c-0.1,0.7-0.2,1.4-0.4,2c-3-2.2-4.8-4.6-4.8-8c0-9-0.2-17.9,0.8-26.9c1.8-16.1,5.5-31.9,11-47.2
							c4.2-11.7,11.8-19.1,23.4-23.3c18.5-6.7,37.6-11.6,57-14.6c12-2,24.2-2.8,36.4-4.2c0.9-0.1,1.9-0.1,2.8,0
							c-2,4.6-3.8,9.1-5.8,13.5c-0.6,0.9-1.5,1.5-2.6,1.6c-4.8,0.6-9.6,1-14.6,1.4c-5,0.2-9.3,3.4-10.8,8.2
							c-1.9,5.5-3.5,11-4.6,16.7c-1.2,6.7-2,13.5-2.4,20.3c-0.4,4.8,1.6,6.4,6.4,6.4c6.2,0,8.8-2,9.8-8.2c2-12.1,3.6-24.3,5.2-36.4
							c0.2-2.2,1.2-3.2,3.2-3.2L142,223.5 M81.4,265.4c-0.2-0.2-0.4-0.2-0.8-0.4c-0.9,0.7-1.8,1.5-2.6,2.4
							c-11.4,13.7-19.8,28.9-22.8,46.6c-0.2,1.6,0.4,3.4,0.6,5c1.4-1,3.4-1.8,4.2-3.2c3.2-5.4,6.4-10.8,8.6-16.5
							C73.1,287.9,77.2,276.5,81.4,265.4"/>
					</g>
				</g>
				<g>
					<defs>
						<rect id="SVGID_57_" x="-259.1" y="-200" width="1624.6" height="837.7"/>
					</defs>
					<clipPath id="SVGID_58_">
						<use xlink:href="#SVGID_57_"  style="overflow:visible;"/>
					</clipPath>
					<g class="st32">
						<path class="st3" d="M370.9,374.6h25c0.6,0,1.8-1.2,2-2c0.3-1.4,0.3-2.9,0.2-4.4c0-22.9,0-46-0.2-68.9v-4.2c0-5,4-6,7.4-4.4
							c9,3.8,17.8,8,26.6,11.9c4.2,1.8,8.2,3.8,12.4,5.8c0,0.2-0.2,0.6-0.2,0.8c-13.4-3.8-26.8-7.8-40.2-11.5c0,6.6,0,12.9,0.2,19.3
							c0,0.6,1.6,1.6,2.6,1.8c12,4,24.2,7.8,36.2,11.5c0.5,0.2,1,0.7,1.2,1.2c-13.2-1.4-26.4-3-40-4.6v2.8
							c0.2,14.3,0.6,28.5,0.6,42.8c0,2.8,1,3.4,3.6,3.6c11,0.4,21.8,1.2,32.8,1.8c1.3,0.1,2.6,0.3,3.8,0.6c0,0.2,0.2,0.6,0.2,0.8
							c-1.3,0.5-2.6,0.8-4,1c-12.6,0.8-25.2,1.6-37.9,2.2c-9.8,0.4-19.4,0.6-29.2,0.6c-1.8,0-3,0.4-3.6,2.2c-0.6,1.6-1.8,3-3,5h3.2
							l35.5-0.6c2.4,0,5,0.6,7.4,0.8v1.4c-2.6,0.4-5.2,1-7.8,1.2l-39.6,1.2l-144.4,4.1c-38.9,1-77.7,2.2-116.3,3.2l-63.1,1.8
							c-3.4,0-6.8,0.2-10,0c-1.2-0.2-2.2-1.4-3.4-2.2c0.8-1.2,1.6-3,2.6-3.4c2.5-0.8,5-1.3,7.6-1.4l29-0.6c0.8,0,1.6-0.2,3-0.2
							c-3.7-2.2-6.4-5.7-7.6-9.8c-0.2-0.6-1.6-1.2-2.6-1.2c-6.8,0-13.8,0.2-20.6-0.2c-9.2-0.4-16.4-5-21.4-12.5
							c-0.5-0.7-0.8-1.4-1-2.2c-0.2-0.4-0.2-0.9-0.2-1.4c0.8,0,1.4-0.2,2-0.2l105.7-1.2c1.5,0,2.9,0.5,4,1.6
							c6.8,7.8,15.2,11.1,25.4,10.8c4.4-0.2,8.8,0,13.4,0c0.4-4.4,0.6-8.2,1-12c1.6-12.9,10.8-23.7,22.6-26.9c5.2-1.4,10.8-1,15.8,1
							c12.7,5,21.1,17.3,21.3,30.9v3.2h114c0.8-4.8,1.2-10.4,5.8-13.1c3.1-1.8,6.6-2.7,10.2-2.6
							C365.5,359.6,369.7,365.4,370.9,374.6 M199.7,393.3c5.9,0.3,11.5-2.6,14.6-7.6c5.4-7.8,5.6-15.9,1.2-24.1
							c-3.4-6.2-8.8-9.8-16-9.5s-12.2,3.8-15.6,9.8c-1.3,2.6-2.3,5.5-2.8,8.4C179.3,382.1,188.5,393.5,199.7,393.3 M277.8,384.1
							h-52.5c-0.6,0-1.1,0.1-1.6,0.4l-5.4,8.4l63.9-1.2C280.6,388.9,279,386.3,277.8,384.1 M165.7,393.9c-2-3-3.6-5.6-5.4-8
							c-0.6-0.8-1.6-1.3-2.6-1.4h-37c-0.9,0.1-1.7,0.6-2.2,1.4c-1.4,2.8-2.6,5.8-4,9C131.6,394.5,148.4,394.3,165.7,393.9
							 M366.7,375.4c-1-2.6-1.8-5.2-3.2-7.2c-2.2-3-6-3-8.4-0.2c-3.4,3.8-3.2,11,0,14.5c2.6,2.8,6.2,3,8.4-0.2
							C365.1,380.5,365.7,377.9,366.7,375.4 M115.8,384.7H88.2c2.8,5.8,6.8,9.1,13.2,9C107.6,393.3,112,390.1,115.8,384.7
							 M313,390.7h24.8c-1.4-2.2-2.6-4.4-3.8-6.2c-0.6-0.8-1.4-1.3-2.4-1.4c-4.4,0-8.8,0-13,0.2c-0.8,0-1.8,0.4-2,1
							C315.3,386.3,314.1,388.5,313,390.7"/>
					</g>
				</g>
				<g>
					<defs>
						<rect id="SVGID_59_" x="-259.1" y="-200" width="1624.6" height="837.7"/>
					</defs>
					<clipPath id="SVGID_60_">
						<use xlink:href="#SVGID_59_"  style="overflow:visible;"/>
					</clipPath>
					<g class="st33">
						<path class="st3" d="M392.3,402.2c-1.2,0.5-2.5,0.7-3.8,0.8c-12.4,0.8-25,1.6-37.4,2.2c-31.2,1.8-62.5,3.4-93.5,5.2
							c-20,1.2-39.9,2.2-59.9,3.2c-31,1.6-62.1,3.6-92.9,5c-8.6,0.4-17.2,0-25.8-0.4c-1.7-0.1-3.3-0.5-4.8-1.4
							c-3.4-1.6-3.6-5.6-0.4-7.2c2.4-1.2,5-1.8,7.6-1.8l166.6-4.2c27-0.6,53.9-1.4,80.9-2c19-0.4,38-1,57.1-1.4
							c2.2,0,4.4,0.2,6.8,0.4C392.4,401.1,392.3,401.7,392.3,402.2"/>
					</g>
				</g>
				<g>
					<defs>
						<rect id="SVGID_61_" x="-259.1" y="-200" width="1624.6" height="837.7"/>
					</defs>
					<clipPath id="SVGID_62_">
						<use xlink:href="#SVGID_61_"  style="overflow:visible;"/>
					</clipPath>
					<g class="st34">
						<path class="st3" d="M385.1,343.7c-1.1,0.2-2.3,0.4-3.4,0.4c-32.8-4.2-65.5-8.2-98.3-12.3c-33.5-4.2-67.1-8.6-100.5-12.9
							c-1-0.2-2-0.6-3.6-1c1-0.8,2-1.6,2.8-2.6c9.8-8.2,21.2-9.4,33.2-7c50.8,10.2,101.7,20.5,152.6,30.7c5.2,1,10.4,2.2,15.6,3.4
							c0.6,0.2,1,0.4,1.6,0.6L385.1,343.7"/>
					</g>
				</g>
				<g>
					<defs>
						<rect id="SVGID_63_" x="-259.1" y="-200" width="1624.6" height="837.7"/>
					</defs>
					<clipPath id="SVGID_64_">
						<use xlink:href="#SVGID_63_"  style="overflow:visible;"/>
					</clipPath>
					<g class="st35">
						<path class="st3" d="M96.9,351.7c0.8-6.8,4.8-10.1,10.8-11.5c6.2-1.6,12.6-3.2,18.8-4.4c3.6-0.8,4.4,0,4.6,3.8
							c0,4.4,0,8.8-0.4,12.9c-0.2,2.6-1.4,4-4.4,3.8c-35.2-0.2-70.7-0.2-105.9,0c-3,0-4.2-1.2-4.4-3.8c-0.2-4-0.2-8.2-0.2-12.1
							c0-2,0.8-3.2,3-2.4c6.2,2.2,12.6,4.2,18.6,6.8c1.8,0.8,3.4,3,4.2,5c0.8,1.8,1.6,2.2,3.2,2.2h37.9
							C87.5,351.7,92.1,351.7,96.9,351.7"/>
					</g>
				</g>
				<g>
					<defs>
						<rect id="SVGID_65_" x="-259.1" y="-200" width="1624.6" height="837.7"/>
					</defs>
					<clipPath id="SVGID_66_">
						<use xlink:href="#SVGID_65_"  style="overflow:visible;"/>
					</clipPath>
					<g class="st36">
						<path class="st3" d="M383.5,354.3l-9.6-0.6c-20-1.6-40-3-60.1-4.6c-22.2-1.8-44.5-3.4-66.7-5.2c-6.6-0.6-13.2-0.8-20-1.6
							c-1.9-0.3-3.8-1-5.4-2c-3.5-2.7-6.7-5.6-9.8-8.8c57.3,6.8,114.5,14,171.6,21.7C383.8,353.5,383.6,353.9,383.5,354.3"/>
					</g>
				</g>
				<g>
					<defs>
						<rect id="SVGID_67_" x="-259.1" y="-200" width="1624.6" height="837.7"/>
					</defs>
					<clipPath id="SVGID_68_">
						<use xlink:href="#SVGID_67_"  style="overflow:visible;"/>
					</clipPath>
					<g class="st37">
						<path class="st3" d="M250.2,421.1c-1.1,0.4-2.2,0.8-3.4,1c-22.6,2.6-45.5,5.4-68.1,7.8c-17.4,1.8-34.8,3.6-52.3,5.2
							c-4.4,0.4-8.8,0.2-13.2,0.2c-1.1,0-2.2-0.2-3.2-0.6c-1-0.6-2.4-1.6-2.4-2.6c0-1.3,0.7-2.4,1.8-3c2.8-1.3,5.8-2.1,8.8-2.6
							c5.8-0.6,11.6-0.8,17.6-1.2c33.2-1.6,66.5-3.4,99.5-5l11.6-0.6c1.1,0,2.1,0.2,3.2,0.4L250.2,421.1"/>
					</g>
				</g>
				<g>
					<defs>
						<rect id="SVGID_69_" x="-259.1" y="-200" width="1624.6" height="837.7"/>
					</defs>
					<clipPath id="SVGID_70_">
						<use xlink:href="#SVGID_69_"  style="overflow:visible;"/>
					</clipPath>
					<g class="st38">
						<path class="st3" d="M499.5,416.4c-1.2,0.5-2.5,0.7-3.8,0.8c-12.4,0.8-25,1.6-37.5,2.2c-31.2,1.8-62.5,3.4-93.5,5.2
							c-20,1.2-39.8,2.2-59.9,3.2c-31,1.6-62.1,3.6-92.9,5c-8.6,0.4-17.2,0-25.8-0.4c-1.7-0.1-3.3-0.5-4.8-1.4
							c-3.4-1.6-3.6-5.6-0.4-7.2c2.4-1.2,5-1.9,7.6-2l166.6-4.2c27-0.6,53.9-1.4,80.9-2c19-0.4,38-1,57.1-1.4c2.2,0,4.4,0.2,6.8,0.4
							C499.6,415.1,499.5,415.8,499.5,416.4"/>
					</g>
				</g>
				<g>
					<defs>
						<rect id="SVGID_71_" x="-259.1" y="-200" width="1624.6" height="837.7"/>
					</defs>
					<clipPath id="SVGID_72_">
						<use xlink:href="#SVGID_71_"  style="overflow:visible;"/>
					</clipPath>
					<g class="st39">
						<path class="st3" d="M341.1,429.5c-0.6,0.2-1.2,0.4-2,0.6c-13,1.6-26.2,3-39.2,4.4l-30,3c-2.4,0.2-5,0.2-7.6,0.2
							c-0.6,0.1-1.3-0.1-1.8-0.4c-0.6-0.4-1.4-1-1.4-1.4c0.1-0.7,0.4-1.4,1-1.8c1.6-0.7,3.3-1.2,5-1.6c3.4-0.4,6.8-0.4,10-0.6
							c19-1,38.2-2,57.3-2.8c2.2-0.2,4.4-0.2,6.6-0.4c0.6,0,1.2,0.2,1.8,0.2L341.1,429.5z"/>
					</g>
				</g>
				<g>
					<defs>
						<rect id="SVGID_73_" x="-259.1" y="-200" width="1624.6" height="837.7"/>
					</defs>
					<clipPath id="SVGID_74_">
						<use xlink:href="#SVGID_73_"  style="overflow:visible;"/>
					</clipPath>
					<g class="st40">
						<path class="st3" d="M229.9,352.7c38.6,2.8,76.9,5.4,115.5,8.2c-1.2,2.6-2.4,3.8-5.2,3.8c-34.8-0.2-69.7-0.4-104.5-0.4
							c-2,0-2.8-0.6-3.2-2.6C232.1,358.6,230.9,355.9,229.9,352.7"/>
					</g>
				</g>
				<g>
					<defs>
						<rect id="SVGID_75_" x="-259.1" y="-200" width="1624.6" height="837.7"/>
					</defs>
					<clipPath id="SVGID_76_">
						<use xlink:href="#SVGID_75_"  style="overflow:visible;"/>
					</clipPath>
					<g class="st41">
						<path class="st3" d="M31.1,234.4c-0.2,2.2-1.4,2.8-3.2,3c-5.2,0.4-8.8,3.4-9.6,8.6c-1.4,8.6-2.4,16.9-3.6,25.5
							c-0.4,2.6-0.8,5.2-1.2,7.6c-0.6,3.3-3.7,5.5-7,5.2c-4.4-0.2-5.8-1.2-6.2-5.6c-1-13.3,0.8-25.9,7.4-37.8
							c2.2-4,5.6-6.4,10.2-6.4C22.3,234.3,26.7,234.5,31.1,234.4"/>
					</g>
				</g>
				<g>
					<defs>
						<rect id="SVGID_77_" x="-259.1" y="-200" width="1624.6" height="837.7"/>
					</defs>
					<clipPath id="SVGID_78_">
						<use xlink:href="#SVGID_77_"  style="overflow:visible;"/>
					</clipPath>
					<g class="st42">
						<path class="st3" d="M372.5,362c3.6,0.6,6.8,1,11,1.6C377.3,366,373.3,365.4,372.5,362"/>
					</g>
				</g>
				<g>
					<defs>
						<rect id="SVGID_79_" x="-259.1" y="-200" width="1624.6" height="837.7"/>
					</defs>
					<clipPath id="SVGID_80_">
						<use xlink:href="#SVGID_79_"  style="overflow:visible;"/>
					</clipPath>
					<g class="st43">
						<path class="st19" d="M81.3,265.3c-4.2,11.4-8.2,22.7-12.6,33.8c-2.4,5.8-5.6,11.1-8.6,16.5c-0.8,1.4-2.8,2.2-4.2,3.2
							c-0.2-1.6-1-3.4-0.6-5c3.2-17.7,11.4-32.8,22.8-46.6c0.8-0.8,1.7-1.6,2.6-2.4C81,264.9,81.2,265.1,81.3,265.3"/>
					</g>
				</g>
				<g>
					<defs>
						<rect id="SVGID_81_" x="-259.1" y="-200" width="1624.6" height="837.7"/>
					</defs>
					<clipPath id="SVGID_82_">
						<use xlink:href="#SVGID_81_"  style="overflow:visible;"/>
					</clipPath>
					<g class="st44">
						<path class="st19" d="M199.7,393.3c-11.2,0.2-20.4-11.1-18.6-23.1c0.4-2.9,1.4-5.8,2.8-8.4c3.2-6,8.4-9.8,15.6-9.8
							c7.2-0.2,12.6,3.4,16,9.5c4.6,8.2,4.2,16.3-1.2,24.1C210.7,390.5,205.9,393.5,199.7,393.3 M200.5,359.8c0-0.4-0.2-0.8-0.2-1.2
							c-1.2-0.2-2.6-0.8-3.8-0.4c-1.6,0.4-3.1,1.1-4.4,2.2c-7.2,5.4-7.6,18.9-0.8,24.9c2.4,2.2,5.6,3.2,8.8,2.8
							c0.8-0.2,1.6-1.2,2.4-1.8c-0.7-0.6-1.4-1.1-2.2-1.6c-1.4-1-3-1.6-3.8-2.8c-2.4-3.4-3-7.2-2.8-11.3
							C193.7,366,196.3,361.8,200.5,359.8"/>
					</g>
				</g>
				<g>
					<defs>
						<rect id="SVGID_83_" x="-259.1" y="-200" width="1624.6" height="837.7"/>
					</defs>
					<clipPath id="SVGID_84_">
						<use xlink:href="#SVGID_83_"  style="overflow:visible;"/>
					</clipPath>
					<g class="st45">
						<path class="st19" d="M277.8,384.1c1.4,2.4,2.8,4.8,4.4,7.8l-63.9,1.2c1.8-3,3.6-5.8,5.4-8.4c0.2-0.4,1-0.4,1.6-0.4
							C242.8,384.1,260.4,384.1,277.8,384.1"/>
					</g>
				</g>
				<g>
					<defs>
						<rect id="SVGID_85_" x="-259.1" y="-200" width="1624.6" height="837.7"/>
					</defs>
					<clipPath id="SVGID_86_">
						<use xlink:href="#SVGID_85_"  style="overflow:visible;"/>
					</clipPath>
					<g class="st46">
						<path class="st19" d="M165.7,393.9c-17.2,0.4-34.2,0.6-51.3,1c1.4-3.2,2.6-6.2,4-9c0.5-0.7,1.3-1.2,2.2-1.4h37
							c1,0.1,2,0.6,2.6,1.4C162.2,388.4,164.1,391.1,165.7,393.9"/>
					</g>
				</g>
				<g>
					<defs>
						<rect id="SVGID_87_" x="-259.1" y="-200" width="1624.6" height="837.7"/>
					</defs>
					<clipPath id="SVGID_88_">
						<use xlink:href="#SVGID_87_"  style="overflow:visible;"/>
					</clipPath>
					<g class="st47">
						<path class="st19" d="M366.7,375.4c-1,2.6-1.8,5.2-3.2,7.2c-2.2,3.2-5.8,3-8.4,0.2c-3.4-3.6-3.4-10.8,0-14.5
							c2.4-2.8,6.4-3,8.4,0.2C365.1,370.2,365.7,372.8,366.7,375.4"/>
					</g>
				</g>
				<g>
					<defs>
						<rect id="SVGID_89_" x="-259.1" y="-200" width="1624.6" height="837.7"/>
					</defs>
					<clipPath id="SVGID_90_">
						<use xlink:href="#SVGID_89_"  style="overflow:visible;"/>
					</clipPath>
					<g class="st48">
						<path class="st19" d="M115.8,384.7c-3.8,5.4-8.2,8.6-14.6,9c-6.4,0.2-10.4-3.2-13.2-9H115.8z"/>
					</g>
				</g>
				<g>
					<defs>
						<rect id="SVGID_91_" x="-259.1" y="-200" width="1624.6" height="837.7"/>
					</defs>
					<clipPath id="SVGID_92_">
						<use xlink:href="#SVGID_91_"  style="overflow:visible;"/>
					</clipPath>
					<g class="st49">
						<path class="st19" d="M313,390.7c1-2,2-4.2,3.2-6.4c0.5-0.6,1.2-1,2-1c4.4-0.2,8.8-0.2,13-0.2c1,0.1,1.9,0.6,2.4,1.4
							c1.4,1.8,2.4,4,3.8,6.2L313,390.7z"/>
					</g>
				</g>
				<g>
					<defs>
						<rect id="SVGID_93_" x="-259.1" y="-200" width="1624.6" height="837.7"/>
					</defs>
					<clipPath id="SVGID_94_">
						<use xlink:href="#SVGID_93_"  style="overflow:visible;"/>
					</clipPath>
					<g class="st50">
						<path class="st3" d="M200.5,359.8c-4,2.1-6.6,6.2-6.8,10.8c-0.5,4,0.5,8,2.8,11.3c0.8,1.2,2.6,1.8,3.8,2.8
							c0.8,0.6,1.4,1,2.2,1.6c-0.8,0.6-1.6,1.6-2.4,1.8c-3.2,0.4-6.4-0.6-8.8-2.8c-6.8-6-6.4-19.5,0.8-24.9c1.3-1,2.8-1.7,4.4-2.2
							c1.3-0.1,2.6,0.1,3.8,0.4C200.3,359.1,200.3,359.5,200.5,359.8"/>
					</g>
				</g>
				<g>
					<defs>
						<rect id="SVGID_95_" x="-259.1" y="-200" width="1624.6" height="837.7"/>
					</defs>
					<clipPath id="SVGID_96_">
						<use xlink:href="#SVGID_95_"  style="overflow:visible;"/>
					</clipPath>
					<g class="st51">
						<path class="st19" d="M174.7,395.7c0-1-13.2-15.5-13.2-15.5s13.4-13.3,14.2-13.9c0.8-0.6,46.1-12.9,46.1-12.9s3-7.2,15.8-12.9
							c13-5.8,45-12.1,69.7-13.1s50.1-4,66.5-0.6s32.8,12.9,39.2,17.7s12.2,9.8,12.2,9.8s12,4.2,14.6,10.5s8.4,31.8,3.8,43.4
							c-4.8,11.5-0.2,14.7-13.4,15.5s-167.8,0-167.8,0l-96.5-2.2c0,0-1-0.6-3.2-9.8c-2.2-9.2-0.8-14.5,0.6-16.9
							C164.6,392.5,174.6,395.7,174.7,395.7"/>
					</g>
				</g>
				<g>
					<defs>
						<rect id="SVGID_97_" x="-259.1" y="-200" width="1624.6" height="837.7"/>
					</defs>
					<clipPath id="SVGID_98_">
						<use xlink:href="#SVGID_97_"  style="overflow:visible;"/>
					</clipPath>
					<g class="st52">
						<path class="st3" d="M226.5,347.7c10.8-10,24-14.3,38-17.1c33.6-6.6,67.7-7.8,101.7-5.2c2.9,0.3,5.8,0.8,8.6,1.4
							c-15.1,2-29,9.1-39.5,20.1c-1.4,1.1-3.1,1.6-4.8,1.6c-32.4,2.6-64.7,4.8-97.1,7.6c-13.7,1.1-27.4,3.1-40.9,5.8
							c-6.8,1.4-13.4,5.2-19.6,8.6c-3.2,1.8-5.6,5-8.4,7.6c0.4,0.4,0.6,1,1,1.4c5.2-0.4,10.6-0.2,15.8-1.2c8.2-1.6,13.8,1.2,18.2,8
							c1.4,1.8,3.5,3,5.8,3.2c11.6-0.4,23.2-1.2,34.8-2.2c1.6-0.4,3-1.4,4-2.8c4.8-8.2,11.2-12.5,21.2-12.9
							c14.2-0.4,28.2-1.8,42.9-2.8c-1.4,6.8-2.8,13.1-4,19.9c-9.8,0.6-19.8,1.2-29.8,1.8l-105.9,5.4c-3.6,0.2-5,1.4-4.8,5.2
							c0.6,16.3,0.6,16.1,16.8,15.5c34.8-1.2,69.7-2.4,104.3-3.6c10.2-0.4,20.4-0.8,30.4-1.4c1.4-10,2-19.9,4.4-29.7
							c1.9-7.9,5-15.5,9.2-22.5c6.6-10.5,17.8-9.8,23.8,1.2c8.2,14.3,10.2,30.2,10,46.4c0,4.6,1.2,5.8,5.6,6c6.6,0.2,13,1.2,20.2,2
							c-8.6-18.7-6.6-37.2-2.8-56.7c-12-2.6-24-5-36-7.6c9.6-16.7,29.2-23.9,47-16.5c7.4,3,14.2,7.6,20.4,12.5
							c4.6,3.8,9.2,6.4,15,7.2c2.2,0.4,4.1,1.6,5.4,3.4c13,21.3,11.2,43.2,1.4,64.9c-0.6,1.4-3.6,2.4-5.6,2.4
							c-31.2,0.2-62.5,0.2-93.7,0.2H161.6c-3.6-9.3-4.4-18.9-3.6-28.7c0.1-0.7,0.4-1.4,0.8-2c4.4-4.8,4.4-4.8,4-10.9
							c-0.6-0.2-1.2-0.4-1.8-0.4c-0.7-0.2-1.5-0.2-2.2-0.2c0-0.6-0.2-1.2-0.2-1.6c3.4-10,12-14.3,20.6-18.1
							c17-7.6,35.6-9.6,53.9-11.5c24.6-2.8,49.3-6.2,73.9-6.8c15.8-0.4,28.4-6,41.9-15.9c-7.6,0-14-0.2-20.2,0
							c-24.6,0.6-49.1,2.2-73.1,7.6c-8.2,1.8-16,6-24,9.1C230,346,228.4,347,226.5,347.7 M400.8,416.4c0.2-1,0.3-2,0.4-3
							c0.2-7.6-0.6-15.5,0.6-22.9c1.1-7.9,3.3-15.6,6.4-22.9c3.6-8,11.8-8.4,17.4-1.8c2.2,2.7,3.9,5.8,5,9.2
							c4.2,12.7,3.6,25.9,2.6,39.2c-0.2,1.6,0.8,3.4,1,5c1.4-1.2,3.4-2.2,4-3.8c6.6-18.1,5.2-35.6-4-52.5c-2-3.8-4.4-6.6-9-7.2
							c-2.2-0.2-4.4-2.2-6.2-4c-7.2-6.6-14.8-12.3-24.4-15.1c-11-3-22.8,0.8-28.8,9.5c13,2.4,26,4.6,39.5,7
							c-12.8,19.3-15.6,40-12.2,62.1C395.6,415.8,398.2,416.2,400.8,416.4"/>
					</g>
				</g>
				<g>
					<defs>
						<rect id="SVGID_99_" x="-259.1" y="-200" width="1624.6" height="837.7"/>
					</defs>
					<clipPath id="SVGID_100_">
						<use xlink:href="#SVGID_99_"  style="overflow:visible;"/>
					</clipPath>
					<g class="st53">
						<path class="st19" d="M355.7,390.7c0,16.7-6.6,30.5-14.6,30.5s-14.6-13.5-14.6-30.5c0-16.7,6.6-30.5,14.6-30.5
							S355.7,373.8,355.7,390.7"/>
					</g>
				</g>
				<g>
					<defs>
						<rect id="SVGID_101_" x="-259.1" y="-200" width="1624.6" height="837.7"/>
					</defs>
					<clipPath id="SVGID_102_">
						<use xlink:href="#SVGID_101_"  style="overflow:visible;"/>
					</clipPath>
					<g class="st54">
						<path class="st19" d="M427.6,394.4c0,14.5-4.4,26.1-9.8,26.1s-9.8-11.7-9.8-26.1c0-14.5,4.4-26.1,9.8-26.1
							S427.5,379.9,427.6,394.4"/>
					</g>
				</g>
				<g>
					<defs>
						<rect id="SVGID_103_" x="-259.1" y="-200" width="1624.6" height="837.7"/>
					</defs>
					<clipPath id="SVGID_104_">
						<use xlink:href="#SVGID_103_"  style="overflow:visible;"/>
					</clipPath>
					<g class="st55">
						<path class="st3" d="M538.7,295.4h-7.8c-3.8,0-5.4,2.4-5.4,7v6.6h-7.4v-7c0-8.4,3.2-14.5,9.6-15.5c-1.1-3.5-1.7-7.1-1.6-10.8
							c0-11.5,4.6-19.5,12.2-19.5c8,0,12.4,7.8,12.4,19.5C551.2,287.8,546.9,295.4,538.7,295.4 M538.8,264.9
							c-2.8,0-4.8,2.8-4.8,10.9c0,8,2,10.8,4.8,10.8c3,0,5-3,5-10.5C543.8,267.7,541.8,264.9,538.8,264.9"/>
					</g>
				</g>
				<g>
					<defs>
						<rect id="SVGID_105_" x="-259.1" y="-200" width="1624.6" height="837.7"/>
					</defs>
					<clipPath id="SVGID_106_">
						<use xlink:href="#SVGID_105_"  style="overflow:visible;"/>
					</clipPath>
					<g class="st56">
						<path class="st3" d="M587.4,295.4h-7.8c-3.8,0-5.4,2.4-5.4,7v6.6h-7.4v-7c0-8.4,3.2-14.5,9.6-15.5c-1.1-3.5-1.6-7.1-1.6-10.8
							c0-11.5,4.6-19.5,12.2-19.5c8,0,12.4,7.8,12.4,19.5C599.8,287.8,595.4,295.4,587.4,295.4 M587.4,264.9
							c-2.8,0-4.8,2.8-4.8,10.9c0,8,2,10.8,4.8,10.8c3,0,5-3,5-10.5C592.4,267.7,590.4,264.9,587.4,264.9"/>
					</g>
				</g>
				<g>
					<defs>
						<rect id="SVGID_107_" x="-259.1" y="-200" width="1624.6" height="837.7"/>
					</defs>
					<clipPath id="SVGID_108_">
						<use xlink:href="#SVGID_107_"  style="overflow:visible;"/>
					</clipPath>
					<g class="st57">
						<path class="st3" d="M615.4,295.4v-8.8h12.4v-10.4c0-7-1.2-8.8-4.8-8.8l1.2-8.5c7.4,0,10.8,4.8,10.8,14.1v22.3H615.4z
							 M624.2,243.2h7.4v9.6h-7.4V243.2z"/>
					</g>
				</g>
				<g>
					<defs>
						<rect id="SVGID_109_" x="-259.1" y="-200" width="1624.6" height="837.7"/>
					</defs>
					<clipPath id="SVGID_110_">
						<use xlink:href="#SVGID_109_"  style="overflow:visible;"/>
					</clipPath>
					<g class="st58">
						<path class="st3" d="M682.7,295.4c-2.4,0.1-4.8-0.8-6.6-2.4v0.4c0,9.4-5,15.5-11.8,15.7h-1.6c-6.8-0.2-11.8-6.6-11.8-15.9
							v-33.8h7.4V293c0,4.6,1.6,7.2,5.4,7.2c3.6,0,5.2-2.4,5.2-7.2v-33.4h7.4v20.3c0,4.2,2.8,6.6,6.6,6.6h0.8v8.8h-1L682.7,295.4z
							 M659.7,243.2h7.4v9.6h-7.4V243.2z"/>
					</g>
				</g>
				<g>
					<defs>
						<rect id="SVGID_111_" x="-259.1" y="-200" width="1624.6" height="837.7"/>
					</defs>
					<clipPath id="SVGID_112_">
						<use xlink:href="#SVGID_111_"  style="overflow:visible;"/>
					</clipPath>
					<g class="st59">
						<path class="st3" d="M679.3,301.3h6.6v9.5h-6.6L679.3,301.3z M682.7,295.3h-0.6v-8.8h0.6c5-0.2,6.4-2.4,6.4-7v-20.1h7.4V280
							C696.5,289.5,691.7,295.3,682.7,295.3 M688.7,301.3h6.4v9.5h-6.4V301.3z"/>
					</g>
				</g>
				<g>
					<defs>
						<rect id="SVGID_113_" x="-259.1" y="-200" width="1624.6" height="837.7"/>
					</defs>
					<clipPath id="SVGID_114_">
						<use xlink:href="#SVGID_113_"  style="overflow:visible;"/>
					</clipPath>
					<g class="st60">
						<path class="st3" d="M699.1,309.3v-8.6c6,0,5.8-6.4,5.8-11.5v-29.3h7.2c0,0,0.2,0.8,0,33.2
							C711.9,301.3,707.9,309.7,699.1,309.3 M704.5,243.2h7.4v9.6h-7.4L704.5,243.2z"/>
					</g>
				</g>
				<g>
					<defs>
						<rect id="SVGID_115_" x="-259.1" y="-200" width="1624.6" height="837.7"/>
					</defs>
					<clipPath id="SVGID_116_">
						<use xlink:href="#SVGID_115_"  style="overflow:visible;"/>
					</clipPath>
					<g class="st61">
						<path class="st3" d="M741.6,295.4c-0.8,8.5-6,13.9-12,14.5l-1.2,0.2v-9c3.1-0.2,5.5-2.7,5.6-5.8h-4.4c-5.2,0-11.8-4-11.8-16.9
							c0-12.1,4.2-18.9,11.8-18.9h12.2v27.1h7v8.8H741.6z M734.4,268.1h-4.6c-4,0-4.6,6.4-4.6,10.4c0,4.4,1.6,8.2,4.6,8.2h4.6V268.1
							z"/>
					</g>
				</g>
				<g>
					<defs>
						<rect id="SVGID_117_" x="-259.1" y="-200" width="1624.6" height="837.7"/>
					</defs>
					<clipPath id="SVGID_118_">
						<use xlink:href="#SVGID_117_"  style="overflow:visible;"/>
					</clipPath>
					<g class="st62">
						<path class="st3" d="M777,293.4c-2,5.4-5.6,8.5-10.8,8.5c-5,0-8.8-3-10.8-8.2c-1.9,1.2-4.2,1.7-6.4,1.6h-2.2v-8.8
							c2.8-0.2,6.4-0.2,6.6-4.8c0.4-11.1,4.8-18.3,12.8-18.3c8.2,0,12.4,8.2,12.4,18.3c0,3.2,1.8,4.8,5.4,4.8h2.2v8.8
							C783,295.4,779.6,295.2,777,293.4 M766,271.7c-3,0-5,2.8-5,10.8s2,10.5,5,10.5s5-2.8,5-10.4C771,274.4,769,271.7,766,271.7"/>
					</g>
				</g>
				<g>
					<defs>
						<rect id="SVGID_119_" x="-259.1" y="-200" width="1624.6" height="837.7"/>
					</defs>
					<clipPath id="SVGID_120_">
						<use xlink:href="#SVGID_119_"  style="overflow:visible;"/>
					</clipPath>
					<g class="st63">
						<path class="st3" d="M782.2,301.3h6.4v9.5h-6.4V301.3z M804,295.3c-3.3,0.1-6.5-1.3-8.8-3.8c-2.2,2.5-5.3,3.9-8.6,3.8h-2.2
							v-8.8h2.2c3,0,4.8-2.2,4.8-5.6v-21.5h7.4v21.7c0,3.2,1.8,5.4,5.4,5.4h2.2v8.8H804z M791.6,301.3h6.4v9.5h-6.4V301.3z"/>
					</g>
				</g>
				<g>
					<defs>
						<rect id="SVGID_121_" x="-259.1" y="-200" width="1624.6" height="837.7"/>
					</defs>
					<clipPath id="SVGID_122_">
						<use xlink:href="#SVGID_121_"  style="overflow:visible;"/>
					</clipPath>
					<g class="st64">
						<path class="st3" d="M804.2,295.4v-8.8c5,0,7.4-2.4,7.4-7v-33.8h7.4v34.4C819.1,289.6,813.5,295.4,804.2,295.4"/>
					</g>
				</g>
				<g>
					<defs>
						<rect id="SVGID_123_" x="-259.1" y="-200" width="1624.6" height="837.7"/>
					</defs>
					<clipPath id="SVGID_124_">
						<use xlink:href="#SVGID_123_"  style="overflow:visible;"/>
					</clipPath>
					<g class="st65">
						<path class="st3" d="M873.3,295.4v-26.3c-2.2,0-4.6,1.6-4.6,8.2v17.9h-33.8c0.2-5,0.6-13.1,2.8-19.3
							c3.2-9.5,8.2-14.5,18.6-14.3v8.2c-5.2,0-8.8,0.8-11.4,7.4c-1.1,2.9-1.8,6-2,9.1h18.6c0.2-10.1,0.2-9.8,0-10.1
							c0-16.1,10.4-16.9,19.4-16.9V286h7.4v8.8h-15L873.3,295.4z M843.3,301.4h6.6v9.5h-6.6L843.3,301.4z M852.7,301.4h6.6v9.5h-6.6
							V301.4z"/>
					</g>
				</g>
				<g>
					<defs>
						<rect id="SVGID_125_" x="-259.1" y="-200" width="1624.6" height="837.7"/>
					</defs>
					<clipPath id="SVGID_126_">
						<use xlink:href="#SVGID_125_"  style="overflow:visible;"/>
					</clipPath>
					<g class="st66">
						<path class="st3" d="M886.1,295.4v-8.8c5,0,7.4-2.4,7.4-7v-20.1h7.4V280C900.9,289.6,895.3,295.3,886.1,295.4 M886.7,243.2
							h5.8v9.6h-5.8V243.2z M895.5,243.2h5.8v9.6h-5.8V243.2z"/>
					</g>
				</g>
				<g>
					<defs>
						<rect id="SVGID_127_" x="-259.1" y="-200" width="1624.6" height="837.7"/>
					</defs>
					<clipPath id="SVGID_128_">
						<use xlink:href="#SVGID_127_"  style="overflow:visible;"/>
					</clipPath>
					<g class="st67">
						<path class="st3" d="M928.6,295.4c-5,0-11.8-4.6-11.8-17.7c0-12.1,4.4-18.1,11.8-18.1h12v26.9h8v8.8h-20V295.4z M933.2,268.1
							h-4.4c-4,0-5,5.8-5,9.8c0,4.4,1.8,8.8,5,8.8h4.4V268.1z"/>
					</g>
				</g>
				<g>
					<defs>
						<rect id="SVGID_129_" x="-259.1" y="-200" width="1624.6" height="837.7"/>
					</defs>
					<clipPath id="SVGID_130_">
						<use xlink:href="#SVGID_129_"  style="overflow:visible;"/>
					</clipPath>
					<g class="st68">
						<path class="st3" d="M945,301.3h6.6v9.5H945V301.3z M948.4,295.3h-0.6v-8.8h0.6c5-0.2,6.4-2.4,6.4-7v-20.1h7.4V280
							C962.2,289.5,957.2,295.3,948.4,295.3 M954.4,301.3h6.4v9.5h-6.4V301.3z"/>
					</g>
				</g>
				<g>
					<defs>
						<rect id="SVGID_131_" x="-259.1" y="-200" width="1624.6" height="837.7"/>
					</defs>
					<clipPath id="SVGID_132_">
						<use xlink:href="#SVGID_131_"  style="overflow:visible;"/>
					</clipPath>
					<g class="st69">
						<rect x="967.9" y="245.6" class="st3" width="7.4" height="49.8"/>
					</g>
				</g>
				<g>
					<defs>
						<rect id="SVGID_133_" x="-259.1" y="-200" width="1624.6" height="837.7"/>
					</defs>
					<clipPath id="SVGID_134_">
						<use xlink:href="#SVGID_133_"  style="overflow:visible;"/>
					</clipPath>
					<g class="st70">
						<path class="st3" d="M1002.7,295.4c-5,0-11.8-4.6-11.8-17.7c0-12.1,4.4-18.1,11.8-18.1h12v26.9h8v8.8h-20V295.4z
							 M1007.5,268.1h-4.4c-4,0-5,5.8-5,9.8c0,4.4,1.8,8.8,5,8.8h4.4V268.1z"/>
					</g>
				</g>
				<g>
					<defs>
						<rect id="SVGID_135_" x="-259.1" y="-200" width="1624.6" height="837.7"/>
					</defs>
					<clipPath id="SVGID_136_">
						<use xlink:href="#SVGID_135_"  style="overflow:visible;"/>
					</clipPath>
					<g class="st71">
						<path class="st3" d="M1019.1,301.3h6.6v9.5h-6.6V301.3z M1022.5,295.3h-0.6v-8.8h0.6c5-0.2,6.4-2.4,6.4-7v-20.1h7.4V280
							C1036.3,289.5,1031.5,295.3,1022.5,295.3 M1028.5,301.3h6.4v9.5h-6.4L1028.5,301.3z"/>
					</g>
				</g>
				<g>
					<defs>
						<rect id="SVGID_137_" x="-259.1" y="-200" width="1624.6" height="837.7"/>
					</defs>
					<clipPath id="SVGID_138_">
						<use xlink:href="#SVGID_137_"  style="overflow:visible;"/>
					</clipPath>
					<g class="st72">
						<rect x="1042.2" y="245.6" class="st3" width="7.4" height="49.8"/>
					</g>
				</g>
			</g>
		</g>
	</g>
</g>
<text transform="matrix(1.01 0 0 1 519.4199 376.2998)" class="st73 st74 st75">AL AMEEN TRANSPORT</text>
<text transform="matrix(1.01 0 0 1 694.5874 299.2197)" class="st73 st76 st75">لقنلل نيملا</text>
</svg>
