<svg id="Layer_1" data-name="Layer 1" xmlns="http://www.w3.org/2000/svg" xmlns:xlink="http://www.w3.org/1999/xlink" viewBox="0 0 1117.73 437.66"><defs><style>.cls-1{fill:none;}.cls-2{clip-path:url(#clip-path);}.cls-3{clip-path:url(#clip-path-2);}.cls-4{fill:#010101;}.cls-5{fill:#fff;}.cls-6{fill:#bf232d;}.cls-7{fill:#dcddde;}.cls-8,.cls-9{font-size:69.99px;fill:#231f20;}.cls-8{font-family:Akhand-Black, Akhand;font-weight:800;}.cls-9{font-family:GESSTextBold-Bold, GE SS;font-weight:700;}</style><clipPath id="clip-path" transform="translate(-52.07 -99.56)"><rect class="cls-1" x="27.29" y="68.52" width="536.67" height="491.59"/></clipPath><clipPath id="clip-path-2" transform="translate(-52.07 -99.56)"><rect class="cls-1" x="-207" y="-100.46" width="1624.62" height="837.7"/></clipPath></defs><g class="cls-2"><g class="cls-3"><g class="cls-3"><path class="cls-4" d="M592.19,464h-9.61l-2.4,12.34H568.76l11-52.94h15l11,52.94H594.4Zm-1.8-9.55a189.84,189.84,0,0,1-3-19.51c-.6,5.37-1.61,11.94-3,19.51Z" transform="translate(-52.07 -99.56)"/></g><g class="cls-3"><path class="cls-4" d="M630.84,464h-9.61l-2.4,12.34H607.41l11-52.94h15l11,52.94H633Zm-1.8-9.55a190.37,190.37,0,0,1-3-19.51c-.6,5.37-1.6,11.94-3,19.51Z" transform="translate(-52.07 -99.56)"/></g><g class="cls-3"><polygon class="cls-4" points="624.63 333.57 615.02 333.57 615.02 376.75 603.41 376.75 603.41 333.57 593.79 333.57 593.79 323.61 624.63 323.61 624.63 333.57"/></g><g class="cls-3"><polygon class="cls-4" points="666.48 376.75 640.45 376.75 640.45 323.61 652.07 323.61 652.07 366.8 666.48 366.8 666.48 376.75"/></g><g class="cls-3"><rect class="cls-4" x="670.69" y="323.61" width="11.61" height="52.94"/></g><g class="cls-3"><path class="cls-4" d="M756.8,457.61,753,447.26c.2,2.79.2,6.37.2,10.35v18.71h-11V423.38h11l6.61,17.51,3.6,10.35c1-3.18,2.41-6.77,3.61-10.35l6.61-17.51h11.21v52.94H773.62V457.41l.2-10.35c-1,3-2.21,6.57-3.61,10.35l-2,5.37H758.6Z" transform="translate(-52.07 -99.56)"/></g><g class="cls-3"><path class="cls-4" d="M824.28,463.38c0,4.18-1.4,7.56-4.2,9.95s-6.81,3.78-12,3.78-9.21-1.19-12-3.78c-2.81-2.39-4-5.77-4-9.95V436.12a13,13,0,0,1,4-10c2.8-2.38,6.8-3.78,12-3.78s9.21,1.2,12,3.78c2.8,2.39,4.2,5.78,4.2,10Zm-11.41-26.47c0-2.59-1.61-3.78-4.61-3.78s-4.61,1.19-4.61,3.78v25.87c0,2.59,1.61,3.79,4.61,3.79s4.61-1.2,4.61-3.79Z" transform="translate(-52.07 -99.56)"/></g><g class="cls-3"><path class="cls-4" d="M863.33,423.18v40c0,4.18-1.4,7.57-4.21,9.95s-6.8,3.79-12,3.79-9.21-1.2-12-3.79c-2.8-2.38-4.2-5.77-4.2-9.95v-40H842.5v39.6c0,2.59,1.6,3.79,4.61,3.79s4.6-1.2,4.6-3.79v-39.6Z" transform="translate(-52.07 -99.56)"/></g><g class="cls-3"><path class="cls-4" d="M875.94,450.84c-4.8-3.18-7.2-7.36-7.2-12.93v-1.79c0-4.18,1.2-7.57,3.8-10s6.61-3.58,11.81-3.58,9.22,1.2,11.82,3.58a13,13,0,0,1,4,10v4.17H888.56v-3.58a3.86,3.86,0,0,0-.8-2.78,4.35,4.35,0,0,0-3.2-1c-1.41,0-2.61.2-3,.8a3.86,3.86,0,0,0-.8,2.78v1c0,2,1.2,3.78,3.81,5.37l9.41,6a14.7,14.7,0,0,1,5.2,5.38,16.92,16.92,0,0,1,1.61,7.56v1.59a13,13,0,0,1-4,9.95q-3.9,3.59-12,3.59-7.82,0-12-3.59a13,13,0,0,1-4-9.95v-4h11.61V463q0,3.58,4.21,3.59c2.8,0,4.4-1.2,4.4-3.59v-1a5.77,5.77,0,0,0-.6-2.79,7,7,0,0,0-2.8-2.39Z" transform="translate(-52.07 -99.56)"/></g><g class="cls-3"><rect class="cls-4" x="853.52" y="323.61" width="11.61" height="52.94"/></g><g class="cls-3"><path class="cls-4" d="M959.05,423.18v52.94H948l-7.21-18.31c-.8-2-1.6-4-2.2-6a30.92,30.92,0,0,0-1.8-4.78,37.19,37.19,0,0,0-1.2-3.58c-.4-1-.6-1.79-.8-2.39s-.2-1-.4-1c1.2,3.78,2,11.14,2,21.89v14.13H925V423.18h11.41l7,17.71a153.2,153.2,0,0,1,6,17.52q-1.82-6.87-1.81-22.1V423h11.42Z" transform="translate(-52.07 -99.56)"/></g><g class="cls-3"><polygon class="cls-4" points="941.83 376.75 914.79 376.75 914.79 323.61 941.83 323.61 941.83 333.57 926.21 333.57 926.21 344.91 939.62 344.91 939.62 354.86 926.21 354.86 926.21 366.8 941.83 366.8 941.83 376.75"/></g><g class="cls-3"><polygon class="cls-4" points="985.08 376.75 959.05 376.75 959.05 323.61 970.86 323.61 970.86 366.8 985.08 366.8 985.08 376.75"/></g><g class="cls-3"><polygon class="cls-4" points="1015.32 376.75 989.28 376.75 989.28 323.61 1000.9 323.61 1000.9 366.8 1015.32 366.8 1015.32 376.75"/></g><g class="cls-3"><path class="cls-4" d="M1103,457v6.37a12.47,12.47,0,0,1-4.21,9.95c-2.8,2.39-6.81,3.78-12,3.78s-9.22-1.19-12-3.78c-2.8-2.39-4-5.77-4-9.95V436.12a13,13,0,0,1,4-10c2.8-2.38,6.81-3.78,12-3.78s9.21,1.2,12,3.78a12.5,12.5,0,0,1,4.21,10v6.36h-11.62v-5.77c0-2.59-1.6-3.78-4.6-3.78s-4.61,1.19-4.61,3.78v25.88c0,2.58,1.6,3.78,4.61,3.78s4.6-1.2,4.6-3.78v-5.78H1103Z" transform="translate(-52.07 -99.56)"/></g><g class="cls-3"><path class="cls-5" d="M554.15,314.91c0,114.64-93.52,207.78-209.06,207.78C229.74,522.69,136,429.75,136,314.91s93.71-207.78,209.26-207.78c115.34,0,208.86,92.94,208.86,207.78" transform="translate(-52.07 -99.56)"/></g><g class="cls-3"><path class="cls-6" d="M342.88,526.47C224.54,526.47,128,430.74,128,312.92S224.34,99.56,342.88,99.56c118.35,0,214.87,95.73,214.87,213.56S461.23,526.47,342.88,526.47m0-406C236,120.46,149,206.84,149,313.12S236,505.77,342.88,505.77,536.72,419.4,536.72,313.12s-87.1-192.66-193.84-192.66" transform="translate(-52.07 -99.56)"/></g><g class="cls-3"><path class="cls-7" d="M342.88,486.27c-96.12,0-174.21-77.62-174.21-173.15S246.76,140,342.88,140,517.1,217.59,517.1,313.12,439,486.27,342.88,486.27m0-331.78c-87.91,0-159.39,71.06-159.39,158.63S255,471.54,342.88,471.54s159.4-71.05,159.4-158.42-71.49-158.63-159.4-158.63" transform="translate(-52.07 -99.56)"/></g><g class="cls-3"><path class="cls-7" d="M342.88,486.27c-31.44,0-60.87-18.51-82.7-51.95-21.23-32.44-32.84-75.63-32.84-121.2,0-45.78,11.61-88.77,32.84-121.21C282,158.48,311.44,140,342.88,140s60.88,18.51,82.71,51.94c21.22,32.44,32.84,75.63,32.84,121.21,0,45.77-11.62,88.76-32.84,121.2-21.83,33.44-51.27,51.95-82.71,51.95m0-331.78c-55.67,0-100.72,71.06-100.72,158.63s45.25,158.42,100.72,158.42c55.67,0,100.73-71.05,100.73-158.42S398.35,154.49,342.88,154.49" transform="translate(-52.07 -99.56)"/></g><g class="cls-3"><rect class="cls-7" x="283.41" y="52.14" width="14.82" height="327.2"/></g><g class="cls-3"><rect class="cls-7" x="126.21" y="204" width="329.21" height="14.73"/></g><g class="cls-3"><rect class="cls-7" x="144.04" y="123.4" width="293.56" height="14.73"/></g><g class="cls-3"><rect class="cls-7" x="141.23" y="284.61" width="298.97" height="14.73"/></g><g class="cls-3"><path class="cls-5" d="M92,477.91l-18.22-4.18s-3.81.6-5-11.54a128.87,128.87,0,0,1-.6-22.29l4,.2s.6-33.24,3-46.38,11.22-51.35,11.22-51.35l.6-5.77-13,1,3.4-3.19L97.18,333s29.23-10.75,38.65-15.32c9.61-4.58,57.67-14.93,63.27-15.13,5.61-.4,10-.8,26.84,4.18,16.62,5,228.88,85.78,228.88,85.78l.2,81.4-33.44,6.77s-6,8.95-8.21,9.55-282,7.36-282,7.36l-8.81-14.13-32.44-1,1.6-3.39Z" transform="translate(-52.07 -99.56)"/></g><g class="cls-3"><path class="cls-4" d="M402.56,398.5v22.89c-13.22-3.19-26.44-6.57-39.65-9.75-.6-8-1.4-15.93-2-23.89h-.81v23.09c-15.61-3.58-31.23-7-46.85-10.55-.4-8.76-.6-17.51-1-26.27H311v25.67c-7.21-1.59-14-2.78-20.62-4.18-9.21-2-18.42-4-27.84-5.57-2.2-.4-2.6-1.19-2.6-3.38-.2-14.33-.4-28.46-.8-42.79a75.33,75.33,0,0,0-1-9.16h-1c-.4,2.19-.8,4.58-1,6.77-.2,14.73-.4,29.26-.61,44v3.79c-23.22,3.38-42.25,15.32-61.27,29.05.4-7.36.6-14.13,1.2-20.7,1.6-17.11,3.2-34.23,5.21-51.34a252,252,0,0,1,4.8-26.87c.8-3.78,3-7.57,5.21-10.75,2.6-3.78,6.41-5.17,11-3.78,58.07,19.1,116.15,38.61,172.62,61.9,15,6.17,29.63,13.13,44.45,19.5,2.61,1.19,3.61,2.59,3.41,5.37-.6,8.16-.4,16.32-1.61,24.28-1.2,7.77-5.4,10.95-13.41,10.35-6.81-.59-13.62-2.19-20.43-3.58-.8-.2-1.6-1.79-1.6-2.79-.6-5.77-1-11.54-1.4-17.51l-.6-3.58a.73.73,0,0,0-.6-.2" transform="translate(-52.07 -99.56)"/></g><g class="cls-3"><path class="cls-4" d="M194.1,323.07c-1,6-2.4,11.94-3.21,18.11-1.8,15.52-3.6,31.25-5.2,46.77-1,10.95-1.6,22.09-2.4,33.24-.2,2.19-1,3.38-2.81,3.78-9.81,2.39-19.62,5.37-29.43,7a211.82,211.82,0,0,1-47.66,2.58c-5-.4-10-1-15.62-1.79,1.2-4.38,2-8.16,3.2-11.74,4.41-13.34,8.41-26.67,13.42-39.81,8.21-21.49,21.82-39.6,38.65-55.32.8-.8,1.6-1.4,2.4-2.19.2-.2.2-.4.4-1.2-6.21,1.2-12,2.19-17.62,3.19-1.4.2-2.81.79-4.41,1C107.39,330,97.38,340.58,91,355.31c-6.81,15.72-10.61,32-13.22,48.76-1,7-1.8,13.93-2.6,20.9a8.73,8.73,0,0,1-.4,2c-3-2.19-4.81-4.58-4.81-8,0-9-.2-17.91.81-26.87a201.79,201.79,0,0,1,11-47.17c4.2-11.74,11.81-19.1,23.43-23.28A315.7,315.7,0,0,1,162.26,307c12-2,24.23-2.79,36.44-4.18a13,13,0,0,1,2.81,0c-2,4.58-3.81,9.15-5.81,13.53a3.3,3.3,0,0,1-2.6,1.59c-4.81.6-9.61,1-14.62,1.4a11.78,11.78,0,0,0-10.81,8.16,128.11,128.11,0,0,0-4.61,16.72,175.21,175.21,0,0,0-2.4,20.3c-.4,4.77,1.6,6.36,6.41,6.36,6.2,0,8.81-2,9.81-8.16,2-12.14,3.6-24.28,5.2-36.42.2-2.19,1.21-3.18,3.21-3.18h8.81m-60.68,41.79c-.2-.19-.4-.19-.8-.39a28.08,28.08,0,0,0-2.6,2.38c-11.41,13.74-19.83,28.86-22.83,46.58-.2,1.59.4,3.38.6,5,1.4-1,3.41-1.79,4.21-3.18,3.2-5.38,6.4-10.75,8.61-16.52,4.6-11.35,8.61-22.69,12.81-33.84" transform="translate(-52.07 -99.56)"/></g><g class="cls-3"><path class="cls-4" d="M423,474.13h25c.6,0,1.81-1.2,2-2a16.11,16.11,0,0,0,.2-4.38c0-22.89,0-46-.2-68.86v-4.18c0-5,4-6,7.41-4.38,9,3.78,17.82,8,26.63,11.94,4.2,1.79,8.21,3.78,12.41,5.77,0,.2-.2.6-.2.8-13.41-3.78-26.83-7.76-40.25-11.54,0,6.56,0,12.93.2,19.3,0,.6,1.61,1.59,2.61,1.79,12,4,24.23,7.76,36.24,11.55a2.21,2.21,0,0,1,1.2,1.19c-13.21-1.39-26.43-3-40-4.58v2.79c.2,14.33.6,28.46.6,42.79,0,2.78,1,3.38,3.61,3.58,11,.4,21.83,1.2,32.84,1.79a25,25,0,0,1,3.8.6c0,.2.2.6.2.8a17.14,17.14,0,0,1-4,1c-12.62.8-25.23,1.59-37.85,2.19-9.81.4-19.42.6-29.23.6-1.81,0-3,.39-3.61,2.19-.6,1.59-1.8,3-3,5h3.2l35.45-.6c2.4,0,5,.6,7.41.8v1.39c-2.61.4-5.21,1-7.81,1.2l-39.65,1.19L273.8,498c-38.85,1-77.7,2.19-116.35,3.19L94.37,503c-3.4,0-6.8.2-10,0-1.2-.2-2.2-1.4-3.4-2.19.8-1.2,1.6-3,2.6-3.39A32.48,32.48,0,0,1,91.17,496l29-.6c.8,0,1.6-.19,3-.19a17.22,17.22,0,0,1-7.61-9.76c-.2-.59-1.6-1.19-2.6-1.19-6.81,0-13.82.2-20.63-.2-9.21-.4-16.42-5-21.42-12.54a7.35,7.35,0,0,1-1-2.19,2.92,2.92,0,0,1-.2-1.39c.81,0,1.41-.2,2-.2l105.73-1.19a5.58,5.58,0,0,1,4,1.59c6.81,7.76,15.22,11.14,25.43,10.75,4.41-.2,8.82,0,13.42,0,.4-4.38.6-8.16,1-12,1.6-12.93,10.82-23.68,22.63-26.86a25.3,25.3,0,0,1,15.82,1A33.72,33.72,0,0,1,281,471.94v3.18H395c.8-4.77,1.2-10.35,5.8-13.13A19.53,19.53,0,0,1,411,459.4c6.61-.2,10.81,5.57,12,14.73M251.77,492.84a16.23,16.23,0,0,0,14.62-7.57c5.41-7.76,5.61-15.92,1.2-24.08-3.4-6.17-8.81-9.75-16-9.55s-12.22,3.78-15.62,9.75a31.67,31.67,0,0,0-2.8,8.36c-1.81,11.94,7.41,23.29,18.62,23.09m78.1-9.16H277.4a3.1,3.1,0,0,0-1.6.4l-5.41,8.36,63.88-1.2c-1.6-2.78-3.2-5.37-4.4-7.56m-112.14,9.75c-2-3-3.61-5.57-5.41-8a3.44,3.44,0,0,0-2.6-1.39H172.67a3.3,3.3,0,0,0-2.2,1.39c-1.4,2.79-2.6,5.77-4,9,17.23-.4,34-.6,51.27-1m201-18.51c-1-2.58-1.8-5.17-3.21-7.16-2.2-3-6-3-8.41-.2-3.4,3.78-3.2,10.95,0,14.53,2.61,2.79,6.21,3,8.41-.2,1.61-1.79,2.21-4.38,3.21-7m-250.91,9.36H140.23c2.81,5.77,6.81,9.15,13.22,9,6.21-.4,10.61-3.59,14.42-9m197.24,6h24.83c-1.4-2.19-2.6-4.38-3.8-6.17a3.39,3.39,0,0,0-2.41-1.39c-4.4,0-8.81,0-13,.2-.8,0-1.8.39-2,1a41.34,41.34,0,0,0-3.61,6.37" transform="translate(-52.07 -99.56)"/></g><g class="cls-3"><path class="cls-4" d="M444.41,501.79a12.91,12.91,0,0,1-3.81.8c-12.41.8-25,1.59-37.44,2.19-31.24,1.79-62.48,3.38-93.52,5.17-20,1.2-39.85,2.19-59.87,3.19-31,1.59-62.08,3.58-92.92,5-8.61.4-17.22,0-25.83-.39a10.34,10.34,0,0,1-4.81-1.4c-3.4-1.59-3.6-5.57-.4-7.16a16.44,16.44,0,0,1,7.61-1.79L300,503.19c27-.6,53.87-1.4,80.9-2,19-.4,38.05-1,57.07-1.4,2.2,0,4.41.2,6.81.4a3,3,0,0,0-.4,1.59" transform="translate(-52.07 -99.56)"/></g><g class="cls-3"><path class="cls-4" d="M437.2,443.28a22.27,22.27,0,0,1-3.4.4c-32.84-4.18-65.49-8.16-98.33-12.34C302,427.16,268.39,422.78,235,418.4c-1-.2-2-.6-3.61-1a18.6,18.6,0,0,0,2.81-2.59c9.81-8.16,21.22-9.35,33.24-7C318.25,418,369.12,428.35,420,438.5c5.21,1,10.41,2.19,15.62,3.39.6.2,1,.39,1.6.59v.8" transform="translate(-52.07 -99.56)"/></g><g class="cls-3"><path class="cls-4" d="M149,451.24c.8-6.77,4.81-10.15,10.82-11.54,6.2-1.59,12.61-3.19,18.82-4.38,3.6-.8,4.4,0,4.61,3.78,0,4.38,0,8.76-.41,12.94-.2,2.58-1.4,4-4.4,3.78-35.24-.2-70.69-.2-105.93,0-3,0-4.21-1.2-4.41-3.78-.2-4-.2-8.16-.2-12.14,0-2,.8-3.19,3-2.39,6.2,2.19,12.61,4.18,18.62,6.77,1.8.79,3.4,3,4.2,5,.81,1.79,1.61,2.19,3.21,2.19h37.85c4.8-.2,9.41-.2,14.21-.2" transform="translate(-52.07 -99.56)"/></g><g class="cls-3"><path class="cls-4" d="M435.6,453.83l-9.61-.6c-20-1.59-40.05-3-60.08-4.58-22.23-1.79-44.45-3.38-66.68-5.17-6.61-.6-13.22-.8-20-1.59a13.77,13.77,0,0,1-5.4-2,99.51,99.51,0,0,1-9.81-8.76q85.9,10.16,171.61,21.69c.2.2,0,.6,0,1" transform="translate(-52.07 -99.56)"/></g><g class="cls-3"><path class="cls-4" d="M302.23,520.7a21.85,21.85,0,0,1-3.4,1c-22.63,2.58-45.46,5.37-68.09,7.76-17.42,1.79-34.84,3.58-52.26,5.17-4.41.4-8.81.2-13.22.2a9.06,9.06,0,0,1-3.2-.6c-1-.59-2.4-1.59-2.4-2.58a3.28,3.28,0,0,1,1.8-3,34.67,34.67,0,0,1,8.81-2.59c5.81-.59,11.61-.79,17.62-1.19,33.24-1.59,66.48-3.38,99.52-5l11.62-.59a17.5,17.5,0,0,1,3.2.4v1" transform="translate(-52.07 -99.56)"/></g><g class="cls-3"><path class="cls-4" d="M551.54,515.92a12.91,12.91,0,0,1-3.8.8c-12.42.8-25,1.59-37.45,2.19-31.24,1.79-62.48,3.38-93.52,5.17-20,1.2-39.84,2.19-59.87,3.19-31,1.59-62.08,3.58-92.91,5-8.62.4-17.23,0-25.84-.39a10.27,10.27,0,0,1-4.8-1.4c-3.41-1.59-3.61-5.57-.4-7.16a19.45,19.45,0,0,1,7.61-2l166.6-4.18c27-.6,53.87-1.39,80.9-2,19-.4,38.05-1,57.07-1.4,2.21,0,4.41.2,6.81.4a4.07,4.07,0,0,0-.4,1.79" transform="translate(-52.07 -99.56)"/></g><g class="cls-3"><path class="cls-4" d="M393.15,529.06c-.61.2-1.21.4-2,.6-13,1.59-26.23,3-39.25,4.38l-30,3c-2.41.2-5,.2-7.61.2a2.69,2.69,0,0,1-1.8-.4c-.61-.4-1.41-1-1.41-1.39a2.67,2.67,0,0,1,1-1.79,23.81,23.81,0,0,1,5-1.59c3.41-.4,6.81-.4,10-.6,19-1,38.25-2,57.27-2.79,2.21-.2,4.41-.2,6.61-.4.6,0,1.2.2,1.81.2Z" transform="translate(-52.07 -99.56)"/></g><g class="cls-3"><path class="cls-4" d="M282,452.24c38.65,2.78,76.89,5.37,115.54,8.16-1.2,2.58-2.4,3.78-5.21,3.78-34.84-.2-69.68-.4-104.53-.4-2,0-2.8-.6-3.2-2.59-.4-3-1.6-5.77-2.6-8.95" transform="translate(-52.07 -99.56)"/></g><g class="cls-3"><path class="cls-4" d="M83.16,334c-.2,2.18-1.4,2.78-3.2,3-5.21.4-8.81,3.38-9.61,8.56-1.41,8.56-2.41,16.92-3.61,25.47-.4,2.59-.8,5.18-1.2,7.57a6.42,6.42,0,0,1-7,5.17c-4.4-.2-5.81-1.19-6.21-5.57-1-13.34.8-25.87,7.41-37.82,2.2-4,5.61-6.36,10.21-6.36,4.41-.2,8.82,0,13.22,0" transform="translate(-52.07 -99.56)"/></g><g class="cls-3"><path class="cls-4" d="M424.58,461.59c3.61.6,6.81,1,11,1.59-6.21,2.39-10.21,1.79-11-1.59" transform="translate(-52.07 -99.56)"/></g><g class="cls-3"><path class="cls-5" d="M133.42,364.86c-4.2,11.35-8.21,22.69-12.61,33.84-2.41,5.77-5.61,11.14-8.61,16.52-.8,1.39-2.81,2.19-4.21,3.18-.2-1.59-1-3.38-.6-5,3.21-17.72,11.42-32.84,22.83-46.58a30.66,30.66,0,0,1,2.6-2.38c.2,0,.4.2.6.39" transform="translate(-52.07 -99.56)"/></g><g class="cls-3"><path class="cls-5" d="M251.77,492.84c-11.21.2-20.43-11.15-18.62-23.09a25.8,25.8,0,0,1,2.8-8.36c3.2-6,8.41-9.75,15.62-9.75,7.21-.2,12.62,3.38,16,9.55,4.61,8.16,4.21,16.32-1.2,24.08-3.61,4.78-8.41,7.77-14.62,7.57m.8-33.44c0-.4-.2-.8-.2-1.19-1.2-.2-2.6-.8-3.8-.4a11.36,11.36,0,0,0-4.41,2.19c-7.21,5.37-7.61,18.91-.8,24.88a11,11,0,0,0,8.81,2.78c.8-.2,1.6-1.19,2.4-1.79a15.17,15.17,0,0,0-2.2-1.59c-1.4-1-3-1.59-3.8-2.79-2.41-3.38-3-7.16-2.81-11.34a12,12,0,0,1,6.81-10.75" transform="translate(-52.07 -99.56)"/></g><g class="cls-3"><path class="cls-5" d="M329.87,483.68c1.4,2.39,2.8,4.78,4.4,7.76l-63.88,1.2q2.72-4.49,5.41-8.36c.2-.4,1-.4,1.6-.4,17.42-.2,35.05-.2,52.47-.2" transform="translate(-52.07 -99.56)"/></g><g class="cls-3"><path class="cls-5" d="M217.73,493.43c-17.22.4-34.24.6-51.27,1,1.41-3.19,2.61-6.17,4-9a3.3,3.3,0,0,1,2.2-1.39h37.05a3.8,3.8,0,0,1,2.6,1.39,62.16,62.16,0,0,1,5.41,8" transform="translate(-52.07 -99.56)"/></g><g class="cls-3"><path class="cls-5" d="M418.78,474.92c-1,2.59-1.8,5.18-3.21,7.17-2.2,3.18-5.8,3-8.41.2-3.4-3.58-3.4-10.75,0-14.53,2.41-2.79,6.41-3,8.41.2,1.61,1.79,2.21,4.38,3.21,7" transform="translate(-52.07 -99.56)"/></g><g class="cls-3"><path class="cls-5" d="M167.87,484.28c-3.81,5.37-8.21,8.56-14.62,9-6.41.19-10.41-3.19-13.22-9Z" transform="translate(-52.07 -99.56)"/></g><g class="cls-3"><path class="cls-5" d="M365.11,490.25c1-2,2-4.18,3.2-6.37a2.8,2.8,0,0,1,2-1c4.4-.2,8.81-.2,13-.2a3.06,3.06,0,0,1,2.41,1.39c1.4,1.79,2.4,4,3.8,6.17Z" transform="translate(-52.07 -99.56)"/></g><g class="cls-3"><path class="cls-4" d="M252.57,459.4a12.71,12.71,0,0,0-6.81,10.75,16.38,16.38,0,0,0,2.81,11.34c.8,1.2,2.6,1.79,3.8,2.79.8.6,1.4,1,2.2,1.59-.8.6-1.6,1.59-2.4,1.79a11.23,11.23,0,0,1-8.81-2.78c-6.81-6-6.41-19.51.8-24.88a15,15,0,0,1,4.41-2.19,13,13,0,0,1,3.8.4,2.52,2.52,0,0,0,.2,1.19" transform="translate(-52.07 -99.56)"/></g><g class="cls-3"><path class="cls-5" d="M226.74,495.23c0-1-13.22-15.53-13.22-15.53s13.42-13.33,14.22-13.93,46.06-12.94,46.06-12.94,3-7.16,15.82-12.93c13-5.78,45.05-12.14,69.68-13.14s50.07-4,66.49-.6S458.63,439.1,465,443.88s12.22,9.75,12.22,9.75,12,4.18,14.62,10.55,8.41,31.84,3.8,43.38c-4.8,11.55-.2,14.73-13.41,15.53s-167.81,0-167.81,0l-96.52-2.19s-1-.6-3.21-9.75-.8-14.53.61-16.92c1.4-2.19,11.41,1,11.41,1" transform="translate(-52.07 -99.56)"/></g><g class="cls-3"><path class="cls-4" d="M278.6,447.26c10.82-9.95,24-14.33,38-17.12,33.64-6.56,67.68-7.76,101.73-5.17a72.15,72.15,0,0,1,8.61,1.39,66.79,66.79,0,0,0-39.45,20.1,7.73,7.73,0,0,1-4.81,1.6c-32.44,2.58-64.68,4.77-97.12,7.56a352.5,352.5,0,0,0-40.85,5.77c-6.81,1.39-13.42,5.18-19.62,8.56-3.21,1.79-5.61,5-8.41,7.56.4.4.6,1,1,1.4,5.2-.4,10.61-.2,15.82-1.2,8.21-1.59,13.81,1.2,18.22,8a8.14,8.14,0,0,0,5.81,3.19c11.61-.4,23.23-1.2,34.84-2.19a7.09,7.09,0,0,0,4-2.79c4.8-8.16,11.21-12.54,21.22-12.94,14.22-.39,28.24-1.79,42.86-2.78-1.41,6.76-2.81,13.13-4,19.9-9.81.6-19.82,1.19-29.84,1.79l-105.93,5.38c-3.6.19-5,1.39-4.8,5.17.6,16.32.6,16.12,16.82,15.52,34.84-1.19,69.68-2.38,104.33-3.58,10.21-.4,20.42-.79,30.43-1.39,1.41-9.95,2-19.9,4.41-29.66a82.11,82.11,0,0,1,9.21-22.49c6.61-10.54,17.82-9.75,23.83,1.2,8.21,14.33,10.21,30.25,10,46.37,0,4.58,1.2,5.77,5.61,6,6.61.2,13,1.2,20.22,2-8.61-18.71-6.6-37.22-2.8-56.72-12-2.59-24-5-36-7.56,9.61-16.72,29.23-23.89,47.05-16.52,7.41,3,14.22,7.56,20.43,12.54,4.61,3.78,9.21,6.37,15,7.16a8.28,8.28,0,0,1,5.41,3.38c13,21.3,11.21,43.19,1.4,64.89-.6,1.39-3.61,2.39-5.61,2.39-31.24.19-62.48.19-93.72.19H213.72c-3.6-9.35-4.4-18.9-3.6-28.66a4.23,4.23,0,0,1,.8-2c4.4-4.77,4.4-4.77,4-10.94a5.84,5.84,0,0,0-1.8-.4,7.5,7.5,0,0,0-2.2-.2c0-.6-.2-1.19-.2-1.59,3.4-9.95,12-14.33,20.62-18.11,17-7.57,35.65-9.56,53.87-11.55,24.63-2.78,49.26-6.17,73.89-6.76,15.82-.4,28.44-6,41.86-15.92-7.61,0-14-.2-20.23,0-24.63.59-49.06,2.18-73.09,7.56-8.21,1.79-16,6-24,9.15-1.6.8-3.2,1.79-5,2.59m174.22,68.66a24.86,24.86,0,0,0,.4-3c.2-7.56-.6-15.53.6-22.89a90.31,90.31,0,0,1,6.41-22.89c3.6-8,11.81-8.36,17.42-1.79a27.35,27.35,0,0,1,5,9.16c4.2,12.73,3.6,25.87,2.6,39.2-.2,1.6.8,3.39,1,5,1.4-1.19,3.41-2.19,4-3.78,6.6-18.11,5.2-35.63-4-52.54-2-3.79-4.4-6.57-9-7.17-2.2-.2-4.41-2.19-6.21-4-7.21-6.57-14.82-12.34-24.43-15.12-11-3-22.83.79-28.83,9.55,13,2.39,26,4.58,39.45,7-12.82,19.31-15.62,40-12.22,62.1a57,57,0,0,0,7.81,1.19" transform="translate(-52.07 -99.56)"/></g><g class="cls-3"><path class="cls-5" d="M407.76,490.25c0,16.72-6.6,30.45-14.61,30.45s-14.62-13.53-14.62-30.45c0-16.72,6.61-30.45,14.62-30.45s14.61,13.53,14.61,30.45" transform="translate(-52.07 -99.56)"/></g><g class="cls-3"><path class="cls-5" d="M479.65,494c0,14.53-4.4,26.07-9.81,26.07S460,508.36,460,494c0-14.53,4.4-26.07,9.81-26.07s9.81,11.54,9.81,26.07" transform="translate(-52.07 -99.56)"/></g><g class="cls-3"><path class="cls-4" d="M590.79,394.92H583c-3.8,0-5.41,2.39-5.41,7v6.57h-7.4v-7c0-8.35,3.2-14.52,9.61-15.52a33.8,33.8,0,0,1-1.61-10.75c0-11.54,4.61-19.5,12.22-19.5,8,0,12.42,7.76,12.42,19.5.4,12.14-3.81,19.71-12,19.71m0-30.45c-2.8,0-4.81,2.78-4.81,10.94,0,8,2,10.75,4.81,10.75,3,0,5-3,5-10.55,0-8.36-2-11.14-5-11.14" transform="translate(-52.07 -99.56)"/></g><g class="cls-3"><path class="cls-4" d="M639.45,394.92h-7.81c-3.8,0-5.41,2.39-5.41,7v6.57h-7.4v-7c0-8.35,3.2-14.52,9.61-15.52a33.82,33.82,0,0,1-1.6-10.75c0-11.54,4.6-19.5,12.21-19.5,8,0,12.42,7.76,12.42,19.5.4,12.14-4,19.71-12,19.71m0-30.45c-2.8,0-4.8,2.78-4.8,10.94,0,8,2,10.75,4.8,10.75,3,0,5-3,5-10.55,0-8.36-2-11.14-5-11.14" transform="translate(-52.07 -99.56)"/></g><g class="cls-3"><path class="cls-4" d="M667.49,394.92v-8.76H679.9V375.81c0-7-1.2-8.76-4.8-8.76l1.2-8.55c7.41,0,10.81,4.77,10.81,14.13v22.29Zm8.81-52.15h7.41v9.56H676.3Z" transform="translate(-52.07 -99.56)"/></g><g class="cls-3"><path class="cls-4" d="M734.77,394.92a9.65,9.65,0,0,1-6.61-2.39v.4c0,9.35-5,15.52-11.81,15.72h-1.61c-6.8-.2-11.81-6.57-11.81-15.92V358.89h7.41v33.64c0,4.58,1.6,7.16,5.41,7.16,3.6,0,5.2-2.38,5.2-7.16V359.09h7.41v20.3c0,4.18,2.8,6.57,6.61,6.57h.8v8.76h-1Zm-23-52.15h7.41v9.56h-7.41Z" transform="translate(-52.07 -99.56)"/></g><g class="cls-3"><path class="cls-4" d="M731.37,400.89H738v9.55h-6.6Zm3.4-6h-.6v-8.76h.6c5-.2,6.41-2.39,6.41-7v-20.1h7.41v20.5c0,9.56-4.81,15.33-13.82,15.33m6,6h6.4v9.55h-6.4Z" transform="translate(-52.07 -99.56)"/></g><g class="cls-3"><path class="cls-4" d="M751.19,408.85v-8.56c6,0,5.81-6.37,5.81-11.54V359.49h7.21s.2.8,0,33.24c-.2,8.16-4.21,16.52-13,16.12m5.41-66.08H764v9.56H756.6Z" transform="translate(-52.07 -99.56)"/></g><g class="cls-3"><path class="cls-4" d="M793.64,394.92c-.8,8.55-6,13.93-12,14.53l-1.2.19v-8.95a5.89,5.89,0,0,0,5.6-5.77h-4.4c-5.21,0-11.82-4-11.82-16.92,0-12.14,4.21-18.91,11.82-18.91h12.21v27.07h7v8.76Zm-7.21-27.27h-4.6c-4,0-4.61,6.37-4.61,10.35,0,4.38,1.6,8.16,4.61,8.16h4.6Z" transform="translate(-52.07 -99.56)"/></g><g class="cls-3"><path class="cls-4" d="M829.09,392.93c-2,5.37-5.61,8.55-10.82,8.55-5,0-8.81-3-10.81-8.16a11.34,11.34,0,0,1-6.41,1.6h-2.2v-8.76c2.8-.2,6.41-.2,6.61-4.78.4-11.14,4.8-18.31,12.81-18.31,8.21,0,12.42,8.16,12.42,18.31q0,4.78,5.4,4.78h2.21v8.76c-3.21,0-6.61-.2-9.21-2m-11-21.7c-3,0-5,2.79-5,10.75s2,10.55,5,10.55,5-2.79,5-10.35c0-8.16-2-10.95-5-10.95" transform="translate(-52.07 -99.56)"/></g><g class="cls-3"><path class="cls-4" d="M834.29,400.89h6.41v9.55h-6.41Zm21.83-6a11.69,11.69,0,0,1-8.81-3.78,10.89,10.89,0,0,1-8.61,3.78h-2.2v-8.76h2.2c3,0,4.8-2.19,4.8-5.57v-21.5h7.41v21.7c0,3.18,1.81,5.37,5.41,5.37h2.2v8.76Zm-12.42,6h6.41v9.55H843.7Z" transform="translate(-52.07 -99.56)"/></g><g class="cls-3"><path class="cls-4" d="M856.32,394.92v-8.76c5,0,7.41-2.39,7.41-7V345.36h7.41v34.43c0,9.36-5.61,15.13-14.82,15.13" transform="translate(-52.07 -99.56)"/></g><g class="cls-3"><path class="cls-4" d="M925.41,394.92V368.65c-2.21,0-4.61,1.59-4.61,8.16v17.91H887c.2-5,.6-13.14,2.8-19.31,3.21-9.55,8.21-14.53,18.62-14.33v8.16c-5.2,0-8.81.8-11.41,7.37a32.81,32.81,0,0,0-2,9.15h18.62c.2-10.15.2-9.75,0-10.15,0-16.12,10.41-16.92,19.43-16.92v26.87h7.4v8.76h-15Zm-30,6H902v9.55h-6.61Zm9.41,0h6.61v9.55h-6.61Z" transform="translate(-52.07 -99.56)"/></g><g class="cls-3"><path class="cls-4" d="M938.22,394.92v-8.76c5,0,7.41-2.39,7.41-7v-20.1H953v20.5c0,9.56-5.61,15.33-14.82,15.33m.6-52.15h5.81v9.56h-5.81Zm8.81,0h5.81v9.56h-5.81Z" transform="translate(-52.07 -99.56)"/></g><g class="cls-3"><path class="cls-4" d="M980.67,394.92c-5,0-11.81-4.58-11.81-17.72,0-12.14,4.41-18.11,11.81-18.11h12V386h8v8.76h-20Zm4.61-27.27h-4.41c-4,0-5,5.77-5,9.75,0,4.38,1.8,8.76,5,8.76h4.41Z" transform="translate(-52.07 -99.56)"/></g><g class="cls-3"><path class="cls-4" d="M997.09,400.89h6.61v9.55h-6.61Zm3.41-6h-.6v-8.76h.6c5-.2,6.41-2.39,6.41-7v-20.1h7.41v20.5c0,9.56-5,15.33-13.82,15.33m6,6h6.4v9.55h-6.4Z" transform="translate(-52.07 -99.56)"/></g><g class="cls-3"><rect class="cls-4" x="967.86" y="245.6" width="7.41" height="49.76"/></g><g class="cls-3"><path class="cls-4" d="M1054.77,394.92c-5,0-11.82-4.58-11.82-17.72,0-12.14,4.41-18.11,11.82-18.11h12V386h8v8.76h-20Zm4.8-27.27h-4.4c-4,0-5,5.77-5,9.75,0,4.38,1.8,8.76,5,8.76h4.4Z" transform="translate(-52.07 -99.56)"/></g><g class="cls-3"><path class="cls-4" d="M1071.19,400.89h6.6v9.55h-6.6Zm3.4-6h-.6v-8.76h.6c5-.2,6.41-2.39,6.41-7v-20.1h7.41v20.5c0,9.56-4.81,15.33-13.82,15.33m6,6H1087v9.55h-6.41Z" transform="translate(-52.07 -99.56)"/></g><g class="cls-3"><rect class="cls-4" x="1042.15" y="245.6" width="7.41" height="49.76"/></g></g></g><text class="cls-8" transform="translate(519.42 376.3) scale(1.01 1)">AL AMEEN TRANSPORTS</text><text class="cls-9" transform="translate(646.44 299.22) scale(1.01 1)">تايلقنلل نيملا</text></svg>