<svg id="Layer_1" data-name="Layer 1" xmlns="http://www.w3.org/2000/svg" xmlns:xlink="http://www.w3.org/1999/xlink" viewBox="0 0 1161.61 471.25"><defs><style>.cls-1{fill:none;}.cls-2{clip-path:url(#clip-path);}.cls-3{clip-path:url(#clip-path-2);}.cls-4{fill:#010101;}.cls-5{fill:#fff;}.cls-6{fill:#bf232d;}.cls-7{fill:#dcddde;}.cls-8,.cls-9{font-size:75.36px;fill:#231f20;}.cls-8{font-family:Akhand-Black, Akhand;font-weight:800;}.cls-9{font-family:GESSTextBold-Bold, GE SS;font-weight:700;}</style><clipPath id="clip-path" transform="translate(-27.45 -7.61)"><rect class="cls-1" x="0.94" y="-25.82" width="574.19" height="529.32"/></clipPath><clipPath id="clip-path-2" transform="translate(-27.45 -7.61)"><rect class="cls-1" x="-249.73" y="-207.76" width="1738.2" height="901.99"/></clipPath></defs><g class="cls-2"><g class="cls-3"><g class="cls-3"><path class="cls-4" d="M605.34,400H595.05l-2.57,13.29H580.27l11.78-57h16.07l11.79,57H607.69Zm-1.93-10.28a201.52,201.52,0,0,1-3.21-21c-.65,5.78-1.72,12.85-3.22,21Z" transform="translate(-27.45 -7.61)"/></g><g class="cls-3"><path class="cls-4" d="M646.69,400H636.4l-2.57,13.29H621.62l11.78-57h16.07l11.79,57H649Zm-1.93-10.28a201.52,201.52,0,0,1-3.21-21c-.65,5.78-1.72,12.85-3.22,21Z" transform="translate(-27.45 -7.61)"/></g><g class="cls-3"><polygon class="cls-4" points="668.3 359.17 658.02 359.17 658.02 405.67 645.59 405.67 645.59 359.17 635.31 359.17 635.31 348.45 668.3 348.45 668.3 359.17"/></g><g class="cls-3"><polygon class="cls-4" points="713.08 405.67 685.23 405.67 685.23 348.45 697.66 348.45 697.66 394.96 713.08 394.96 713.08 405.67"/></g><g class="cls-3"><rect class="cls-4" x="717.58" y="348.45" width="12.43" height="57"/></g><g class="cls-3"><path class="cls-4" d="M781.45,393.14,777.38,382c.21,3,.21,6.86.21,11.15v20.14H765.81v-57h11.78l7.07,18.85,3.86,11.15c1.07-3.43,2.57-7.29,3.86-11.15l7.07-18.85h12v57h-12V392.92l.21-11.14c-1.07,3.21-2.36,7.07-3.86,11.14l-2.14,5.79H783.38Z" transform="translate(-27.45 -7.61)"/></g><g class="cls-3"><path class="cls-4" d="M853.65,399.35c0,4.5-1.5,8.14-4.5,10.72s-7.28,4.07-12.85,4.07-9.86-1.29-12.86-4.07c-3-2.58-4.28-6.22-4.28-10.72V370a14,14,0,0,1,4.28-10.71c3-2.58,7.29-4.08,12.86-4.08s9.85,1.29,12.85,4.08c3,2.57,4.5,6.21,4.5,10.71Zm-12.21-28.5c0-2.79-1.71-4.07-4.93-4.07s-4.93,1.28-4.93,4.07v27.86c0,2.78,1.72,4.07,4.93,4.07s4.93-1.29,4.93-4.07Z" transform="translate(-27.45 -7.61)"/></g><g class="cls-3"><path class="cls-4" d="M895.43,356.06v43.08c0,4.5-1.5,8.14-4.5,10.71s-7.28,4.07-12.85,4.07-9.86-1.28-12.86-4.07c-3-2.57-4.5-6.21-4.5-10.71V356.06h12.43v42.65c0,2.78,1.71,4.07,4.93,4.07s4.92-1.29,4.92-4.07V356.06Z" transform="translate(-27.45 -7.61)"/></g><g class="cls-3"><path class="cls-4" d="M908.93,385.85c-5.14-3.43-7.72-7.93-7.72-13.93V370c0-4.5,1.29-8.14,4.08-10.71s7.07-3.86,12.64-3.86,9.85,1.28,12.64,3.86A14,14,0,0,1,934.85,370v4.5H922.43v-3.86a4.22,4.22,0,0,0-.86-3,4.67,4.67,0,0,0-3.43-1.07c-1.5,0-2.79.22-3.21.86a4.15,4.15,0,0,0-.86,3v1.07c0,2.14,1.28,4.07,4.07,5.79l10.07,6.43a15.77,15.77,0,0,1,5.57,5.78,18.38,18.38,0,0,1,1.71,8.15v1.71a14.07,14.07,0,0,1-4.28,10.72q-4.19,3.85-12.86,3.85-8.36,0-12.85-3.85a14,14,0,0,1-4.29-10.72v-4.29h12.43v3.86q0,3.85,4.5,3.86c3,0,4.71-1.29,4.71-3.86v-1.07a6.2,6.2,0,0,0-.64-3,7.43,7.43,0,0,0-3-2.57Z" transform="translate(-27.45 -7.61)"/></g><g class="cls-3"><rect class="cls-4" x="913.19" y="348.45" width="12.43" height="57"/></g><g class="cls-3"><path class="cls-4" d="M997.84,356.06v57H986.06l-7.72-19.72c-.85-2.14-1.71-4.29-2.35-6.43a33.94,33.94,0,0,0-1.93-5.14,40.31,40.31,0,0,0-1.29-3.86c-.42-1.07-.64-1.93-.85-2.57s-.22-1.07-.43-1.07c1.28,4.07,2.14,12,2.14,23.57v15.22H961.42v-57h12.21l7.5,19.07A164,164,0,0,1,987.56,394q-1.93-7.39-1.93-23.78V355.85h12.21Z" transform="translate(-27.45 -7.61)"/></g><g class="cls-3"><polygon class="cls-4" points="1007.67 405.67 978.75 405.67 978.75 348.45 1007.67 348.45 1007.67 359.17 990.96 359.17 990.96 371.38 1005.32 371.38 1005.32 382.1 990.96 382.1 990.96 394.96 1007.67 394.96 1007.67 405.67"/></g><g class="cls-3"><polygon class="cls-4" points="1053.95 405.67 1026.1 405.67 1026.1 348.45 1038.74 348.45 1038.74 394.96 1053.95 394.96 1053.95 405.67"/></g><g class="cls-3"><polygon class="cls-4" points="1086.3 405.67 1058.45 405.67 1058.45 348.45 1070.88 348.45 1070.88 394.96 1086.3 394.96 1086.3 405.67"/></g><g class="cls-3"><path class="cls-4" d="M1151.89,392.49v6.86c0,4.5-1.5,8.14-4.5,10.72s-7.29,4.07-12.86,4.07-9.85-1.29-12.85-4.07c-3-2.58-4.29-6.22-4.29-10.72V370a14,14,0,0,1,4.29-10.71c3-2.58,7.28-4.08,12.85-4.08s9.86,1.29,12.86,4.08c3,2.57,4.5,6.21,4.5,10.71v6.86h-12.43v-6.22c0-2.78-1.71-4.07-4.93-4.07s-4.93,1.29-4.93,4.07v27.86c0,2.79,1.72,4.07,4.93,4.07s4.93-1.28,4.93-4.07v-6.21h12.43Z" transform="translate(-27.45 -7.61)"/></g><g class="cls-3"><path class="cls-5" d="M564.63,239.48c0,123.44-100.05,223.73-223.68,223.73-123.4,0-223.67-100.08-223.67-223.73S217.55,15.75,341.17,15.75c123.41,0,223.46,100.08,223.46,223.73" transform="translate(-27.45 -7.61)"/></g><g class="cls-3"><path class="cls-6" d="M338.6,467.28C212,467.28,108.71,364.2,108.71,237.34S211.76,7.61,338.6,7.61c126.62,0,229.89,103.08,229.89,229.94S465.22,467.28,338.6,467.28m0-437.17c-114.41,0-207.4,93-207.4,207.44S224.19,445,338.6,445,546,352,546,237.55,452.79,30.11,338.6,30.11" transform="translate(-27.45 -7.61)"/></g><g class="cls-3"><path class="cls-7" d="M338.6,424c-102.84,0-186.4-83.57-186.4-186.44S235.76,51.11,338.6,51.11,525,134.69,525,237.55,441.44,424,338.6,424m0-357.23c-94.06,0-170.54,76.5-170.54,170.79A170.59,170.59,0,0,0,338.6,408.14c94,0,170.54-76.51,170.54-170.59S432.65,66.76,338.6,66.76" transform="translate(-27.45 -7.61)"/></g><g class="cls-3"><path class="cls-7" d="M338.6,424c-33.64,0-65.13-19.93-88.49-55.93C227.4,333.13,215,286.63,215,237.55,215,188.26,227.4,142,250.11,107,273.47,71,305,51.11,338.6,51.11S403.73,71,427.08,107c22.71,34.94,35.14,81.44,35.14,130.51,0,49.29-12.43,95.58-35.14,130.51-23.35,36-54.85,55.93-88.48,55.93m0-357.23c-59.56,0-107.77,76.5-107.77,170.79S279.25,408.14,338.6,408.14c59.56,0,107.76-76.51,107.76-170.59S397.94,66.76,338.6,66.76" transform="translate(-27.45 -7.61)"/></g><g class="cls-3"><rect class="cls-7" x="303.22" y="56.15" width="15.85" height="352.31"/></g><g class="cls-3"><rect class="cls-7" x="135.04" y="219.66" width="352.23" height="15.86"/></g><g class="cls-3"><rect class="cls-7" x="154.11" y="132.87" width="314.09" height="15.86"/></g><g class="cls-3"><rect class="cls-7" x="151.11" y="306.45" width="319.87" height="15.86"/></g><g class="cls-3"><path class="cls-5" d="M70.14,415l-19.49-4.5s-4.07.65-5.36-12.43a139.25,139.25,0,0,1-.64-24l4.28.22s.65-35.79,3.22-49.94,12-55.28,12-55.28l.65-6.22-13.93,1.07,3.64-3.43L75.71,259s31.28-11.57,41.35-16.5c10.29-4.93,61.71-16.07,67.71-16.28,6-.43,10.71-.86,28.71,4.5,17.78,5.35,244.88,92.36,244.88,92.36l.22,87.65L422.8,418s-6.43,9.65-8.79,10.29-301.66,7.93-301.66,7.93L102.92,421l-34.7-1.07,1.71-3.64Z" transform="translate(-27.45 -7.61)"/></g><g class="cls-3"><path class="cls-4" d="M402.44,329.49v24.64c-14.14-3.43-28.28-7.07-42.42-10.5-.64-8.57-1.5-17.14-2.14-25.71H357v24.85c-16.71-3.85-33.42-7.5-50.13-11.35-.43-9.43-.64-18.86-1.07-28.29h-1.29v27.64c-7.71-1.71-15-3-22.07-4.5-9.85-2.14-19.71-4.28-29.78-6-2.35-.43-2.78-1.28-2.78-3.64-.22-15.43-.43-30.64-.86-46.07A81,81,0,0,0,248,260.7H246.9c-.43,2.35-.86,4.93-1.07,7.28-.22,15.86-.43,31.51-.65,47.36v4.08c-24.85,3.64-45.2,16.5-65.56,31.28.43-7.93.65-15.21,1.29-22.28,1.71-18.43,3.43-36.86,5.57-55.29a272.91,272.91,0,0,1,5.14-28.93c.86-4.08,3.22-8.15,5.57-11.58,2.79-4.07,6.86-5.57,11.79-4.07,62.13,20.58,124.26,41.58,184.68,66.65,16.07,6.64,31.71,14.14,47.56,21,2.79,1.29,3.86,2.79,3.64,5.79-.64,8.78-.42,17.57-1.71,26.14-1.28,8.36-5.78,11.79-14.35,11.15-7.29-.65-14.57-2.36-21.86-3.86-.85-.22-1.71-1.93-1.71-3-.64-6.22-1.07-12.43-1.5-18.86-.22-1.29-.43-2.57-.64-3.86a.81.81,0,0,0-.65-.21" transform="translate(-27.45 -7.61)"/></g><g class="cls-3"><path class="cls-4" d="M179.41,248.27c-1.07,6.43-2.57,12.86-3.43,19.5-1.93,16.72-3.85,33.64-5.57,50.36-1.07,11.79-1.71,23.79-2.57,35.79-.21,2.36-1.07,3.64-3,4.07-10.5,2.57-21,5.79-31.49,7.5a224.89,224.89,0,0,1-51,2.79c-5.36-.43-10.72-1.07-16.72-1.93,1.29-4.72,2.15-8.79,3.43-12.65,4.72-14.35,9-28.71,14.36-42.86,8.78-23.14,23.35-42.64,41.35-59.57.85-.86,1.71-1.5,2.57-2.36.21-.21.21-.43.43-1.28-6.65,1.28-12.86,2.35-18.86,3.42-1.5.22-3,.86-4.71,1.08-17.57,3.64-28.28,15-35.14,30.85-7.28,16.93-11.35,34.51-14.14,52.51-1.07,7.5-1.93,15-2.78,22.5a9.62,9.62,0,0,1-.43,2.14c-3.22-2.35-5.14-4.93-5.14-8.57,0-9.64-.22-19.29.85-28.93,1.72-17.36,6-34.29,11.79-50.79,4.5-12.64,12.64-20.57,25.06-25.07a336.62,336.62,0,0,1,61.06-15.86c12.86-2.14,25.93-3,39-4.5a14.17,14.17,0,0,1,3,0c-2.14,4.93-4.07,9.86-6.22,14.57a3.52,3.52,0,0,1-2.78,1.72c-5.14.64-10.28,1.07-15.64,1.5A12.64,12.64,0,0,0,151.13,253a140.12,140.12,0,0,0-4.93,18,191.71,191.71,0,0,0-2.57,21.86c-.43,5.15,1.71,6.86,6.86,6.86,6.64,0,9.42-2.14,10.49-8.79,2.15-13.07,3.86-26.14,5.58-39.21.21-2.36,1.28-3.43,3.42-3.43h9.43m-64.92,45c-.21-.21-.43-.21-.85-.43a31.06,31.06,0,0,0-2.79,2.57c-12.21,14.79-21.21,31.08-24.42,50.15-.22,1.72.42,3.64.64,5.36,1.5-1.07,3.64-1.93,4.5-3.43,3.43-5.79,6.85-11.57,9.21-17.79,4.93-12.21,9.21-24.43,13.71-36.43" transform="translate(-27.45 -7.61)"/></g><g class="cls-3"><path class="cls-4" d="M424.3,410.92h26.78c.64,0,1.93-1.28,2.14-2.14a17.4,17.4,0,0,0,.21-4.72c0-24.64,0-49.5-.21-74.14v-4.5c0-5.36,4.29-6.43,7.93-4.72,9.64,4.07,19.07,8.57,28.49,12.86,4.5,1.93,8.79,4.07,13.29,6.21,0,.22-.22.65-.22.86-14.35-4.07-28.71-8.36-43.06-12.43,0,7.07,0,13.93.21,20.79,0,.64,1.72,1.71,2.79,1.93,12.85,4.28,25.92,8.36,38.78,12.43a2.45,2.45,0,0,1,1.28,1.28c-14.14-1.5-28.28-3.21-42.85-4.93v3c.22,15.43.64,30.65.64,46.08,0,3,1.08,3.64,3.86,3.86,11.78.43,23.35,1.28,35.14,1.93a26.26,26.26,0,0,1,4.07.64c0,.21.21.64.21.86a18.34,18.34,0,0,1-4.28,1.07c-13.5.85-27,1.71-40.49,2.35-10.5.43-20.79.65-31.29.65-1.92,0-3.21.43-3.85,2.35-.64,1.72-1.93,3.22-3.22,5.36h3.43l37.92-.64c2.58,0,5.36.64,7.93.86v1.5c-2.78.43-5.57,1.07-8.35,1.28l-42.43,1.29-154.47,4.5c-41.56,1.07-83.13,2.36-124.48,3.43L72.71,442c-3.64,0-7.28.21-10.71,0-1.28-.22-2.35-1.5-3.64-2.36.86-1.29,1.71-3.22,2.78-3.64a33.92,33.92,0,0,1,8.15-1.5l31.06-.65c.86,0,1.72-.21,3.22-.21a18.53,18.53,0,0,1-8.15-10.5c-.21-.65-1.71-1.29-2.78-1.29-7.28,0-14.78.22-22.07-.21-9.85-.43-17.57-5.36-22.92-13.5a7.84,7.84,0,0,1-1.07-2.36,3.11,3.11,0,0,1-.22-1.5c.86,0,1.5-.22,2.14-.22l113.13-1.28a6,6,0,0,1,4.28,1.71c7.29,8.36,16.29,12,27.21,11.58,4.72-.22,9.43,0,14.36,0,.43-4.72.64-8.79,1.07-12.86,1.71-13.93,11.57-25.5,24.21-28.93a27,27,0,0,1,16.92,1.07,36.31,36.31,0,0,1,22.71,33.22V412H394.3c.86-5.14,1.29-11.14,6.22-14.14a20.71,20.71,0,0,1,10.92-2.79c7.07-.21,11.57,6,12.86,15.86M241.11,431.07c6.86.21,12-2.79,15.64-8.15,5.79-8.35,6-17.14,1.29-25.93-3.64-6.64-9.43-10.5-17.14-10.28s-13.07,4.07-16.71,10.5a34,34,0,0,0-3,9c-1.93,12.86,7.93,25.07,19.92,24.86m83.56-9.86H268.54a3.31,3.31,0,0,0-1.72.43q-2.88,4.5-5.78,9l68.34-1.29c-1.71-3-3.42-5.78-4.71-8.14m-120,10.5c-2.14-3.21-3.85-6-5.78-8.57a3.68,3.68,0,0,0-2.79-1.5H156.49a3.49,3.49,0,0,0-2.36,1.5c-1.5,3-2.79,6.21-4.29,9.64,18.43-.43,36.43-.64,54.85-1.07M419.8,411.78c-1.07-2.79-1.93-5.57-3.43-7.72-2.36-3.21-6.43-3.21-9-.21-3.64,4.07-3.43,11.79,0,15.64,2.79,3,6.64,3.22,9-.21,1.71-1.93,2.36-4.71,3.43-7.5M151.34,421.85H121.78c3,6.22,7.28,9.86,14.14,9.65,6.64-.43,11.35-3.86,15.42-9.65m211,6.43H389c-1.5-2.36-2.79-4.71-4.08-6.64a3.61,3.61,0,0,0-2.57-1.5c-4.71,0-9.42,0-13.92.21-.86,0-1.93.43-2.14,1.07a45,45,0,0,0-3.86,6.86" transform="translate(-27.45 -7.61)"/></g><g class="cls-3"><path class="cls-4" d="M447.22,440.71a13.72,13.72,0,0,1-4.07.86c-13.28.85-26.78,1.71-40.06,2.35-33.43,1.93-66.85,3.65-100.06,5.58-21.42,1.28-42.63,2.35-64.06,3.43-33.21,1.71-66.42,3.85-99.41,5.35-9.21.43-18.43,0-27.64-.43a11,11,0,0,1-5.14-1.5c-3.64-1.71-3.86-6-.43-7.71a17.51,17.51,0,0,1,8.14-1.93l178.26-4.5c28.92-.64,57.63-1.5,86.55-2.14,20.36-.43,40.71-1.07,61.07-1.5,2.35,0,4.71.21,7.28.43a3.2,3.2,0,0,0-.43,1.71" transform="translate(-27.45 -7.61)"/></g><g class="cls-3"><path class="cls-4" d="M439.51,377.71a24.38,24.38,0,0,1-3.64.42c-35.14-4.5-70.06-8.78-105.2-13.28-35.78-4.5-71.77-9.22-107.55-13.93-1.07-.22-2.15-.64-3.86-1.07a20.12,20.12,0,0,0,3-2.79c10.5-8.79,22.71-10.07,35.57-7.5,54.41,10.93,108.83,22.07,163.25,33,5.57,1.07,11.14,2.36,16.71,3.65.65.21,1.08.42,1.72.64v.86" transform="translate(-27.45 -7.61)"/></g><g class="cls-3"><path class="cls-4" d="M131.2,386.28c.86-7.29,5.15-10.93,11.57-12.43,6.65-1.72,13.5-3.43,20.14-4.72,3.86-.85,4.72,0,4.93,4.08,0,4.71,0,9.42-.43,13.93-.21,2.78-1.5,4.28-4.71,4.07-37.71-.22-75.63-.22-113.34,0-3.21,0-4.5-1.29-4.71-4.07-.22-4.29-.22-8.79-.22-13.08,0-2.14.86-3.43,3.22-2.57,6.64,2.36,13.49,4.5,19.92,7.29,1.93.85,3.64,3.21,4.5,5.35.86,1.93,1.72,2.36,3.43,2.36H116c5.14-.21,10.07-.21,15.21-.21" transform="translate(-27.45 -7.61)"/></g><g class="cls-3"><path class="cls-4" d="M437.79,389.06l-10.28-.64c-21.42-1.71-42.85-3.21-64.27-4.93-23.79-1.93-47.57-3.64-71.35-5.57-7.07-.64-14.14-.86-21.42-1.71a14.78,14.78,0,0,1-5.79-2.15,106.5,106.5,0,0,1-10.5-9.43Q346.1,375.57,437.79,388c.22.22,0,.65,0,1.07" transform="translate(-27.45 -7.61)"/></g><g class="cls-3"><path class="cls-4" d="M295.1,461.07a22.47,22.47,0,0,1-3.64,1.07c-24.21,2.79-48.63,5.79-72.84,8.36-18.64,1.93-37.28,3.86-55.92,5.57-4.71.43-9.43.21-14.14.21a9.68,9.68,0,0,1-3.43-.64c-1.07-.64-2.57-1.71-2.57-2.78a3.55,3.55,0,0,1,1.93-3.22,37,37,0,0,1,9.42-2.79c6.22-.64,12.43-.85,18.86-1.28,35.56-1.72,71.13-3.64,106.48-5.36l12.43-.64a18.18,18.18,0,0,1,3.42.43v1.07" transform="translate(-27.45 -7.61)"/></g><g class="cls-3"><path class="cls-4" d="M561.84,455.93a14,14,0,0,1-4.07.85c-13.28.86-26.78,1.72-40.06,2.36-33.42,1.93-66.85,3.64-100.06,5.57-21.42,1.29-42.63,2.36-64.06,3.43-33.2,1.72-66.41,3.86-99.41,5.36-9.21.43-18.42,0-27.63-.43a11,11,0,0,1-5.15-1.5c-3.64-1.71-3.85-6-.43-7.72a21.07,21.07,0,0,1,8.15-2.14l178.25-4.5c28.92-.64,57.63-1.5,86.56-2.14,20.35-.43,40.7-1.07,61.06-1.5,2.36,0,4.71.21,7.28.43a4.36,4.36,0,0,0-.43,1.93" transform="translate(-27.45 -7.61)"/></g><g class="cls-3"><path class="cls-4" d="M392.37,470.07c-.64.21-1.28.43-2.14.64-13.93,1.72-28.07,3.22-42,4.72l-32.14,3.21c-2.57.22-5.36.22-8.14.22a2.88,2.88,0,0,1-1.93-.43c-.64-.43-1.5-1.07-1.5-1.5A2.86,2.86,0,0,1,305.6,475a26.68,26.68,0,0,1,5.36-1.72c3.64-.42,7.28-.42,10.71-.64,20.36-1.07,40.92-2.14,61.28-3,2.35-.21,4.71-.21,7.07-.43.64,0,1.28.22,1.93.22Z" transform="translate(-27.45 -7.61)"/></g><g class="cls-3"><path class="cls-4" d="M273.47,387.35c41.35,3,82.27,5.79,123.62,8.79-1.29,2.78-2.57,4.07-5.57,4.07-37.28-.22-74.56-.43-111.84-.43-2.14,0-3-.64-3.43-2.79-.43-3.21-1.71-6.21-2.78-9.64" transform="translate(-27.45 -7.61)"/></g><g class="cls-3"><path class="cls-4" d="M60.72,260.05c-.22,2.36-1.5,3-3.43,3.22-5.57.43-9.43,3.64-10.29,9.21-1.5,9.22-2.57,18.22-3.85,27.43-.43,2.79-.86,5.58-1.29,8.15a6.87,6.87,0,0,1-7.5,5.57c-4.71-.21-6.21-1.29-6.64-6-1.07-14.36.86-27.86,7.93-40.72,2.36-4.28,6-6.86,10.93-6.86,4.71-.21,9.42,0,14.14,0" transform="translate(-27.45 -7.61)"/></g><g class="cls-3"><path class="cls-4" d="M426,397.42c3.86.64,7.29,1.07,11.78,1.72-6.64,2.57-10.92,1.92-11.78-1.72" transform="translate(-27.45 -7.61)"/></g><g class="cls-3"><path class="cls-5" d="M114.49,293.27C110,305.49,105.71,317.7,101,329.7c-2.58,6.22-6,12-9.22,17.79-.85,1.5-3,2.36-4.5,3.43-.21-1.72-1.07-3.64-.64-5.36,3.43-19.07,12.21-35.36,24.42-50.15a35.54,35.54,0,0,1,2.79-2.57c.21,0,.43.22.64.43" transform="translate(-27.45 -7.61)"/></g><g class="cls-3"><path class="cls-5" d="M241.11,431.07c-12,.21-21.85-12-19.92-24.86a27.86,27.86,0,0,1,3-9c3.43-6.43,9-10.5,16.71-10.5,7.71-.22,13.5,3.64,17.14,10.28,4.93,8.79,4.5,17.58-1.29,25.93-3.85,5.15-9,8.36-15.64,8.15m.86-36c0-.42-.21-.85-.21-1.28-1.29-.22-2.79-.86-4.07-.43a12.28,12.28,0,0,0-4.72,2.36c-7.71,5.78-8.14,20.36-.85,26.78a11.71,11.71,0,0,0,9.42,3c.86-.21,1.72-1.28,2.57-1.92a15.94,15.94,0,0,0-2.35-1.72c-1.5-1.07-3.22-1.71-4.07-3-2.57-3.64-3.22-7.71-3-12.21A12.86,12.86,0,0,1,242,395.06" transform="translate(-27.45 -7.61)"/></g><g class="cls-3"><path class="cls-5" d="M324.67,421.21c1.5,2.57,3,5.14,4.71,8.36L261,430.85q2.9-4.82,5.78-9c.22-.43,1.08-.43,1.72-.43,18.64-.21,37.49-.21,56.13-.21" transform="translate(-27.45 -7.61)"/></g><g class="cls-3"><path class="cls-5" d="M204.69,431.71c-18.42.43-36.63.64-54.85,1.07,1.5-3.43,2.79-6.64,4.29-9.64a3.49,3.49,0,0,1,2.36-1.5h39.63a4.05,4.05,0,0,1,2.79,1.5,67,67,0,0,1,5.78,8.57" transform="translate(-27.45 -7.61)"/></g><g class="cls-3"><path class="cls-5" d="M419.8,411.78c-1.07,2.79-1.93,5.57-3.43,7.71-2.36,3.43-6.21,3.22-9,.22-3.64-3.86-3.64-11.57,0-15.65,2.57-3,6.86-3.21,9,.22,1.71,1.93,2.36,4.71,3.43,7.5" transform="translate(-27.45 -7.61)"/></g><g class="cls-3"><path class="cls-5" d="M151.34,421.85c-4.07,5.79-8.78,9.22-15.64,9.65-6.85.21-11.14-3.43-14.14-9.65Z" transform="translate(-27.45 -7.61)"/></g><g class="cls-3"><path class="cls-5" d="M362.38,428.28c1.07-2.14,2.14-4.5,3.43-6.86a3,3,0,0,1,2.14-1.07c4.71-.21,9.43-.21,13.93-.21a3.27,3.27,0,0,1,2.57,1.5c1.5,1.93,2.57,4.28,4.07,6.64Z" transform="translate(-27.45 -7.61)"/></g><g class="cls-3"><path class="cls-4" d="M242,395.06c-4.71,2.58-6.85,6.65-7.28,11.58a17.71,17.71,0,0,0,3,12.21c.85,1.29,2.78,1.93,4.07,3,.85.64,1.5,1.07,2.35,1.72-.85.64-1.71,1.71-2.57,1.92a11.94,11.94,0,0,1-9.42-3c-7.29-6.42-6.86-21,.85-26.78a16.3,16.3,0,0,1,4.72-2.36,13.85,13.85,0,0,1,4.07.43,2.72,2.72,0,0,0,.21,1.28" transform="translate(-27.45 -7.61)"/></g><g class="cls-3"><path class="cls-5" d="M214.33,433.64c0-1.07-14.14-16.72-14.14-16.72s14.36-14.36,15.21-15S264.68,388,264.68,388s3.22-7.71,16.93-13.93c13.92-6.21,48.2-13.07,74.56-14.14s53.56-4.29,71.13-.64,35.13,13.93,42,19.07,13.07,10.5,13.07,10.5,12.85,4.5,15.64,11.36,9,34.29,4.07,46.71c-5.14,12.43-.22,15.86-14.36,16.72s-179.54,0-179.54,0l-103.26-2.36s-1.08-.64-3.43-10.5-.86-15.64.64-18.21c1.5-2.36,12.21,1.07,12.21,1.07" transform="translate(-27.45 -7.61)"/></g><g class="cls-3"><path class="cls-4" d="M269.82,382c11.57-10.71,25.71-15.43,40.71-18.43,36-7.07,72.42-8.36,108.84-5.57a74.33,74.33,0,0,1,9.21,1.5,71.3,71.3,0,0,0-42.21,21.64,8.18,8.18,0,0,1-5.14,1.72C346.52,385.63,312,388,277.32,391a377.05,377.05,0,0,0-43.7,6.22c-7.29,1.5-14.36,5.57-21,9.21-3.43,1.93-6,5.36-9,8.15.43.42.64,1.07,1.07,1.5,5.57-.43,11.36-.22,16.93-1.29,8.78-1.71,14.78,1.29,19.49,8.57a8.69,8.69,0,0,0,6.22,3.43c12.42-.43,24.85-1.29,37.28-2.36a7.51,7.51,0,0,0,4.28-3c5.14-8.78,12-13.5,22.71-13.93,15.21-.42,30.21-1.93,45.85-3-1.5,7.29-3,14.15-4.28,21.43-10.5.65-21.21,1.29-31.93,1.93l-113.33,5.79c-3.86.21-5.36,1.5-5.15,5.57.65,17.57.65,17.36,18,16.72l111.62-3.86c10.93-.43,21.86-.86,32.57-1.5,1.5-10.72,2.14-21.43,4.71-31.93a88.83,88.83,0,0,1,9.86-24.22c7.07-11.36,19.07-10.5,25.49,1.29,8.79,15.43,10.93,32.57,10.72,49.93,0,4.93,1.28,6.21,6,6.43,7.07.21,13.92,1.28,21.63,2.14-9.21-20.14-7.07-40.07-3-61.07-12.86-2.79-25.71-5.36-38.57-8.15,10.28-18,31.28-25.71,50.35-17.78,7.93,3.21,15.21,8.14,21.85,13.5,4.93,4.07,9.86,6.85,16.07,7.71a8.88,8.88,0,0,1,5.79,3.64c13.92,22.93,12,46.51,1.5,69.87-.65,1.5-3.86,2.57-6,2.57-33.43.21-66.85.21-100.27.21H200.41c-3.86-10.07-4.72-20.36-3.86-30.86a4.51,4.51,0,0,1,.86-2.14c4.71-5.14,4.71-5.14,4.28-11.79a6.33,6.33,0,0,0-1.93-.43,8.16,8.16,0,0,0-2.35-.21c0-.64-.22-1.29-.22-1.71,3.65-10.72,12.86-15.43,22.07-19.51,18.21-8.14,38.14-10.28,57.63-12.43,26.36-3,52.71-6.64,79.06-7.28,16.93-.43,30.42-6.43,44.78-17.15-8.14,0-15-.21-21.64,0-26.35.65-52.49,2.36-78.2,8.15-8.78,1.93-17.14,6.43-25.71,9.86-1.71.85-3.43,1.92-5.36,2.78m186.4,73.94a27.86,27.86,0,0,0,.43-3.22c.21-8.14-.64-16.71.64-24.64a98.14,98.14,0,0,1,6.86-24.65c3.85-8.57,12.64-9,18.64-1.93a29.6,29.6,0,0,1,5.35,9.86c4.5,13.72,3.86,27.86,2.79,42.22-.22,1.71.86,3.64,1.07,5.36,1.5-1.29,3.64-2.36,4.28-4.08,7.07-19.5,5.57-38.36-4.28-56.57-2.14-4.07-4.71-7.07-9.64-7.72-2.36-.21-4.72-2.35-6.64-4.28C468,379.21,459.86,373,449.58,370c-11.79-3.21-24.43.86-30.85,10.29,13.92,2.57,27.85,4.93,42.2,7.5-13.71,20.79-16.71,43.07-13.07,66.86a62.3,62.3,0,0,0,8.36,1.29" transform="translate(-27.45 -7.61)"/></g><g class="cls-3"><path class="cls-5" d="M408,428.28c0,18-7.07,32.79-15.64,32.79s-15.64-14.57-15.64-32.79c0-18,7.07-32.79,15.64-32.79S408,410.07,408,428.28" transform="translate(-27.45 -7.61)"/></g><g class="cls-3"><path class="cls-5" d="M484.93,432.35c0,15.65-4.71,28.08-10.5,28.08s-10.5-12.65-10.5-28.08c0-15.64,4.72-28.07,10.5-28.07s10.5,12.43,10.5,28.07" transform="translate(-27.45 -7.61)"/></g><g class="cls-3"><path class="cls-4" d="M603.84,325.63h-8.36c-4.07,0-5.78,2.57-5.78,7.5v7.07h-7.93v-7.5c0-9,3.43-15.64,10.28-16.71a36.66,36.66,0,0,1-1.71-11.57c0-12.43,4.93-21,13.07-21,8.57,0,13.28,8.36,13.28,21,.43,13.07-4.07,21.21-12.85,21.21m0-32.79c-3,0-5.14,3-5.14,11.79,0,8.57,2.14,11.57,5.14,11.57,3.21,0,5.35-3.21,5.35-11.36,0-9-2.14-12-5.35-12" transform="translate(-27.45 -7.61)"/></g><g class="cls-3"><path class="cls-4" d="M655.9,325.63h-8.36c-4.07,0-5.78,2.57-5.78,7.5v7.07h-7.93v-7.5c0-9,3.43-15.64,10.29-16.71a36.35,36.35,0,0,1-1.72-11.57c0-12.43,4.93-21,13.07-21,8.57,0,13.28,8.36,13.28,21,.43,13.07-4.28,21.21-12.85,21.21m0-32.79c-3,0-5.14,3-5.14,11.79,0,8.57,2.14,11.57,5.14,11.57,3.21,0,5.36-3.21,5.36-11.36,0-9-2.15-12-5.36-12" transform="translate(-27.45 -7.61)"/></g><g class="cls-3"><path class="cls-4" d="M685.89,325.63V316.2h13.29V305.06c0-7.5-1.29-9.43-5.14-9.43l1.28-9.22c7.93,0,11.57,5.15,11.57,15.22v24Zm9.43-56.15h7.93v10.29h-7.93Z" transform="translate(-27.45 -7.61)"/></g><g class="cls-3"><path class="cls-4" d="M757.88,325.63a10.29,10.29,0,0,1-7.07-2.57v.43c0,10.07-5.35,16.71-12.64,16.93h-1.71c-7.29-.22-12.64-7.07-12.64-17.15V286.84h7.92v36.22c0,4.93,1.72,7.71,5.79,7.71,3.86,0,5.57-2.57,5.57-7.71v-36H751v21.86c0,4.5,3,7.07,7.07,7.07H759v9.43h-1.07Zm-24.64-56.15h7.93v10.29h-7.93Z" transform="translate(-27.45 -7.61)"/></g><g class="cls-3"><path class="cls-4" d="M754.24,332.06h7.07v10.29h-7.07Zm3.64-6.43h-.64V316.2h.64c5.36-.21,6.86-2.57,6.86-7.5V287.06h7.93v22.07c0,10.29-5.15,16.5-14.79,16.5m6.43,6.43h6.86v10.29h-6.86Z" transform="translate(-27.45 -7.61)"/></g><g class="cls-3"><path class="cls-4" d="M775.45,340.63v-9.21c6.43,0,6.21-6.86,6.21-12.43v-31.5h7.72s.21.85,0,35.78c-.22,8.79-4.5,17.79-13.93,17.36m5.79-71.15h7.92v10.29h-7.92Z" transform="translate(-27.45 -7.61)"/></g><g class="cls-3"><path class="cls-4" d="M820.87,325.63c-.86,9.22-6.43,15-12.85,15.64l-1.29.22v-9.64c3.21,0,5.79-2.79,6-6.22H808c-5.57,0-12.64-4.29-12.64-18.21,0-13.08,4.49-20.36,12.64-20.36h13.07V316.2h7.49v9.43Zm-7.71-29.36h-4.93c-4.28,0-4.93,6.86-4.93,11.15,0,4.71,1.72,8.78,4.93,8.78h4.93Z" transform="translate(-27.45 -7.61)"/></g><g class="cls-3"><path class="cls-4" d="M858.79,323.49c-2.14,5.78-6,9.21-11.57,9.21-5.35,0-9.42-3.21-11.57-8.78a12.12,12.12,0,0,1-6.85,1.71h-2.36V316.2c3-.21,6.86-.21,7.07-5.14.43-12,5.14-19.72,13.71-19.72,8.79,0,13.29,8.79,13.29,19.72q0,5.15,5.78,5.14h2.36v9.43c-3.43,0-7.07-.21-9.86-2.14M847,300.13c-3.21,0-5.36,3-5.36,11.57s2.15,11.36,5.36,11.36,5.36-3,5.36-11.14c0-8.79-2.15-11.79-5.36-11.79" transform="translate(-27.45 -7.61)"/></g><g class="cls-3"><path class="cls-4" d="M864.36,332.06h6.86v10.29h-6.86Zm23.36-6.43a12.45,12.45,0,0,1-9.43-4.07,11.62,11.62,0,0,1-9.21,4.07h-2.36V316.2h2.36c3.21,0,5.14-2.36,5.14-6V287.06h7.93v23.36c0,3.42,1.92,5.78,5.78,5.78h2.36v9.43Zm-13.29,6.43h6.86v10.29h-6.86Z" transform="translate(-27.45 -7.61)"/></g><g class="cls-3"><path class="cls-4" d="M887.93,325.63V316.2c5.36,0,7.93-2.57,7.93-7.5V272.27h7.93v37.07c0,10.08-6,16.29-15.86,16.29" transform="translate(-27.45 -7.61)"/></g><g class="cls-3"><path class="cls-4" d="M961.85,325.63V297.34c-2.36,0-4.93,1.72-4.93,8.79v19.29H920.71c.22-5.36.64-14.15,3-20.79,3.43-10.29,8.78-15.64,19.93-15.43V298c-5.57,0-9.43.85-12.22,7.93a36,36,0,0,0-2.14,9.85h19.93c.21-10.93.21-10.5,0-10.93,0-17.35,11.14-18.21,20.78-18.21v28.93h7.93V325H961.85Zm-32.14,6.43h7.07v10.29h-7.07Zm10.07,0h7.07v10.29h-7.07Z" transform="translate(-27.45 -7.61)"/></g><g class="cls-3"><path class="cls-4" d="M975.56,325.63V316.2c5.36,0,7.93-2.57,7.93-7.5V287.06h7.92v22.07c0,10.29-6,16.5-15.85,16.5m.64-56.15h6.21v10.29H976.2Zm9.43,0h6.21v10.29h-6.21Z" transform="translate(-27.45 -7.61)"/></g><g class="cls-3"><path class="cls-4" d="M1021,325.63c-5.36,0-12.64-4.93-12.64-19.07,0-13.07,4.71-19.5,12.64-19.5h12.85V316h8.57v9.43H1021Zm4.93-29.36h-4.72c-4.28,0-5.35,6.22-5.35,10.5,0,4.72,1.93,9.43,5.35,9.43h4.72Z" transform="translate(-27.45 -7.61)"/></g><g class="cls-3"><path class="cls-4" d="M1038.55,332.06h7.07v10.29h-7.07Zm3.64-6.43h-.64V316.2h.64c5.36-.21,6.86-2.57,6.86-7.5V287.06H1057v22.07c0,10.29-5.35,16.5-14.78,16.5m6.43,6.43h6.85v10.29h-6.85Z" transform="translate(-27.45 -7.61)"/></g><g class="cls-3"><rect class="cls-4" x="1035.53" y="264.45" width="7.93" height="53.58"/></g><g class="cls-3"><path class="cls-4" d="M1100.25,325.63c-5.35,0-12.64-4.93-12.64-19.07,0-13.07,4.71-19.5,12.64-19.5h12.86V316h8.57v9.43h-21.43Zm5.14-29.36h-4.71c-4.28,0-5.36,6.22-5.36,10.5,0,4.72,1.93,9.43,5.36,9.43h4.71Z" transform="translate(-27.45 -7.61)"/></g><g class="cls-3"><path class="cls-4" d="M1117.82,332.06h7.07v10.29h-7.07Zm3.64-6.43h-.64V316.2h.64c5.36-.21,6.86-2.57,6.86-7.5V287.06h7.93v22.07c0,10.29-5.15,16.5-14.79,16.5m6.43,6.43h6.86v10.29h-6.86Z" transform="translate(-27.45 -7.61)"/></g><g class="cls-3"><rect class="cls-4" x="1115.01" y="264.45" width="7.93" height="53.58"/></g></g></g><text class="cls-8" transform="translate(555.75 405.18)">AL AMEEN TRANSPORT</text><text class="cls-9" transform="translate(757.64 322.18)">لقنلل نيملا</text></svg>