<?xml version="1.0" encoding="utf-8"?>
<!-- Generator: Adobe Illustrator 25.2.0, SVG Export Plug-In . SVG Version: 6.00 Build 0)  -->
<svg version="1.1" id="Layer_1" xmlns="http://www.w3.org/2000/svg" xmlns:xlink="http://www.w3.org/1999/xlink" x="0px" y="0px"
	 viewBox="0 0 549 247" style="enable-background:new 0 0 549 247;" xml:space="preserve">
<style type="text/css">
	.st0{clip-path:url(#SVGID_2_);}
	.st1{clip-path:url(#SVGID_4_);}
	.st2{clip-path:url(#SVGID_4_);fill:#FFFFFF;}
	.st3{clip-path:url(#SVGID_4_);fill:#BF202D;}
	.st4{clip-path:url(#SVGID_4_);fill:#DCDDDE;}
</style>
<g>
	<defs>
		<rect id="SVGID_1_" x="-117" y="-84.9" width="811.3" height="420.9"/>
	</defs>
	<clipPath id="SVGID_2_">
		<use xlink:href="#SVGID_1_"  style="overflow:visible;"/>
	</clipPath>
	<g class="st0">
		<defs>
			<rect id="SVGID_3_" x="-117" y="-84.9" width="811.3" height="420.9"/>
		</defs>
		<clipPath id="SVGID_4_">
			<use xlink:href="#SVGID_3_"  style="overflow:visible;"/>
		</clipPath>
		<path class="st1" d="M282.1,198.7h-4.8l-1.2,6.2h-5.7l5.5-26.6h7.5l5.5,26.6h-5.7L282.1,198.7z M281.2,193.9
			c-0.8-4.1-1.3-7.4-1.5-9.8c-0.3,2.7-0.8,6-1.5,9.8H281.2z"/>
		<path class="st1" d="M301.4,198.7h-4.8l-1.2,6.2h-5.7l5.5-26.6h7.5l5.5,26.6h-5.7L301.4,198.7z M300.5,193.9
			c-0.8-4.1-1.3-7.4-1.5-9.8c-0.3,2.7-0.8,6-1.5,9.8H300.5z"/>
		<polygon class="st1" points="324.3,183.2 319.5,183.2 319.5,204.9 313.7,204.9 313.7,183.2 308.9,183.2 308.9,178.2 324.3,178.2 
					"/>
		<polygon class="st1" points="345.2,204.9 332.2,204.9 332.2,178.2 338,178.2 338,199.9 345.2,199.9 		"/>
		<rect x="347.3" y="178.2" class="st1" width="5.8" height="26.6"/>
		<path class="st1" d="M364.3,195.5l-1.9-5.2c0.1,1.4,0.1,3.2,0.1,5.2v9.4H357v-26.6h5.5l3.3,8.8l1.8,5.2c0.5-1.6,1.2-3.4,1.8-5.2
			l3.3-8.8h5.6v26.6h-5.6v-9.5l0.1-5.2c-0.5,1.5-1.1,3.3-1.8,5.2l-1,2.7h-4.8L364.3,195.5z"/>
		<path class="st1" d="M398,198.4c0,2.1-0.7,3.8-2.1,5c-1.4,1.2-3.4,1.9-6,1.9c-2.6,0-4.6-0.6-6-1.9c-1.4-1.2-2-2.9-2-5v-13.7
			c0-2.1,0.7-3.8,2-5c1.4-1.2,3.4-1.9,6-1.9c2.6,0,4.6,0.6,6,1.9c1.4,1.2,2.1,2.9,2.1,5V198.4z M392.3,185.1c0-1.3-0.8-1.9-2.3-1.9
			c-1.5,0-2.3,0.6-2.3,1.9v13c0,1.3,0.8,1.9,2.3,1.9c1.5,0,2.3-0.6,2.3-1.9V185.1z"/>
		<path class="st1" d="M417.5,178.2v20.1c0,2.1-0.7,3.8-2.1,5c-1.4,1.2-3.4,1.9-6,1.9c-2.6,0-4.6-0.6-6-1.9c-1.4-1.2-2.1-2.9-2.1-5
			v-20.1h5.8v19.9c0,1.3,0.8,1.9,2.3,1.9c1.5,0,2.3-0.6,2.3-1.9v-19.9H417.5z"/>
		<path class="st1" d="M423.8,192.1c-2.4-1.6-3.6-3.7-3.6-6.5v-0.9c0-2.1,0.6-3.8,1.9-5c1.3-1.2,3.3-1.8,5.9-1.8
			c2.6,0,4.6,0.6,5.9,1.8s2,2.9,2,5v2.1h-5.8v-1.8c0-0.6-0.1-1.1-0.4-1.4c-0.3-0.3-0.8-0.5-1.6-0.5c-0.7,0-1.3,0.1-1.5,0.4
			c-0.3,0.3-0.4,0.8-0.4,1.4v0.5c0,1,0.6,1.9,1.9,2.7l4.7,3c1.2,0.8,2.1,1.7,2.6,2.7c0.5,1,0.8,2.3,0.8,3.8v0.8c0,2.1-0.7,3.8-2,5
			c-1.3,1.2-3.3,1.8-6,1.8c-2.6,0-4.6-0.6-6-1.8c-1.3-1.2-2-2.9-2-5v-2h5.8v1.8c0,1.2,0.7,1.8,2.1,1.8c1.4,0,2.2-0.6,2.2-1.8v-0.5
			c0-0.6-0.1-1-0.3-1.4c-0.2-0.4-0.7-0.8-1.4-1.2L423.8,192.1z"/>
		<rect x="438.6" y="178.2" class="st1" width="5.8" height="26.6"/>
		<path class="st1" d="M465.3,178.2v26.6h-5.5l-3.6-9.2c-0.4-1-0.8-2-1.1-3c-0.3-1-0.6-1.8-0.9-2.4c-0.2-0.7-0.4-1.3-0.6-1.8
			c-0.2-0.5-0.3-0.9-0.4-1.2c-0.1-0.3-0.1-0.5-0.2-0.5c0.6,1.9,1,5.6,1,11v7.1h-5.7v-26.6h5.7l3.5,8.9c1.6,4.1,2.6,7.1,3,8.8
			c-0.6-2.3-0.9-6-0.9-11.1v-6.7H465.3z"/>
		<polygon class="st1" points="482.7,204.9 469.2,204.9 469.2,178.2 482.7,178.2 482.7,183.2 474.9,183.2 474.9,188.9 481.6,188.9 
			481.6,193.9 474.9,193.9 474.9,199.9 482.7,199.9 		"/>
		<polygon class="st1" points="504.3,204.9 491.3,204.9 491.3,178.2 497.2,178.2 497.2,199.9 504.3,199.9 		"/>
		<polygon class="st1" points="519.4,204.9 506.4,204.9 506.4,178.2 512.2,178.2 512.2,199.9 519.4,199.9 		"/>
		<path class="st1" d="M537.2,195.2v3.2c0,2.1-0.7,3.8-2.1,5c-1.4,1.2-3.4,1.9-6,1.9c-2.6,0-4.6-0.6-6-1.9c-1.4-1.2-2-2.9-2-5v-13.7
			c0-2.1,0.7-3.8,2-5c1.4-1.2,3.4-1.9,6-1.9c2.6,0,4.6,0.6,6,1.9c1.4,1.2,2.1,2.9,2.1,5v3.2h-5.8v-2.9c0-1.3-0.8-1.9-2.3-1.9
			c-1.5,0-2.3,0.6-2.3,1.9v13c0,1.3,0.8,1.9,2.3,1.9c1.5,0,2.3-0.6,2.3-1.9v-2.9H537.2z"/>
		<path class="st2" d="M263.1,123.8c0,57.6-46.7,104.4-104.4,104.4c-57.6,0-104.4-46.7-104.4-104.4S101.1,19.4,158.8,19.4
			C216.4,19.4,263.1,66.1,263.1,123.8"/>
		<path class="st3" d="M157.6,230.1c-59.1,0-107.3-48.1-107.3-107.3S98.4,15.6,157.6,15.6c59.1,0,107.3,48.1,107.3,107.3
			S216.7,230.1,157.6,230.1 M157.6,26.1c-53.4,0-96.8,43.4-96.8,96.8s43.4,96.8,96.8,96.8s96.8-43.4,96.8-96.8
			S210.9,26.1,157.6,26.1"/>
		<path class="st4" d="M157.6,209.9c-48,0-87-39-87-87s39-87,87-87s87,39,87,87S205.6,209.9,157.6,209.9 M157.6,43.2
			c-43.9,0-79.6,35.7-79.6,79.7s35.7,79.6,79.6,79.6s79.6-35.7,79.6-79.6S201.5,43.2,157.6,43.2"/>
		<path class="st4" d="M157.6,209.9c-15.7,0-30.4-9.3-41.3-26.1c-10.6-16.3-16.4-38-16.4-60.9c0-23,5.8-44.6,16.4-60.9
			c10.9-16.8,25.6-26.1,41.3-26.1c15.7,0,30.4,9.3,41.3,26.1c10.6,16.3,16.4,38,16.4,60.9c0,23-5.8,44.6-16.4,60.9
			C188,200.6,173.3,209.9,157.6,209.9 M157.6,43.2c-27.8,0-50.3,35.7-50.3,79.7s22.6,79.6,50.3,79.6c27.8,0,50.3-35.7,50.3-79.6
			S185.3,43.2,157.6,43.2"/>
		<rect x="153.9" y="41.8" class="st4" width="7.4" height="164.4"/>
		<rect x="75.4" y="118.1" class="st4" width="164.4" height="7.4"/>
		<rect x="84.3" y="77.6" class="st4" width="146.6" height="7.4"/>
		<rect x="82.9" y="158.6" class="st4" width="149.3" height="7.4"/>
		<path class="st2" d="M32.3,205.7l-9.1-2.1c0,0-1.9,0.3-2.5-5.8c-0.7-6.1-0.3-11.2-0.3-11.2l2,0.1c0,0,0.3-16.7,1.5-23.3
			c1.2-6.6,5.6-25.8,5.6-25.8l0.3-2.9l-6.5,0.5l1.7-1.6l9.9-0.7c0,0,14.6-5.4,19.3-7.7c4.8-2.3,28.8-7.5,31.6-7.6
			c2.8-0.2,5-0.4,13.4,2.1c8.3,2.5,114.3,43.1,114.3,43.1l0.1,40.9l-16.7,3.4c0,0-3,4.5-4.1,4.8c-1.1,0.3-140.8,3.7-140.8,3.7
			l-4.4-7.1L31.4,208l0.8-1.7L32.3,205.7z"/>
		<path class="st1" d="M187.4,165.8v11.5c-6.6-1.6-13.2-3.3-19.8-4.9c-0.3-4-0.7-8-1-12c-0.1,0-0.3,0-0.4,0V172
			c-7.8-1.8-15.6-3.5-23.4-5.3c-0.2-4.4-0.3-8.8-0.5-13.2c-0.2,0-0.4,0-0.6,0v12.9c-3.6-0.8-7-1.4-10.3-2.1c-4.6-1-9.2-2-13.9-2.8
			c-1.1-0.2-1.3-0.6-1.3-1.7c-0.1-7.2-0.2-14.3-0.4-21.5c0-1.5-0.3-3-0.5-4.6c-0.2,0-0.3,0-0.5,0c-0.2,1.1-0.4,2.3-0.5,3.4
			c-0.1,7.4-0.2,14.7-0.3,22.1c0,0.6,0,1.2,0,1.9c-11.6,1.7-21.1,7.7-30.6,14.6c0.2-3.7,0.3-7.1,0.6-10.4c0.8-8.6,1.6-17.2,2.6-25.8
			c0.5-4.5,1.4-9,2.4-13.5c0.4-1.9,1.5-3.8,2.6-5.4c1.3-1.9,3.2-2.6,5.5-1.9c29,9.6,58,19.4,86.2,31.1c7.5,3.1,14.8,6.6,22.2,9.8
			c1.3,0.6,1.8,1.3,1.7,2.7c-0.3,4.1-0.2,8.2-0.8,12.2c-0.6,3.9-2.7,5.5-6.7,5.2c-3.4-0.3-6.8-1.1-10.2-1.8
			c-0.4-0.1-0.8-0.9-0.8-1.4c-0.3-2.9-0.5-5.8-0.7-8.8c-0.1-0.6-0.2-1.2-0.3-1.8C187.6,165.8,187.5,165.8,187.4,165.8"/>
		<path class="st1" d="M83.3,127.9c-0.5,3-1.2,6-1.6,9.1c-0.9,7.8-1.8,15.7-2.6,23.5c-0.5,5.5-0.8,11.1-1.2,16.7
			c-0.1,1.1-0.5,1.7-1.4,1.9c-4.9,1.2-9.8,2.7-14.7,3.5c-7.8,1.3-15.8,1.8-23.8,1.3c-2.5-0.2-5-0.5-7.8-0.9c0.6-2.2,1-4.1,1.6-5.9
			c2.2-6.7,4.2-13.4,6.7-20c4.1-10.8,10.9-19.9,19.3-27.8c0.4-0.4,0.8-0.7,1.2-1.1c0.1-0.1,0.1-0.2,0.2-0.6c-3.1,0.6-6,1.1-8.8,1.6
			c-0.7,0.1-1.4,0.4-2.2,0.5c-8.2,1.7-13.2,7-16.4,14.4c-3.4,7.9-5.3,16.1-6.6,24.5c-0.5,3.5-0.9,7-1.3,10.5c0,0.3-0.1,0.6-0.2,1
			c-1.5-1.1-2.4-2.3-2.4-4c0-4.5-0.1-9,0.4-13.5c0.8-8.1,2.8-16,5.5-23.7c2.1-5.9,5.9-9.6,11.7-11.7c9.3-3.4,18.8-5.8,28.5-7.4
			c6-1,12.1-1.4,18.2-2.1c0.5-0.1,1.1,0,1.4,0c-1,2.3-1.9,4.6-2.9,6.8c-0.2,0.4-0.8,0.8-1.3,0.8c-2.4,0.3-4.8,0.5-7.3,0.7
			c-2.6,0.2-4.5,1.6-5.4,4.1c-0.9,2.8-1.8,5.6-2.3,8.4c-0.6,3.4-1,6.8-1.2,10.2c-0.2,2.4,0.8,3.2,3.2,3.2c3.1,0,4.4-1,4.9-4.1
			c1-6.1,1.8-12.2,2.6-18.3c0.1-1.1,0.6-1.6,1.6-1.6C80.5,127.9,81.9,127.9,83.3,127.9 M53,148.9c-0.1-0.1-0.2-0.1-0.4-0.2
			c-0.4,0.4-0.9,0.7-1.3,1.2c-5.7,6.9-9.9,14.5-11.4,23.4c-0.1,0.8,0.2,1.7,0.3,2.5c0.7-0.5,1.7-0.9,2.1-1.6
			c1.6-2.7,3.2-5.4,4.3-8.3C48.9,160.2,50.9,154.5,53,148.9"/>
		<path class="st1" d="M197.6,203.8c4.2,0,8.4,0,12.5,0c0.3,0,0.9-0.6,1-1c0.2-0.7,0.1-1.5,0.1-2.2c0-11.5,0-23.1-0.1-34.6
			c0-0.7,0-1.4,0-2.1c0-2.5,2-3,3.7-2.2c4.5,1.9,8.9,4,13.3,6c2.1,0.9,4.1,1.9,6.2,2.9c0,0.1-0.1,0.3-0.1,0.4
			c-6.7-1.9-13.4-3.9-20.1-5.8c0,3.3,0,6.5,0.1,9.7c0,0.3,0.8,0.8,1.3,0.9c6,2,12.1,3.9,18.1,5.8c0.2,0.1,0.4,0.2,0.6,0.6
			c-6.6-0.7-13.2-1.5-20-2.3c0,0.5,0,1,0,1.4c0.1,7.2,0.3,14.3,0.3,21.5c0,1.4,0.5,1.7,1.8,1.8c5.5,0.2,10.9,0.6,16.4,0.9
			c0.6,0,1.3,0.2,1.9,0.3c0,0.1,0.1,0.3,0.1,0.4c-0.7,0.2-1.4,0.5-2,0.5c-6.3,0.4-12.6,0.8-18.9,1.1c-4.9,0.2-9.7,0.3-14.6,0.3
			c-0.9,0-1.5,0.2-1.8,1.1c-0.3,0.8-0.9,1.5-1.5,2.5c0.6,0,1.1,0,1.6,0c5.9-0.1,11.8-0.2,17.7-0.3c1.2,0,2.5,0.3,3.7,0.4
			c0,0.2,0,0.5,0,0.7c-1.3,0.2-2.6,0.5-3.9,0.6c-6.6,0.2-13.2,0.4-19.8,0.6c-24,0.7-48.1,1.4-72.1,2.1c-19.4,0.5-38.8,1.1-58.1,1.6
			c-10.5,0.3-21,0.6-31.5,0.9c-1.7,0-3.4,0.1-5,0c-0.6-0.1-1.1-0.7-1.7-1.1c0.4-0.6,0.8-1.5,1.3-1.7c1.2-0.4,2.5-0.6,3.8-0.7
			c4.8-0.1,9.6-0.2,14.5-0.3c0.4,0,0.8-0.1,1.5-0.1c-2-1.3-3.2-2.9-3.8-4.9c-0.1-0.3-0.8-0.6-1.3-0.6c-3.4,0-6.9,0.1-10.3-0.1
			c-4.6-0.2-8.2-2.5-10.7-6.3c-0.2-0.3-0.4-0.7-0.5-1.1c-0.1-0.2-0.1-0.4-0.1-0.7c0.4,0,0.7-0.1,1-0.1c17.6-0.2,35.2-0.4,52.8-0.6
			c0.7,0,1.6,0.3,2,0.8c3.4,3.9,7.6,5.6,12.7,5.4c2.2-0.1,4.4,0,6.7,0c0.2-2.2,0.3-4.1,0.5-6c0.8-6.5,5.4-11.9,11.3-13.5
			c2.7-0.7,5.3-0.5,7.9,0.5c6.3,2.5,10.6,8.8,10.6,15.5c0,0.5,0,1,0,1.6h56.9c0.4-2.4,0.6-5.2,2.9-6.6c1.4-0.9,3.3-1.3,5.1-1.3
			C194.9,196.3,197,199.2,197.6,203.8 M112.1,213.2c3.2,0.1,5.6-1.3,7.3-3.8c2.7-3.9,2.8-8,0.6-12.1c-1.7-3.1-4.4-4.9-8-4.8
			c-3.6,0.1-6.1,1.9-7.8,4.9c-0.7,1.3-1.1,2.8-1.4,4.2C101.9,207.6,106.5,213.3,112.1,213.2 M151.1,208.6c-8.7,0-17.5,0-26.2,0
			c-0.3,0-0.7,0.1-0.8,0.2c-0.9,1.4-1.8,2.8-2.7,4.2c10.8-0.2,21.4-0.4,31.9-0.6C152.5,211,151.7,209.7,151.1,208.6 M95.1,213.5
			c-1-1.5-1.8-2.8-2.7-4c-0.3-0.4-0.8-0.7-1.3-0.7c-6.2,0-12.3,0-18.5,0c-0.4,0-0.9,0.4-1.1,0.7c-0.7,1.4-1.3,2.9-2,4.5
			C78.1,213.8,86.5,213.7,95.1,213.5 M195.5,204.2c-0.5-1.3-0.9-2.6-1.6-3.6c-1.1-1.5-3-1.5-4.2-0.1c-1.7,1.9-1.6,5.5,0,7.3
			c1.3,1.4,3.1,1.5,4.2-0.1C194.7,206.8,195,205.5,195.5,204.2 M70.2,208.9H56.4c1.4,2.9,3.4,4.6,6.6,4.5
			C66.1,213.2,68.3,211.6,70.2,208.9 M168.7,211.9h12.4c-0.7-1.1-1.3-2.2-1.9-3.1c-0.3-0.4-0.8-0.7-1.2-0.7c-2.2,0-4.4,0-6.5,0.1
			c-0.4,0-0.9,0.2-1,0.5C169.7,209.8,169.2,210.9,168.7,211.9"/>
		<path class="st1" d="M208.3,217.7c-0.6,0.2-1.3,0.4-1.9,0.4c-6.2,0.4-12.5,0.8-18.7,1.1c-15.6,0.9-31.2,1.7-46.7,2.6
			c-10,0.6-19.9,1.1-29.9,1.6c-15.5,0.8-31,1.8-46.4,2.5c-4.3,0.2-8.6,0-12.9-0.2c-0.8,0-1.7-0.3-2.4-0.7c-1.7-0.8-1.8-2.8-0.2-3.6
			c1.1-0.6,2.5-0.9,3.8-0.9c27.7-0.7,55.5-1.4,83.2-2.1c13.5-0.3,26.9-0.7,40.4-1c9.5-0.2,19-0.5,28.5-0.7c1.1,0,2.2,0.1,3.4,0.2
			C208.3,217.3,208.3,217.5,208.3,217.7"/>
		<path class="st1" d="M204.7,188.3c-0.6,0.1-1.2,0.2-1.7,0.2c-16.4-2.1-32.7-4.1-49.1-6.2c-16.7-2.1-33.5-4.3-50.2-6.5
			c-0.5-0.1-1-0.3-1.8-0.5c0.7-0.6,1.1-0.9,1.4-1.3c4.9-4.1,10.6-4.7,16.6-3.5c25.4,5.1,50.8,10.3,76.2,15.4
			c2.6,0.5,5.2,1.1,7.8,1.7c0.3,0.1,0.5,0.2,0.8,0.3C204.7,188.1,204.7,188.2,204.7,188.3"/>
		<path class="st1" d="M60.8,192.3c0.4-3.4,2.4-5.1,5.4-5.8c3.1-0.8,6.3-1.6,9.4-2.2c1.8-0.4,2.2,0,2.3,1.9c0,2.2,0,4.4-0.2,6.5
			c-0.1,1.3-0.7,2-2.2,1.9c-17.6-0.1-35.3-0.1-52.9,0c-1.5,0-2.1-0.6-2.2-1.9c-0.1-2-0.1-4.1-0.1-6.1c0-1,0.4-1.6,1.5-1.2
			c3.1,1.1,6.3,2.1,9.3,3.4c0.9,0.4,1.7,1.5,2.1,2.5c0.4,0.9,0.8,1.1,1.6,1.1c6.3,0,12.6,0,18.9,0C56.1,192.3,58.4,192.3,60.8,192.3
			"/>
		<path class="st1" d="M203.9,193.6c-1.6-0.1-3.2-0.2-4.8-0.3c-10-0.8-20-1.5-30-2.3c-11.1-0.9-22.2-1.7-33.3-2.6
			c-3.3-0.3-6.6-0.4-10-0.8c-0.9-0.1-1.9-0.5-2.7-1c-1.7-1.3-3.3-2.8-4.9-4.4c28.6,3.4,57.2,7,85.7,10.9
			C204,193.2,203.9,193.4,203.9,193.6"/>
		<path class="st1" d="M137.3,227.2c-0.6,0.2-1.1,0.4-1.7,0.5c-11.3,1.3-22.7,2.7-34,3.9c-8.7,0.9-17.4,1.8-26.1,2.6
			c-2.2,0.2-4.4,0.1-6.6,0.1c-0.5,0-1.1-0.1-1.6-0.3c-0.5-0.3-1.2-0.8-1.2-1.3c-0.1-0.5,0.4-1.3,0.9-1.5c1.4-0.6,2.9-1.1,4.4-1.3
			c2.9-0.3,5.8-0.4,8.8-0.6c16.6-0.8,33.2-1.7,49.7-2.5c1.9-0.1,3.9-0.2,5.8-0.3c0.5,0,1.1,0.1,1.6,0.2
			C137.3,226.8,137.3,227,137.3,227.2"/>
		<path class="st1" d="M261.8,224.8c-0.6,0.2-1.3,0.4-1.9,0.4c-6.2,0.4-12.5,0.8-18.7,1.1c-15.6,0.9-31.2,1.7-46.7,2.6
			c-10,0.6-19.9,1.1-29.9,1.6c-15.5,0.8-31,1.8-46.4,2.5c-4.3,0.2-8.6,0-12.9-0.2c-0.8,0-1.7-0.3-2.4-0.7c-1.7-0.8-1.8-2.8-0.2-3.6
			c1.1-0.6,2.5-0.9,3.8-1c27.7-0.7,55.5-1.4,83.2-2.1c13.5-0.3,26.9-0.7,40.4-1c9.5-0.2,19-0.5,28.5-0.7c1.1,0,2.2,0.1,3.4,0.2
			C261.8,224.4,261.8,224.6,261.8,224.8"/>
		<path class="st1" d="M182.7,231.4c-0.3,0.1-0.6,0.2-1,0.3c-6.5,0.8-13.1,1.5-19.6,2.2c-5,0.5-10,1-15,1.5
			c-1.2,0.1-2.5,0.1-3.8,0.1c-0.3,0-0.7,0-0.9-0.2c-0.3-0.2-0.7-0.5-0.7-0.7c0-0.3,0.3-0.8,0.5-0.9c0.8-0.3,1.7-0.7,2.5-0.8
			c1.7-0.2,3.4-0.2,5-0.3c9.5-0.5,19.1-1,28.6-1.4c1.1-0.1,2.2-0.1,3.3-0.2c0.3,0,0.6,0.1,0.9,0.1L182.7,231.4z"/>
		<path class="st1" d="M127.2,192.8c19.3,1.4,38.4,2.7,57.7,4.1c-0.6,1.3-1.2,1.9-2.6,1.9c-17.4-0.1-34.8-0.2-52.2-0.2
			c-1,0-1.4-0.3-1.6-1.3C128.3,195.8,127.7,194.4,127.2,192.8"/>
		<path class="st1" d="M27.9,133.4c-0.1,1.1-0.7,1.4-1.6,1.5c-2.6,0.2-4.4,1.7-4.8,4.3c-0.7,4.3-1.2,8.5-1.8,12.8
			c-0.2,1.3-0.4,2.6-0.6,3.8c-0.4,1.7-1.7,2.7-3.5,2.6c-2.2-0.1-2.9-0.6-3.1-2.8c-0.5-6.7,0.4-13,3.7-19c1.1-2,2.8-3.2,5.1-3.2
			C23.5,133.3,25.7,133.4,27.9,133.4"/>
		<path class="st1" d="M198.4,197.5c1.8,0.3,3.4,0.5,5.5,0.8C200.8,199.5,198.8,199.2,198.4,197.5"/>
		<path class="st2" d="M53,148.9c-2.1,5.7-4.1,11.4-6.3,17c-1.2,2.9-2.8,5.6-4.3,8.3c-0.4,0.7-1.4,1.1-2.1,1.6
			c-0.1-0.8-0.5-1.7-0.3-2.5c1.6-8.9,5.7-16.5,11.4-23.4c0.4-0.4,0.8-0.8,1.3-1.2C52.8,148.7,52.9,148.8,53,148.9"/>
		<path class="st2" d="M112.1,213.2c-5.6,0.1-10.2-5.6-9.3-11.6c0.2-1.4,0.7-2.9,1.4-4.2c1.6-3,4.2-4.9,7.8-4.9
			c3.6-0.1,6.3,1.7,8,4.8c2.3,4.1,2.1,8.2-0.6,12.1C117.6,211.8,115.2,213.3,112.1,213.2 M112.5,196.4c0-0.2-0.1-0.4-0.1-0.6
			c-0.6-0.1-1.3-0.4-1.9-0.2c-0.8,0.2-1.6,0.6-2.2,1.1c-3.6,2.7-3.8,9.5-0.4,12.5c1.3,1.1,2.7,1.6,4.4,1.4c0.4-0.1,0.8-0.6,1.2-0.9
			c-0.4-0.3-0.7-0.6-1.1-0.8c-0.7-0.5-1.5-0.8-1.9-1.4c-1.2-1.7-1.5-3.6-1.4-5.7C109.2,199.5,110.2,197.6,112.5,196.4"/>
		<path class="st2" d="M151.1,208.6c0.7,1.2,1.4,2.4,2.2,3.9c-10.5,0.2-21.1,0.4-31.9,0.6c0.9-1.5,1.8-2.9,2.7-4.2
			c0.1-0.2,0.5-0.2,0.8-0.2C133.6,208.6,142.4,208.6,151.1,208.6"/>
		<path class="st2" d="M95.1,213.5c-8.6,0.2-17.1,0.3-25.6,0.5c0.7-1.6,1.3-3.1,2-4.5c0.2-0.3,0.7-0.7,1.1-0.7c6.2,0,12.3,0,18.5,0
			c0.4,0,1,0.3,1.3,0.7C93.4,210.7,94.2,212,95.1,213.5"/>
		<path class="st2" d="M195.5,204.2c-0.5,1.3-0.9,2.6-1.6,3.6c-1.1,1.6-2.9,1.5-4.2,0.1c-1.7-1.8-1.7-5.4,0-7.3
			c1.2-1.4,3.2-1.5,4.2,0.1C194.7,201.6,195,202.9,195.5,204.2"/>
		<path class="st2" d="M70.2,208.9c-1.9,2.7-4.1,4.3-7.3,4.5c-3.2,0.1-5.2-1.6-6.6-4.5H70.2z"/>
		<path class="st2" d="M168.7,211.9c0.5-1,1-2.1,1.6-3.2c0.2-0.3,0.7-0.5,1-0.5c2.2-0.1,4.4-0.1,6.5-0.1c0.4,0,1,0.3,1.2,0.7
			c0.7,0.9,1.2,2,1.9,3.1H168.7z"/>
		<path class="st1" d="M112.5,196.4c-2.2,1.2-3.2,3.1-3.4,5.4c-0.2,2,0.2,4,1.4,5.7c0.4,0.6,1.3,0.9,1.9,1.4
			c0.4,0.3,0.7,0.5,1.1,0.8c-0.4,0.3-0.8,0.8-1.2,0.9c-1.6,0.2-3.1-0.3-4.4-1.4c-3.4-3-3.2-9.8,0.4-12.5c0.7-0.5,1.5-0.9,2.2-1.1
			c0.6-0.1,1.2,0.1,1.9,0.2C112.4,196,112.4,196.2,112.5,196.4"/>
		<path class="st2" d="M99.6,214.4c0-0.5-6.6-7.8-6.6-7.8s6.7-6.7,7.1-7c0.4-0.3,23-6.5,23-6.5s1.5-3.6,7.9-6.5
			c6.5-2.9,22.5-6.1,34.8-6.6c12.3-0.5,25-2,33.2-0.3c8.2,1.7,16.4,6.5,19.6,8.9c3.2,2.4,6.1,4.9,6.1,4.9s6,2.1,7.3,5.3
			c1.3,3.2,4.2,16,1.9,21.8c-2.4,5.8-0.1,7.4-6.7,7.8s-83.8,0-83.8,0l-48.2-1.1c0,0-0.5-0.3-1.6-4.9c-1.1-4.6-0.4-7.3,0.3-8.5
			C94.6,212.8,99.6,214.4,99.6,214.4"/>
		<path class="st1" d="M125.5,190.3c5.4-5,12-7.2,19-8.6c16.8-3.3,33.8-3.9,50.8-2.6c1.4,0.1,2.8,0.4,4.3,0.7
			c-7.7,1.1-14.3,4.5-19.7,10.1c-0.5,0.5-1.6,0.8-2.4,0.8c-16.2,1.3-32.3,2.4-48.5,3.8c-6.8,0.6-13.7,1.5-20.4,2.9
			c-3.4,0.7-6.7,2.6-9.8,4.3c-1.6,0.9-2.8,2.5-4.2,3.8c0.2,0.2,0.3,0.5,0.5,0.7c2.6-0.2,5.3-0.1,7.9-0.6c4.1-0.8,6.9,0.6,9.1,4
			c0.5,0.8,1.9,1.6,2.9,1.6c5.8-0.2,11.6-0.6,17.4-1.1c0.7-0.1,1.6-0.8,2-1.4c2.4-4.1,5.6-6.3,10.6-6.5c7.1-0.2,14.1-0.9,21.4-1.4
			c-0.7,3.4-1.4,6.6-2,10c-4.9,0.3-9.9,0.6-14.9,0.9c-17.6,0.9-35.3,1.8-52.9,2.7c-1.8,0.1-2.5,0.7-2.4,2.6c0.3,8.2,0.3,8.1,8.4,7.8
			c17.4-0.6,34.8-1.2,52.1-1.8c5.1-0.2,10.2-0.4,15.2-0.7c0.7-5,1-10,2.2-14.9c1-3.9,2.5-7.9,4.6-11.3c3.3-5.3,8.9-4.9,11.9,0.6
			c4.1,7.2,5.1,15.2,5,23.3c0,2.3,0.6,2.9,2.8,3c3.3,0.1,6.5,0.6,10.1,1c-4.3-9.4-3.3-18.7-1.4-28.5c-6-1.3-12-2.5-18-3.8
			c4.8-8.4,14.6-12,23.5-8.3c3.7,1.5,7.1,3.8,10.2,6.3c2.3,1.9,4.6,3.2,7.5,3.6c1,0.1,2.2,0.9,2.7,1.7c6.5,10.7,5.6,21.7,0.7,32.6
			c-0.3,0.7-1.8,1.2-2.8,1.2c-15.6,0.1-31.2,0.1-46.8,0.1c-28.8,0-57.6,0-86.4,0c-0.8,0-1.6,0-2.6,0c-1.8-4.7-2.2-9.5-1.8-14.4
			c0-0.3,0.2-0.7,0.4-1c2.2-2.4,2.2-2.4,2-5.5c-0.3-0.1-0.6-0.2-0.9-0.2c-0.3-0.1-0.7-0.1-1.1-0.1c0-0.3-0.1-0.6-0.1-0.8
			c1.7-5,6-7.2,10.3-9.1c8.5-3.8,17.8-4.8,26.9-5.8c12.3-1.4,24.6-3.1,36.9-3.4c7.9-0.2,14.2-3,20.9-8c-3.8,0-7-0.1-10.1,0
			c-12.3,0.3-24.5,1.1-36.5,3.8c-4.1,0.9-8,3-12,4.6C127.2,189.4,126.4,189.9,125.5,190.3 M212.5,224.8c0.1-0.7,0.2-1.1,0.2-1.5
			c0.1-3.8-0.3-7.8,0.3-11.5c0.6-3.9,1.6-7.9,3.2-11.5c1.8-4,5.9-4.2,8.7-0.9c1.1,1.3,2,3,2.5,4.6c2.1,6.4,1.8,13,1.3,19.7
			c-0.1,0.8,0.4,1.7,0.5,2.5c0.7-0.6,1.7-1.1,2-1.9c3.3-9.1,2.6-17.9-2-26.4c-1-1.9-2.2-3.3-4.5-3.6c-1.1-0.1-2.2-1.1-3.1-2
			c-3.6-3.3-7.4-6.2-12.2-7.6c-5.5-1.5-11.4,0.4-14.4,4.8c6.5,1.2,13,2.3,19.7,3.5c-6.4,9.7-7.8,20.1-6.1,31.2
			C210,224.5,211.2,224.7,212.5,224.8"/>
		<path class="st2" d="M190,211.9c0,8.4-3.3,15.3-7.3,15.3s-7.3-6.8-7.3-15.3c0-8.4,3.3-15.3,7.3-15.3S190,203.4,190,211.9"/>
		<path class="st2" d="M225.9,213.8c0,7.3-2.2,13.1-4.9,13.1c-2.7,0-4.9-5.9-4.9-13.1c0-7.3,2.2-13.1,4.9-13.1
			C223.7,200.7,225.9,206.5,225.9,213.8"/>
		<path class="st1" d="M281.4,164h-3.9c-1.9,0-2.7,1.2-2.7,3.5v3.3h-3.7v-3.5c0-4.2,1.6-7.3,4.8-7.8c-0.5-1.5-0.8-3.3-0.8-5.4
			c0-5.8,2.3-9.8,6.1-9.8c4,0,6.2,3.9,6.2,9.8C287.6,160.2,285.5,164,281.4,164 M281.4,148.7c-1.4,0-2.4,1.4-2.4,5.5
			c0,4,1,5.4,2.4,5.4c1.5,0,2.5-1.5,2.5-5.3C283.9,150.1,282.9,148.7,281.4,148.7"/>
		<path class="st1" d="M305.7,164h-3.9c-1.9,0-2.7,1.2-2.7,3.5v3.3h-3.7v-3.5c0-4.2,1.6-7.3,4.8-7.8c-0.5-1.5-0.8-3.3-0.8-5.4
			c0-5.8,2.3-9.8,6.1-9.8c4,0,6.2,3.9,6.2,9.8C311.9,160.2,309.7,164,305.7,164 M305.7,148.7c-1.4,0-2.4,1.4-2.4,5.5
			c0,4,1,5.4,2.4,5.4c1.5,0,2.5-1.5,2.5-5.3C308.2,150.1,307.2,148.7,305.7,148.7"/>
		<path class="st1" d="M319.7,164v-4.4h6.2v-5.2c0-3.5-0.6-4.4-2.4-4.4l0.6-4.3c3.7,0,5.4,2.4,5.4,7.1V164H319.7z M324.1,137.8h3.7
			v4.8h-3.7V137.8z"/>
		<path class="st1" d="M353.3,164c-1.3,0-2.4-0.4-3.3-1.2v0.2c0,4.7-2.5,7.8-5.9,7.9c-0.4,0-0.5,0-0.8,0c-3.4-0.1-5.9-3.3-5.9-8v-17
			h3.7v16.9c0,2.3,0.8,3.6,2.7,3.6c1.8,0,2.6-1.2,2.6-3.6V146h3.7v10.3v-0.1c0,2.1,1.4,3.3,3.3,3.3h0.4v4.4H353.3z M341.8,137.8h3.7
			v4.8h-3.7V137.8z"/>
		<path class="st1" d="M351.6,167h3.3v4.8h-3.3V167z M353.3,164H353v-4.4h0.3c2.5-0.1,3.2-1.2,3.2-3.5V146h3.7v10.3
			C360.2,161.1,357.8,164,353.3,164 M356.3,167h3.2v4.8h-3.2V167z"/>
		<path class="st1" d="M361.5,171v-4.3c3,0,2.9-3.2,2.9-5.8v-14.7h3.6c0,0,0.1,0.4,0,16.7C367.9,167,365.9,171.2,361.5,171
			 M364.2,137.8h3.7v4.8h-3.7V137.8z"/>
		<path class="st1" d="M382.7,164c-0.4,4.3-3,7-6,7.3l-0.6,0.1v-4.5c1.5,0,2.7-1.3,2.8-2.9h-2.2c-2.6,0-5.9-2-5.9-8.5
			c0-6.1,2.1-9.5,5.9-9.5h6.1v13.6h3.5v4.4H382.7z M379.1,150.3h-2.3c-2,0-2.3,3.2-2.3,5.2c0,2.2,0.8,4.1,2.3,4.1h2.3V150.3z"/>
		<path class="st1" d="M400.4,163c-1,2.7-2.8,4.3-5.4,4.3c-2.5,0-4.4-1.5-5.4-4.1c-0.9,0.6-2,0.8-3.2,0.8h-1.1v-4.4
			c1.4-0.1,3.2-0.1,3.3-2.4c0.2-5.6,2.4-9.2,6.4-9.2c4.1,0,6.2,4.1,6.2,9.2c0,1.6,0.9,2.4,2.7,2.4h1.1v4.4
			C403.4,164,401.7,163.9,400.4,163 M394.9,152.1c-1.5,0-2.5,1.4-2.5,5.4c0,4,1,5.3,2.5,5.3c1.5,0,2.5-1.4,2.5-5.2
			C397.4,153.5,396.4,152.1,394.9,152.1"/>
		<path class="st1" d="M403,167h3.2v4.8H403V167z M413.9,164c-1.8,0-3.3-0.7-4.4-1.9c-1.1,1.3-2.6,1.9-4.3,1.9h-1.1v-4.4h1.1
			c1.5,0,2.4-1.1,2.4-2.8v-10.8h3.7v10.9c0,1.6,0.9,2.7,2.7,2.7h1.1v4.4H413.9z M407.7,167h3.2v4.8h-3.2V167z"/>
		<path class="st1" d="M414,164v-4.4c2.5,0,3.7-1.2,3.7-3.5v-17h3.7v17.3C421.4,161.1,418.6,164,414,164"/>
		<path class="st1" d="M448.5,164v-13.2c-1.1,0-2.3,0.8-2.3,4.1v9h-16.9c0.1-2.5,0.3-6.6,1.4-9.7c1.6-4.8,4.1-7.3,9.3-7.2v4.1
			c-2.6,0-4.4,0.4-5.7,3.7c-0.6,1.4-0.9,3.4-1,4.6h9.3c0.1-5.1,0.1-4.9,0-5.1c0-8.1,5.2-8.5,9.7-8.5v13.5h3.7v4.4H448.5z M433.5,167
			h3.3v4.8h-3.3V167z M438.2,167h3.3v4.8h-3.3V167z"/>
		<path class="st1" d="M454.9,164v-4.4c2.5,0,3.7-1.2,3.7-3.5V146h3.7v10.3C462.3,161.1,459.5,164,454.9,164 M455.2,137.8h2.9v4.8
			h-2.9V137.8z M459.6,137.8h2.9v4.8h-2.9V137.8z"/>
		<path class="st1" d="M476.1,164c-2.5,0-5.9-2.3-5.9-8.9c0-6.1,2.2-9.1,5.9-9.1h6v13.5h4v4.4H476.1z M478.4,150.3h-2.2
			c-2,0-2.5,2.9-2.5,4.9c0,2.2,0.9,4.4,2.5,4.4h2.2V150.3z"/>
		<path class="st1" d="M484.3,167h3.3v4.8h-3.3V167z M486,164h-0.3v-4.4h0.3c2.5-0.1,3.2-1.2,3.2-3.5V146h3.7v10.3
			C492.9,161.1,490.4,164,486,164 M489,167h3.2v4.8H489V167z"/>
		<rect x="495.7" y="139" class="st1" width="3.7" height="25"/>
		<path class="st1" d="M513.1,164c-2.5,0-5.9-2.3-5.9-8.9c0-6.1,2.2-9.1,5.9-9.1h6v13.5h4v4.4H513.1z M515.5,150.3h-2.2
			c-2,0-2.5,2.9-2.5,4.9c0,2.2,0.9,4.4,2.5,4.4h2.2V150.3z"/>
		<path class="st1" d="M521.3,167h3.3v4.8h-3.3V167z M523,164h-0.3v-4.4h0.3c2.5-0.1,3.2-1.2,3.2-3.5V146h3.7v10.3
			C529.9,161.1,527.5,164,523,164 M526,167h3.2v4.8H526V167z"/>
		<rect x="532.8" y="139" class="st1" width="3.7" height="25"/>
	</g>
</g>
</svg>
