<?xml version="1.0" encoding="utf-8"?>
<!-- Generator: Adobe Illustrator 24.3.0, SVG Export Plug-In . SVG Version: 6.00 Build 0)  -->
<svg version="1.1" id="Layer_1" xmlns="http://www.w3.org/2000/svg" xmlns:xlink="http://www.w3.org/1999/xlink" x="0px" y="0px"
	 viewBox="0 0 500 500" style="enable-background:new 0 0 500 500;" xml:space="preserve">
<style type="text/css">
	.st0{clip-path:url(#SVGID_2_);}
	.st1{clip-path:url(#SVGID_4_);}
	.st2{clip-path:url(#SVGID_6_);}
	.st3{fill:#010101;}
	.st4{clip-path:url(#SVGID_8_);}
	.st5{clip-path:url(#SVGID_10_);}
	.st6{clip-path:url(#SVGID_12_);}
	.st7{clip-path:url(#SVGID_14_);}
	.st8{clip-path:url(#SVGID_16_);}
	.st9{clip-path:url(#SVGID_18_);}
	.st10{clip-path:url(#SVGID_20_);}
	.st11{clip-path:url(#SVGID_22_);}
	.st12{clip-path:url(#SVGID_24_);}
	.st13{clip-path:url(#SVGID_26_);}
	.st14{clip-path:url(#SVGID_28_);}
	.st15{clip-path:url(#SVGID_30_);}
	.st16{clip-path:url(#SVGID_32_);}
	.st17{clip-path:url(#SVGID_34_);}
	.st18{clip-path:url(#SVGID_36_);}
	.st19{fill:#FFFFFF;}
	.st20{clip-path:url(#SVGID_38_);}
	.st21{fill:#BF232D;}
	.st22{clip-path:url(#SVGID_40_);}
	.st23{fill:#DCDDDE;}
	.st24{clip-path:url(#SVGID_42_);}
	.st25{clip-path:url(#SVGID_44_);}
	.st26{clip-path:url(#SVGID_46_);}
	.st27{clip-path:url(#SVGID_48_);}
	.st28{clip-path:url(#SVGID_50_);}
	.st29{clip-path:url(#SVGID_52_);}
	.st30{clip-path:url(#SVGID_54_);}
	.st31{clip-path:url(#SVGID_56_);}
	.st32{clip-path:url(#SVGID_58_);}
	.st33{clip-path:url(#SVGID_60_);}
	.st34{clip-path:url(#SVGID_62_);}
	.st35{clip-path:url(#SVGID_64_);}
	.st36{clip-path:url(#SVGID_66_);}
	.st37{clip-path:url(#SVGID_68_);}
	.st38{clip-path:url(#SVGID_70_);}
	.st39{clip-path:url(#SVGID_72_);}
	.st40{clip-path:url(#SVGID_74_);}
	.st41{clip-path:url(#SVGID_76_);}
	.st42{clip-path:url(#SVGID_78_);}
	.st43{clip-path:url(#SVGID_80_);}
	.st44{clip-path:url(#SVGID_82_);}
	.st45{clip-path:url(#SVGID_84_);}
	.st46{clip-path:url(#SVGID_86_);}
	.st47{clip-path:url(#SVGID_88_);}
	.st48{clip-path:url(#SVGID_90_);}
	.st49{clip-path:url(#SVGID_92_);}
	.st50{clip-path:url(#SVGID_94_);}
	.st51{clip-path:url(#SVGID_96_);}
	.st52{clip-path:url(#SVGID_98_);}
	.st53{clip-path:url(#SVGID_100_);}
	.st54{clip-path:url(#SVGID_102_);}
	.st55{clip-path:url(#SVGID_104_);}
	.st56{clip-path:url(#SVGID_106_);}
	.st57{clip-path:url(#SVGID_108_);}
	.st58{clip-path:url(#SVGID_110_);}
	.st59{clip-path:url(#SVGID_112_);}
	.st60{clip-path:url(#SVGID_114_);}
	.st61{clip-path:url(#SVGID_116_);}
	.st62{clip-path:url(#SVGID_118_);}
	.st63{clip-path:url(#SVGID_120_);}
	.st64{clip-path:url(#SVGID_122_);}
	.st65{clip-path:url(#SVGID_124_);}
	.st66{clip-path:url(#SVGID_126_);}
	.st67{clip-path:url(#SVGID_128_);}
	.st68{clip-path:url(#SVGID_130_);}
	.st69{clip-path:url(#SVGID_132_);}
	.st70{clip-path:url(#SVGID_134_);}
	.st71{clip-path:url(#SVGID_136_);}
	.st72{clip-path:url(#SVGID_138_);}
</style>
<g>
	<defs>
		<rect id="SVGID_1_" x="74.1" y="18.2" width="357" height="327"/>
	</defs>
	<clipPath id="SVGID_2_">
		<use xlink:href="#SVGID_1_"  style="overflow:visible;"/>
	</clipPath>
	<g class="st0">
		<g>
			<defs>
				<rect id="SVGID_3_" x="-81.8" y="-94.2" width="1080.7" height="557.3"/>
			</defs>
			<clipPath id="SVGID_4_">
				<use xlink:href="#SVGID_3_"  style="overflow:visible;"/>
			</clipPath>
			<g class="st1">
				<g>
					<defs>
						<rect id="SVGID_5_" x="-81.8" y="-94.2" width="1080.7" height="557.3"/>
					</defs>
					<clipPath id="SVGID_6_">
						<use xlink:href="#SVGID_5_"  style="overflow:visible;"/>
					</clipPath>
					<g class="st2">
						<path class="st3" d="M449.9,281.3h-6.4l-1.6,8.2h-7.6l7.3-35.2h10l7.3,35.2h-7.6L449.9,281.3z M448.7,275
							c-1.1-5.4-1.7-9.8-2-13c-0.4,3.6-1.1,7.9-2,13H448.7z"/>
					</g>
				</g>
				<g>
					<defs>
						<rect id="SVGID_7_" x="-81.8" y="-94.2" width="1080.7" height="557.3"/>
					</defs>
					<clipPath id="SVGID_8_">
						<use xlink:href="#SVGID_7_"  style="overflow:visible;"/>
					</clipPath>
					<g class="st4">
						<path class="st3" d="M475.6,281.3h-6.4l-1.6,8.2H460l7.3-35.2h10l7.3,35.2h-7.6L475.6,281.3z M474.4,275
							c-1.1-5.4-1.7-9.8-2-13c-0.4,3.6-1.1,7.9-2,13H474.4z"/>
					</g>
				</g>
				<g>
					<defs>
						<rect id="SVGID_9_" x="-81.8" y="-94.2" width="1080.7" height="557.3"/>
					</defs>
					<clipPath id="SVGID_10_">
						<use xlink:href="#SVGID_9_"  style="overflow:visible;"/>
					</clipPath>
					<g class="st5">
						<polygon class="st3" points="506.1,260.8 499.7,260.8 499.7,289.5 492,289.5 492,260.8 485.6,260.8 485.6,254.2 506.1,254.2 
													"/>
					</g>
				</g>
				<g>
					<defs>
						<rect id="SVGID_11_" x="-81.8" y="-94.2" width="1080.7" height="557.3"/>
					</defs>
					<clipPath id="SVGID_12_">
						<use xlink:href="#SVGID_11_"  style="overflow:visible;"/>
					</clipPath>
					<g class="st6">
						<polygon class="st3" points="534,289.5 516.6,289.5 516.6,254.2 524.4,254.2 524.4,282.9 534,282.9 						"/>
					</g>
				</g>
				<g>
					<defs>
						<rect id="SVGID_13_" x="-81.8" y="-94.2" width="1080.7" height="557.3"/>
					</defs>
					<clipPath id="SVGID_14_">
						<use xlink:href="#SVGID_13_"  style="overflow:visible;"/>
					</clipPath>
					<g class="st7">
						<rect x="536.7" y="254.2" class="st3" width="7.7" height="35.2"/>
					</g>
				</g>
				<g>
					<defs>
						<rect id="SVGID_15_" x="-81.8" y="-94.2" width="1080.7" height="557.3"/>
					</defs>
					<clipPath id="SVGID_16_">
						<use xlink:href="#SVGID_15_"  style="overflow:visible;"/>
					</clipPath>
					<g class="st8">
						<path class="st3" d="M559.4,277.1l-2.5-6.9c0.1,1.9,0.1,4.2,0.1,6.9v12.4h-7.3v-35.2h7.3l4.4,11.7l2.4,6.9
							c0.7-2.1,1.6-4.5,2.4-6.9l4.4-11.7h7.5v35.2h-7.5v-12.6l0.1-6.9c-0.7,2-1.5,4.4-2.4,6.9l-1.3,3.6h-6.4L559.4,277.1z"/>
					</g>
				</g>
				<g>
					<defs>
						<rect id="SVGID_17_" x="-81.8" y="-94.2" width="1080.7" height="557.3"/>
					</defs>
					<clipPath id="SVGID_18_">
						<use xlink:href="#SVGID_17_"  style="overflow:visible;"/>
					</clipPath>
					<g class="st9">
						<path class="st3" d="M604.3,280.9c0,2.8-0.9,5-2.8,6.6c-1.9,1.6-4.5,2.5-8,2.5s-6.1-0.8-8-2.5c-1.9-1.6-2.7-3.8-2.7-6.6v-18.1
							c0-2.8,0.9-5,2.7-6.6c1.9-1.6,4.5-2.5,8-2.5s6.1,0.8,8,2.5c1.9,1.6,2.8,3.8,2.8,6.6V280.9z M596.7,263.3
							c0-1.7-1.1-2.5-3.1-2.5s-3.1,0.8-3.1,2.5v17.2c0,1.7,1.1,2.5,3.1,2.5s3.1-0.8,3.1-2.5V263.3z"/>
					</g>
				</g>
				<g>
					<defs>
						<rect id="SVGID_19_" x="-81.8" y="-94.2" width="1080.7" height="557.3"/>
					</defs>
					<clipPath id="SVGID_20_">
						<use xlink:href="#SVGID_19_"  style="overflow:visible;"/>
					</clipPath>
					<g class="st10">
						<path class="st3" d="M630.3,254.2v26.6c0,2.8-0.9,5-2.8,6.6c-1.9,1.6-4.5,2.5-8,2.5s-6.1-0.8-8-2.5c-1.9-1.6-2.8-3.8-2.8-6.6
							v-26.6h7.7v26.3c0,1.7,1.1,2.5,3.1,2.5s3.1-0.8,3.1-2.5v-26.3H630.3z"/>
					</g>
				</g>
				<g>
					<defs>
						<rect id="SVGID_21_" x="-81.8" y="-94.2" width="1080.7" height="557.3"/>
					</defs>
					<clipPath id="SVGID_22_">
						<use xlink:href="#SVGID_21_"  style="overflow:visible;"/>
					</clipPath>
					<g class="st11">
						<path class="st3" d="M638.7,272.6c-3.2-2.1-4.8-4.9-4.8-8.6v-1.2c0-2.8,0.8-5,2.5-6.6s4.4-2.4,7.9-2.4s6.1,0.8,7.9,2.4
							s2.7,3.8,2.7,6.6v2.8H647v-2.4c0-0.8-0.1-1.5-0.5-1.9c-0.4-0.4-1.1-0.7-2.1-0.7c-0.9,0-1.7,0.1-2,0.5
							c-0.4,0.4-0.5,1.1-0.5,1.9v0.7c0,1.3,0.8,2.5,2.5,3.6l6.3,4c1.6,1.1,2.8,2.3,3.5,3.6c0.7,1.3,1.1,3,1.1,5v1.1
							c0,2.8-0.9,5-2.7,6.6s-4.4,2.4-8,2.4c-3.5,0-6.1-0.8-8-2.4c-1.7-1.6-2.7-3.8-2.7-6.6v-2.6h7.7v2.4c0,1.6,0.9,2.4,2.8,2.4
							s2.9-0.8,2.9-2.4V280c0-0.8-0.1-1.3-0.4-1.9c-0.3-0.5-0.9-1.1-1.9-1.6L638.7,272.6z"/>
					</g>
				</g>
				<g>
					<defs>
						<rect id="SVGID_23_" x="-81.8" y="-94.2" width="1080.7" height="557.3"/>
					</defs>
					<clipPath id="SVGID_24_">
						<use xlink:href="#SVGID_23_"  style="overflow:visible;"/>
					</clipPath>
					<g class="st12">
						<rect x="658.4" y="254.2" class="st3" width="7.7" height="35.2"/>
					</g>
				</g>
				<g>
					<defs>
						<rect id="SVGID_25_" x="-81.8" y="-94.2" width="1080.7" height="557.3"/>
					</defs>
					<clipPath id="SVGID_26_">
						<use xlink:href="#SVGID_25_"  style="overflow:visible;"/>
					</clipPath>
					<g class="st13">
						<path class="st3" d="M693.9,254.2v35.2h-7.3l-4.8-12.2c-0.5-1.3-1.1-2.6-1.5-4c-0.4-1.3-0.8-2.4-1.2-3.2
							c-0.3-0.9-0.5-1.7-0.8-2.4c-0.3-0.7-0.4-1.2-0.5-1.6c-0.1-0.4-0.1-0.7-0.3-0.7c0.8,2.5,1.3,7.4,1.3,14.6v9.4h-7.6v-35.2h7.6
							l4.7,11.8c2.1,5.4,3.5,9.4,4,11.7c-0.8-3-1.2-7.9-1.2-14.7V254h7.6V254.2z"/>
					</g>
				</g>
				<g>
					<defs>
						<rect id="SVGID_27_" x="-81.8" y="-94.2" width="1080.7" height="557.3"/>
					</defs>
					<clipPath id="SVGID_28_">
						<use xlink:href="#SVGID_27_"  style="overflow:visible;"/>
					</clipPath>
					<g class="st14">
						<polygon class="st3" points="717.1,289.5 699.1,289.5 699.1,254.2 717.1,254.2 717.1,260.8 706.7,260.8 706.7,268.3 
							715.7,268.3 715.7,275 706.7,275 706.7,282.9 717.1,282.9 						"/>
					</g>
				</g>
				<g>
					<defs>
						<rect id="SVGID_29_" x="-81.8" y="-94.2" width="1080.7" height="557.3"/>
					</defs>
					<clipPath id="SVGID_30_">
						<use xlink:href="#SVGID_29_"  style="overflow:visible;"/>
					</clipPath>
					<g class="st15">
						<polygon class="st3" points="745.9,289.5 728.6,289.5 728.6,254.2 736.4,254.2 736.4,282.9 745.9,282.9 						"/>
					</g>
				</g>
				<g>
					<defs>
						<rect id="SVGID_31_" x="-81.8" y="-94.2" width="1080.7" height="557.3"/>
					</defs>
					<clipPath id="SVGID_32_">
						<use xlink:href="#SVGID_31_"  style="overflow:visible;"/>
					</clipPath>
					<g class="st16">
						<polygon class="st3" points="766,289.5 748.7,289.5 748.7,254.2 756.4,254.2 756.4,282.9 766,282.9 						"/>
					</g>
				</g>
				<g>
					<defs>
						<rect id="SVGID_33_" x="-81.8" y="-94.2" width="1080.7" height="557.3"/>
					</defs>
					<clipPath id="SVGID_34_">
						<use xlink:href="#SVGID_33_"  style="overflow:visible;"/>
					</clipPath>
					<g class="st17">
						<path class="st3" d="M789.7,276.7v4.2c0,2.8-0.9,5-2.8,6.6c-1.9,1.6-4.5,2.5-8,2.5s-6.1-0.8-8-2.5c-1.9-1.6-2.7-3.8-2.7-6.6
							v-18.1c0-2.8,0.9-5,2.7-6.6c1.9-1.6,4.5-2.5,8-2.5s6.1,0.8,8,2.5c1.9,1.6,2.8,3.8,2.8,6.6v4.2H782v-3.8c0-1.7-1.1-2.5-3.1-2.5
							s-3.1,0.8-3.1,2.5v17.2c0,1.7,1.1,2.5,3.1,2.5s3.1-0.8,3.1-2.5v-3.8h7.7V276.7z"/>
					</g>
				</g>
				<g>
					<defs>
						<rect id="SVGID_35_" x="-81.8" y="-94.2" width="1080.7" height="557.3"/>
					</defs>
					<clipPath id="SVGID_36_">
						<use xlink:href="#SVGID_35_"  style="overflow:visible;"/>
					</clipPath>
					<g class="st18">
						<path class="st19" d="M424.6,182.1c0,76.3-62.2,138.2-139.1,138.2c-76.7,0-139.1-61.8-139.1-138.2S208.8,43.9,285.6,43.9
							C362.4,43.9,424.6,105.8,424.6,182.1"/>
					</g>
				</g>
				<g>
					<defs>
						<rect id="SVGID_37_" x="-81.8" y="-94.2" width="1080.7" height="557.3"/>
					</defs>
					<clipPath id="SVGID_38_">
						<use xlink:href="#SVGID_37_"  style="overflow:visible;"/>
					</clipPath>
					<g class="st20">
						<path class="st21" d="M284,322.9c-78.7,0-142.9-63.7-142.9-142.1S205.2,38.9,284,38.9C362.8,38.9,427,102.6,427,181
							S362.8,322.9,284,322.9 M284,52.8c-71.1,0-128.9,57.5-128.9,128.2S212.9,309.1,284,309.1S413,251.7,413,181S355,52.8,284,52.8
							"/>
					</g>
				</g>
				<g>
					<defs>
						<rect id="SVGID_39_" x="-81.8" y="-94.2" width="1080.7" height="557.3"/>
					</defs>
					<clipPath id="SVGID_40_">
						<use xlink:href="#SVGID_39_"  style="overflow:visible;"/>
					</clipPath>
					<g class="st22">
						<path class="st23" d="M284,296.1c-63.9,0-115.9-51.6-115.9-115.2S220.1,65.8,284,65.8S399.9,117.4,399.9,181
							S348,296.1,284,296.1 M284,75.4c-58.5,0-106,47.3-106,105.5s47.6,105.4,106,105.4s106-47.3,106-105.4S342.5,75.4,284,75.4"/>
					</g>
				</g>
				<g>
					<defs>
						<rect id="SVGID_41_" x="-81.8" y="-94.2" width="1080.7" height="557.3"/>
					</defs>
					<clipPath id="SVGID_42_">
						<use xlink:href="#SVGID_41_"  style="overflow:visible;"/>
					</clipPath>
					<g class="st24">
						<path class="st23" d="M284,296.1c-20.9,0-40.5-12.3-55-34.6c-14.1-21.6-21.8-50.3-21.8-80.6c0-30.5,7.7-59,21.8-80.6
							c14.5-22.2,34.1-34.6,55-34.6c20.9,0,40.5,12.3,55,34.6c14.1,21.6,21.8,50.3,21.8,80.6c0,30.5-7.7,59-21.8,80.6
							C324.5,283.8,305,296.1,284,296.1 M284,75.4c-37,0-67,47.3-67,105.5s30.1,105.4,67,105.4c37,0,67-47.3,67-105.4
							S320.9,75.4,284,75.4"/>
					</g>
				</g>
				<g>
					<defs>
						<rect id="SVGID_43_" x="-81.8" y="-94.2" width="1080.7" height="557.3"/>
					</defs>
					<clipPath id="SVGID_44_">
						<use xlink:href="#SVGID_43_"  style="overflow:visible;"/>
					</clipPath>
					<g class="st25">
						<rect x="279.1" y="73.6" class="st23" width="9.9" height="217.7"/>
					</g>
				</g>
				<g>
					<defs>
						<rect id="SVGID_45_" x="-81.8" y="-94.2" width="1080.7" height="557.3"/>
					</defs>
					<clipPath id="SVGID_46_">
						<use xlink:href="#SVGID_45_"  style="overflow:visible;"/>
					</clipPath>
					<g class="st26">
						<rect x="174.5" y="174.6" class="st23" width="219" height="9.8"/>
					</g>
				</g>
				<g>
					<defs>
						<rect id="SVGID_47_" x="-81.8" y="-94.2" width="1080.7" height="557.3"/>
					</defs>
					<clipPath id="SVGID_48_">
						<use xlink:href="#SVGID_47_"  style="overflow:visible;"/>
					</clipPath>
					<g class="st27">
						<rect x="186.4" y="121" class="st23" width="195.3" height="9.8"/>
					</g>
				</g>
				<g>
					<defs>
						<rect id="SVGID_49_" x="-81.8" y="-94.2" width="1080.7" height="557.3"/>
					</defs>
					<clipPath id="SVGID_50_">
						<use xlink:href="#SVGID_49_"  style="overflow:visible;"/>
					</clipPath>
					<g class="st28">
						<rect x="184.5" y="228.2" class="st23" width="198.9" height="9.8"/>
					</g>
				</g>
				<g>
					<defs>
						<rect id="SVGID_51_" x="-81.8" y="-94.2" width="1080.7" height="557.3"/>
					</defs>
					<clipPath id="SVGID_52_">
						<use xlink:href="#SVGID_51_"  style="overflow:visible;"/>
					</clipPath>
					<g class="st29">
						<path class="st19" d="M117.1,290.6l-12.1-2.8c0,0-2.5,0.4-3.3-7.7c-0.9-8.1-0.4-14.8-0.4-14.8l2.7,0.1c0,0,0.4-22.1,2-30.8
							c1.6-8.7,7.5-34.2,7.5-34.2l0.4-3.8l-8.7,0.7l2.3-2.1l13.2-0.9c0,0,19.4-7.1,25.7-10.2c6.4-3,38.4-9.9,42.1-10.1
							c3.7-0.3,6.7-0.5,17.9,2.8c11.1,3.3,152.3,57.1,152.3,57.1l0.1,54.2l-22.2,4.5c0,0-4,6-5.5,6.4s-187.6,4.9-187.6,4.9l-5.9-9.4
							l-21.6-0.7l1.1-2.3L117.1,290.6z"/>
					</g>
				</g>
				<g>
					<defs>
						<rect id="SVGID_53_" x="-81.8" y="-94.2" width="1080.7" height="557.3"/>
					</defs>
					<clipPath id="SVGID_54_">
						<use xlink:href="#SVGID_53_"  style="overflow:visible;"/>
					</clipPath>
					<g class="st30">
						<path class="st3" d="M323.7,237.8V253c-8.8-2.1-17.6-4.4-26.4-6.5c-0.4-5.3-0.9-10.6-1.3-15.9c-0.1,0-0.4,0-0.5,0V246
							c-10.4-2.4-20.8-4.6-31.2-7c-0.3-5.8-0.4-11.7-0.7-17.5c-0.3,0-0.5,0-0.8,0v17.1c-4.8-1.1-9.3-1.9-13.7-2.8
							c-6.1-1.3-12.3-2.6-18.5-3.7c-1.5-0.3-1.7-0.8-1.7-2.3c-0.1-9.5-0.3-18.9-0.5-28.5c0-2-0.4-4-0.7-6.1c-0.3,0-0.4,0-0.7,0
							c-0.3,1.5-0.5,3-0.7,4.5c-0.1,9.8-0.3,19.5-0.4,29.3c0,0.8,0,1.6,0,2.5c-15.5,2.3-28.1,10.2-40.8,19.3
							c0.3-4.9,0.4-9.4,0.8-13.8c1.1-11.4,2.1-22.8,3.5-34.2c0.7-6,1.9-11.9,3.2-17.9c0.5-2.5,2-5,3.5-7.1c1.7-2.5,4.3-3.4,7.3-2.5
							c38.6,12.7,77.3,25.7,114.8,41.2c10,4.1,19.7,8.7,29.6,13c1.7,0.8,2.4,1.7,2.3,3.6c-0.4,5.4-0.3,10.9-1.1,16.2
							c-0.8,5.2-3.6,7.3-8.9,6.9c-4.5-0.4-9.1-1.5-13.6-2.4c-0.5-0.1-1.1-1.2-1.1-1.9c-0.4-3.8-0.7-7.7-0.9-11.7
							c-0.1-0.8-0.3-1.6-0.4-2.4C324,237.8,323.9,237.8,323.7,237.8"/>
					</g>
				</g>
				<g>
					<defs>
						<rect id="SVGID_55_" x="-81.8" y="-94.2" width="1080.7" height="557.3"/>
					</defs>
					<clipPath id="SVGID_56_">
						<use xlink:href="#SVGID_55_"  style="overflow:visible;"/>
					</clipPath>
					<g class="st31">
						<path class="st3" d="M185.1,187.6c-0.7,4-1.6,7.9-2.1,12c-1.2,10.3-2.4,20.8-3.5,31.1c-0.7,7.3-1.1,14.7-1.6,22.1
							c-0.1,1.5-0.7,2.3-1.9,2.5c-6.5,1.6-13.1,3.6-19.6,4.6c-10.4,1.7-21,2.4-31.7,1.7c-3.3-0.3-6.7-0.7-10.4-1.2
							c0.8-2.9,1.3-5.4,2.1-7.8c2.9-8.9,5.6-17.7,8.9-26.5c5.5-14.3,14.5-26.3,25.7-36.8c0.5-0.5,1.1-0.9,1.6-1.5
							c0.1-0.1,0.1-0.3,0.3-0.8c-4.1,0.8-8,1.5-11.7,2.1c-0.9,0.1-1.9,0.5-2.9,0.7c-10.9,2.3-17.6,9.3-21.8,19.1
							c-4.5,10.5-7.1,21.3-8.8,32.4c-0.7,4.6-1.2,9.3-1.7,13.9c0,0.4-0.1,0.8-0.3,1.3c-2-1.5-3.2-3-3.2-5.3c0-6-0.1-11.9,0.5-17.9
							c1.1-10.7,3.7-21.2,7.3-31.4c2.8-7.8,7.9-12.7,15.6-15.5c12.4-4.5,25-7.7,38-9.8c8-1.3,16.1-1.9,24.2-2.8c0.7-0.1,1.5,0,1.9,0
							c-1.3,3-2.5,6.1-3.9,9c-0.3,0.5-1.1,1.1-1.7,1.1c-3.2,0.4-6.4,0.7-9.7,0.9c-3.5,0.3-6,2.1-7.2,5.4c-1.2,3.7-2.4,7.4-3.1,11.1
							c-0.8,4.5-1.3,9-1.6,13.5c-0.3,3.2,1.1,4.2,4.3,4.2c4.1,0,5.9-1.3,6.5-5.4c1.3-8.1,2.4-16.2,3.5-24.2c0.1-1.5,0.8-2.1,2.1-2.1
							C181.3,187.6,183.2,187.6,185.1,187.6 M144.7,215.4c-0.1-0.1-0.3-0.1-0.5-0.3c-0.5,0.5-1.2,0.9-1.7,1.6
							c-7.6,9.1-13.2,19.2-15.2,31c-0.1,1.1,0.3,2.3,0.4,3.3c0.9-0.7,2.3-1.2,2.8-2.1c2.1-3.6,4.3-7.1,5.7-11
							C139.2,230.3,141.9,222.8,144.7,215.4"/>
					</g>
				</g>
				<g>
					<defs>
						<rect id="SVGID_57_" x="-81.8" y="-94.2" width="1080.7" height="557.3"/>
					</defs>
					<clipPath id="SVGID_58_">
						<use xlink:href="#SVGID_57_"  style="overflow:visible;"/>
					</clipPath>
					<g class="st32">
						<path class="st3" d="M337.3,288.1c5.6,0,11.2,0,16.7,0c0.4,0,1.2-0.8,1.3-1.3c0.3-0.9,0.1-2,0.1-2.9c0-15.2,0-30.6-0.1-45.8
							c0-0.9,0-1.9,0-2.8c0-3.3,2.7-4,4.9-2.9c6,2.5,11.9,5.3,17.7,7.9c2.8,1.2,5.5,2.5,8.3,3.8c0,0.1-0.1,0.4-0.1,0.5
							c-8.9-2.5-17.9-5.2-26.8-7.7c0,4.4,0,8.6,0.1,12.8c0,0.4,1.1,1.1,1.7,1.2c8,2.6,16.1,5.2,24.1,7.7c0.3,0.1,0.5,0.3,0.8,0.8
							c-8.8-0.9-17.6-2-26.6-3c0,0.7,0,1.3,0,1.9c0.1,9.5,0.4,18.9,0.4,28.5c0,1.9,0.7,2.3,2.4,2.4c7.3,0.3,14.5,0.8,21.8,1.2
							c0.8,0,1.7,0.3,2.5,0.4c0,0.1,0.1,0.4,0.1,0.5c-0.9,0.3-1.9,0.7-2.7,0.7c-8.4,0.5-16.8,1.1-25.2,1.5
							c-6.5,0.3-12.9,0.4-19.4,0.4c-1.2,0-2,0.3-2.4,1.5c-0.4,1.1-1.2,2-2,3.3c0.8,0,1.5,0,2.1,0c7.9-0.1,15.7-0.3,23.6-0.4
							c1.6,0,3.3,0.4,4.9,0.5c0,0.3,0,0.7,0,0.9c-1.7,0.3-3.5,0.7-5.2,0.8c-8.8,0.3-17.6,0.5-26.4,0.8c-32,0.9-64.1,1.9-96,2.8
							c-25.8,0.7-51.7,1.5-77.4,2.1c-14,0.4-28,0.8-42,1.2c-2.3,0-4.5,0.1-6.7,0c-0.8-0.1-1.5-0.9-2.3-1.5c0.5-0.8,1.1-2,1.7-2.3
							c1.6-0.5,3.3-0.8,5.1-0.9c6.4-0.1,12.8-0.3,19.3-0.4c0.5,0,1.1-0.1,2-0.1c-2.7-1.7-4.3-3.8-5.1-6.5c-0.1-0.4-1.1-0.8-1.7-0.8
							c-4.5,0-9.2,0.1-13.7-0.1c-6.1-0.3-10.9-3.3-14.3-8.3c-0.3-0.4-0.5-0.9-0.7-1.5c-0.1-0.3-0.1-0.5-0.1-0.9
							c0.5,0,0.9-0.1,1.3-0.1c23.4-0.3,46.9-0.5,70.3-0.8c0.9,0,2.1,0.4,2.7,1.1c4.5,5.2,10.1,7.4,16.9,7.1c2.9-0.1,5.9,0,8.9,0
							c0.3-2.9,0.4-5.4,0.7-7.9c1.1-8.6,7.2-15.8,15.1-17.9c3.6-0.9,7.1-0.7,10.5,0.7c8.4,3.3,14.1,11.7,14.1,20.5
							c0,0.7,0,1.3,0,2.1h75.8c0.5-3.2,0.8-6.9,3.9-8.7c1.9-1.2,4.4-1.7,6.8-1.7C333.7,278.1,336.5,282,337.3,288.1 M223.4,300.5
							c4.3,0.1,7.5-1.7,9.7-5c3.6-5.2,3.7-10.6,0.8-16c-2.3-4.1-5.9-6.5-10.7-6.4c-4.8,0.1-8.1,2.5-10.4,6.5
							c-0.9,1.7-1.5,3.7-1.9,5.6C209.8,293.1,216,300.6,223.4,300.5 M275.4,294.4c-11.6,0-23.3,0-34.9,0c-0.4,0-0.9,0.1-1.1,0.3
							c-1.2,1.9-2.4,3.7-3.6,5.6c14.4-0.3,28.5-0.5,42.5-0.8C277.3,297.6,276.2,295.9,275.4,294.4 M200.8,300.9
							c-1.3-2-2.4-3.7-3.6-5.3c-0.4-0.5-1.1-0.9-1.7-0.9c-8.3,0-16.4,0-24.6,0c-0.5,0-1.2,0.5-1.5,0.9c-0.9,1.9-1.7,3.8-2.7,6
							C178.1,301.3,189.3,301.2,200.8,300.9 M334.5,288.6c-0.7-1.7-1.2-3.4-2.1-4.8c-1.5-2-4-2-5.6-0.1c-2.3,2.5-2.1,7.3,0,9.7
							c1.7,1.9,4.1,2,5.6-0.1C333.5,292,333.9,290.3,334.5,288.6 M167.6,294.8h-18.4c1.9,3.8,4.5,6.1,8.8,6
							C162.2,300.5,165.1,298.4,167.6,294.8 M298.8,298.8h16.5c-0.9-1.5-1.7-2.9-2.5-4.1c-0.4-0.5-1.1-0.9-1.6-0.9
							c-2.9,0-5.9,0-8.7,0.1c-0.5,0-1.2,0.3-1.3,0.7C300.2,296,299.5,297.5,298.8,298.8"/>
					</g>
				</g>
				<g>
					<defs>
						<rect id="SVGID_59_" x="-81.8" y="-94.2" width="1080.7" height="557.3"/>
					</defs>
					<clipPath id="SVGID_60_">
						<use xlink:href="#SVGID_59_"  style="overflow:visible;"/>
					</clipPath>
					<g class="st33">
						<path class="st3" d="M351.6,306.5c-0.8,0.3-1.7,0.5-2.5,0.5c-8.3,0.5-16.7,1.1-24.9,1.5c-20.8,1.2-41.6,2.3-62.2,3.4
							c-13.3,0.8-26.5,1.5-39.8,2.1c-20.6,1.1-41.3,2.4-61.8,3.3c-5.7,0.3-11.5,0-17.2-0.3c-1.1,0-2.3-0.4-3.2-0.9
							c-2.3-1.1-2.4-3.7-0.3-4.8c1.5-0.8,3.3-1.2,5.1-1.2c36.9-0.9,73.9-1.9,110.8-2.8c18-0.4,35.8-0.9,53.8-1.3
							c12.7-0.3,25.3-0.7,38-0.9c1.5,0,2.9,0.1,4.5,0.3C351.6,305.9,351.6,306.2,351.6,306.5"/>
					</g>
				</g>
				<g>
					<defs>
						<rect id="SVGID_61_" x="-81.8" y="-94.2" width="1080.7" height="557.3"/>
					</defs>
					<clipPath id="SVGID_62_">
						<use xlink:href="#SVGID_61_"  style="overflow:visible;"/>
					</clipPath>
					<g class="st34">
						<path class="st3" d="M346.8,267.5c-0.8,0.1-1.6,0.3-2.3,0.3c-21.8-2.8-43.6-5.4-65.4-8.2c-22.2-2.8-44.6-5.7-66.9-8.6
							c-0.7-0.1-1.3-0.4-2.4-0.7c0.9-0.8,1.5-1.2,1.9-1.7c6.5-5.4,14.1-6.2,22.1-4.6c33.8,6.8,67.7,13.6,101.5,20.4
							c3.5,0.7,6.9,1.5,10.4,2.3c0.4,0.1,0.7,0.3,1.1,0.4C346.8,267.3,346.8,267.4,346.8,267.5"/>
					</g>
				</g>
				<g>
					<defs>
						<rect id="SVGID_63_" x="-81.8" y="-94.2" width="1080.7" height="557.3"/>
					</defs>
					<clipPath id="SVGID_64_">
						<use xlink:href="#SVGID_63_"  style="overflow:visible;"/>
					</clipPath>
					<g class="st35">
						<path class="st3" d="M155.1,272.8c0.5-4.5,3.2-6.8,7.2-7.7c4.1-1.1,8.4-2.1,12.5-2.9c2.4-0.5,2.9,0,3.1,2.5
							c0,2.9,0,5.8-0.3,8.6c-0.1,1.7-0.9,2.6-2.9,2.5c-23.4-0.1-47-0.1-70.5,0c-2,0-2.8-0.8-2.9-2.5c-0.1-2.6-0.1-5.4-0.1-8.1
							c0-1.3,0.5-2.1,2-1.6c4.1,1.5,8.4,2.8,12.4,4.5c1.2,0.5,2.3,2,2.8,3.3c0.5,1.2,1.1,1.5,2.1,1.5c8.4,0,16.8,0,25.2,0
							C148.8,272.8,151.9,272.8,155.1,272.8"/>
					</g>
				</g>
				<g>
					<defs>
						<rect id="SVGID_65_" x="-81.8" y="-94.2" width="1080.7" height="557.3"/>
					</defs>
					<clipPath id="SVGID_66_">
						<use xlink:href="#SVGID_65_"  style="overflow:visible;"/>
					</clipPath>
					<g class="st36">
						<path class="st3" d="M345.7,274.6c-2.1-0.1-4.3-0.3-6.4-0.4c-13.3-1.1-26.6-2-40-3c-14.8-1.2-29.6-2.3-44.4-3.4
							c-4.4-0.4-8.8-0.5-13.3-1.1c-1.2-0.1-2.5-0.7-3.6-1.3c-2.3-1.7-4.4-3.7-6.5-5.8c38.1,4.5,76.2,9.3,114.2,14.4
							C345.9,274,345.7,274.3,345.7,274.6"/>
					</g>
				</g>
				<g>
					<defs>
						<rect id="SVGID_67_" x="-81.8" y="-94.2" width="1080.7" height="557.3"/>
					</defs>
					<clipPath id="SVGID_68_">
						<use xlink:href="#SVGID_67_"  style="overflow:visible;"/>
					</clipPath>
					<g class="st37">
						<path class="st3" d="M257,319c-0.8,0.3-1.5,0.5-2.3,0.7c-15.1,1.7-30.2,3.6-45.3,5.2c-11.6,1.2-23.2,2.4-34.8,3.4
							c-2.9,0.3-5.9,0.1-8.8,0.1c-0.7,0-1.5-0.1-2.1-0.4c-0.7-0.4-1.6-1.1-1.6-1.7c-0.1-0.7,0.5-1.7,1.2-2c1.9-0.8,3.9-1.5,5.9-1.7
							c3.9-0.4,7.7-0.5,11.7-0.8c22.1-1.1,44.2-2.3,66.2-3.3c2.5-0.1,5.2-0.3,7.7-0.4c0.7,0,1.5,0.1,2.1,0.3
							C257,318.5,257,318.8,257,319"/>
					</g>
				</g>
				<g>
					<defs>
						<rect id="SVGID_69_" x="-81.8" y="-94.2" width="1080.7" height="557.3"/>
					</defs>
					<clipPath id="SVGID_70_">
						<use xlink:href="#SVGID_69_"  style="overflow:visible;"/>
					</clipPath>
					<g class="st38">
						<path class="st3" d="M422.9,315.9c-0.8,0.3-1.7,0.5-2.5,0.5c-8.3,0.5-16.7,1.1-24.9,1.5c-20.8,1.2-41.6,2.3-62.2,3.4
							c-13.3,0.8-26.5,1.5-39.8,2.1c-20.6,1.1-41.3,2.4-61.8,3.3c-5.7,0.3-11.5,0-17.2-0.3c-1.1,0-2.3-0.4-3.2-0.9
							c-2.3-1.1-2.4-3.7-0.3-4.8c1.5-0.8,3.3-1.2,5.1-1.3c36.9-0.9,73.9-1.9,110.8-2.8c18-0.4,35.8-0.9,53.8-1.3
							c12.7-0.3,25.3-0.7,38-0.9c1.5,0,2.9,0.1,4.5,0.3C422.9,315.3,422.9,315.6,422.9,315.9"/>
					</g>
				</g>
				<g>
					<defs>
						<rect id="SVGID_71_" x="-81.8" y="-94.2" width="1080.7" height="557.3"/>
					</defs>
					<clipPath id="SVGID_72_">
						<use xlink:href="#SVGID_71_"  style="overflow:visible;"/>
					</clipPath>
					<g class="st39">
						<path class="st3" d="M317.5,324.6c-0.4,0.1-0.8,0.3-1.3,0.4c-8.7,1.1-17.5,2-26.1,2.9c-6.7,0.7-13.3,1.3-20,2
							c-1.6,0.1-3.3,0.1-5.1,0.1c-0.4,0-0.9,0-1.2-0.3c-0.4-0.3-0.9-0.7-0.9-0.9c0-0.4,0.4-1.1,0.7-1.2c1.1-0.4,2.3-0.9,3.3-1.1
							c2.3-0.3,4.5-0.3,6.7-0.4c12.7-0.7,25.4-1.3,38.1-1.9c1.5-0.1,2.9-0.1,4.4-0.3c0.4,0,0.8,0.1,1.2,0.1L317.5,324.6z"/>
					</g>
				</g>
				<g>
					<defs>
						<rect id="SVGID_73_" x="-81.8" y="-94.2" width="1080.7" height="557.3"/>
					</defs>
					<clipPath id="SVGID_74_">
						<use xlink:href="#SVGID_73_"  style="overflow:visible;"/>
					</clipPath>
					<g class="st40">
						<path class="st3" d="M243.6,273.5c25.7,1.9,51.2,3.6,76.9,5.4c-0.8,1.7-1.6,2.5-3.5,2.5c-23.2-0.1-46.4-0.3-69.5-0.3
							c-1.3,0-1.9-0.4-2.1-1.7C245,277.5,244.2,275.6,243.6,273.5"/>
					</g>
				</g>
				<g>
					<defs>
						<rect id="SVGID_75_" x="-81.8" y="-94.2" width="1080.7" height="557.3"/>
					</defs>
					<clipPath id="SVGID_76_">
						<use xlink:href="#SVGID_75_"  style="overflow:visible;"/>
					</clipPath>
					<g class="st41">
						<path class="st3" d="M111.3,194.9c-0.1,1.5-0.9,1.9-2.1,2c-3.5,0.3-5.9,2.3-6.4,5.7c-0.9,5.7-1.6,11.3-2.4,16.9
							c-0.3,1.7-0.5,3.4-0.8,5c-0.5,2.3-2.3,3.6-4.7,3.4c-2.9-0.1-3.9-0.8-4.1-3.7c-0.7-8.9,0.5-17.2,4.9-25.2
							c1.5-2.6,3.7-4.2,6.8-4.2C105.4,194.7,108.3,194.9,111.3,194.9"/>
					</g>
				</g>
				<g>
					<defs>
						<rect id="SVGID_77_" x="-81.8" y="-94.2" width="1080.7" height="557.3"/>
					</defs>
					<clipPath id="SVGID_78_">
						<use xlink:href="#SVGID_77_"  style="overflow:visible;"/>
					</clipPath>
					<g class="st42">
						<path class="st3" d="M338.4,279.7c2.4,0.4,4.5,0.7,7.3,1.1C341.6,282.4,338.9,282,338.4,279.7"/>
					</g>
				</g>
				<g>
					<defs>
						<rect id="SVGID_79_" x="-81.8" y="-94.2" width="1080.7" height="557.3"/>
					</defs>
					<clipPath id="SVGID_80_">
						<use xlink:href="#SVGID_79_"  style="overflow:visible;"/>
					</clipPath>
					<g class="st43">
						<path class="st19" d="M144.7,215.4c-2.8,7.5-5.5,15.1-8.4,22.5c-1.6,3.8-3.7,7.4-5.7,11c-0.5,0.9-1.9,1.5-2.8,2.1
							c-0.1-1.1-0.7-2.3-0.4-3.3c2.1-11.8,7.6-21.8,15.2-31c0.5-0.5,1.1-1.1,1.7-1.6C144.4,215.1,144.6,215.2,144.7,215.4"/>
					</g>
				</g>
				<g>
					<defs>
						<rect id="SVGID_81_" x="-81.8" y="-94.2" width="1080.7" height="557.3"/>
					</defs>
					<clipPath id="SVGID_82_">
						<use xlink:href="#SVGID_81_"  style="overflow:visible;"/>
					</clipPath>
					<g class="st44">
						<path class="st19" d="M223.4,300.5c-7.5,0.1-13.6-7.4-12.4-15.4c0.3-1.9,0.9-3.8,1.9-5.6c2.1-4,5.6-6.5,10.4-6.5
							c4.8-0.1,8.4,2.3,10.7,6.4c3.1,5.4,2.8,10.9-0.8,16C230.8,298.7,227.6,300.6,223.4,300.5 M224,278.3c0-0.3-0.1-0.5-0.1-0.8
							c-0.8-0.1-1.7-0.5-2.5-0.3c-1.1,0.3-2.1,0.8-2.9,1.5c-4.8,3.6-5.1,12.6-0.5,16.5c1.7,1.5,3.6,2.1,5.9,1.9
							c0.5-0.1,1.1-0.8,1.6-1.2c-0.5-0.4-0.9-0.8-1.5-1.1c-0.9-0.7-2-1.1-2.5-1.9c-1.6-2.3-2-4.8-1.9-7.5
							C219.6,282.4,220.9,279.9,224,278.3"/>
					</g>
				</g>
				<g>
					<defs>
						<rect id="SVGID_83_" x="-81.8" y="-94.2" width="1080.7" height="557.3"/>
					</defs>
					<clipPath id="SVGID_84_">
						<use xlink:href="#SVGID_83_"  style="overflow:visible;"/>
					</clipPath>
					<g class="st45">
						<path class="st19" d="M275.4,294.4c0.9,1.6,1.9,3.2,2.9,5.2c-14,0.3-28.1,0.5-42.5,0.8c1.2-2,2.4-3.8,3.6-5.6
							c0.1-0.3,0.7-0.3,1.1-0.3C252.1,294.4,263.8,294.4,275.4,294.4"/>
					</g>
				</g>
				<g>
					<defs>
						<rect id="SVGID_85_" x="-81.8" y="-94.2" width="1080.7" height="557.3"/>
					</defs>
					<clipPath id="SVGID_86_">
						<use xlink:href="#SVGID_85_"  style="overflow:visible;"/>
					</clipPath>
					<g class="st46">
						<path class="st19" d="M200.8,300.9c-11.5,0.3-22.8,0.4-34.1,0.7c0.9-2.1,1.7-4.1,2.7-6c0.3-0.4,0.9-0.9,1.5-0.9
							c8.3,0,16.4,0,24.6,0c0.5,0,1.3,0.4,1.7,0.9C198.5,297.2,199.6,298.9,200.8,300.9"/>
					</g>
				</g>
				<g>
					<defs>
						<rect id="SVGID_87_" x="-81.8" y="-94.2" width="1080.7" height="557.3"/>
					</defs>
					<clipPath id="SVGID_88_">
						<use xlink:href="#SVGID_87_"  style="overflow:visible;"/>
					</clipPath>
					<g class="st47">
						<path class="st19" d="M334.5,288.6c-0.7,1.7-1.2,3.4-2.1,4.8c-1.5,2.1-3.9,2-5.6,0.1c-2.3-2.4-2.3-7.1,0-9.7
							c1.6-1.9,4.3-2,5.6,0.1C333.5,285.2,333.9,286.9,334.5,288.6"/>
					</g>
				</g>
				<g>
					<defs>
						<rect id="SVGID_89_" x="-81.8" y="-94.2" width="1080.7" height="557.3"/>
					</defs>
					<clipPath id="SVGID_90_">
						<use xlink:href="#SVGID_89_"  style="overflow:visible;"/>
					</clipPath>
					<g class="st48">
						<path class="st19" d="M167.6,294.8c-2.5,3.6-5.5,5.7-9.7,6c-4.3,0.1-6.9-2.1-8.8-6H167.6z"/>
					</g>
				</g>
				<g>
					<defs>
						<rect id="SVGID_91_" x="-81.8" y="-94.2" width="1080.7" height="557.3"/>
					</defs>
					<clipPath id="SVGID_92_">
						<use xlink:href="#SVGID_91_"  style="overflow:visible;"/>
					</clipPath>
					<g class="st49">
						<path class="st19" d="M298.8,298.8c0.7-1.3,1.3-2.8,2.1-4.2c0.3-0.4,0.9-0.7,1.3-0.7c2.9-0.1,5.9-0.1,8.7-0.1
							c0.5,0,1.3,0.4,1.6,0.9c0.9,1.2,1.6,2.6,2.5,4.1H298.8z"/>
					</g>
				</g>
				<g>
					<defs>
						<rect id="SVGID_93_" x="-81.8" y="-94.2" width="1080.7" height="557.3"/>
					</defs>
					<clipPath id="SVGID_94_">
						<use xlink:href="#SVGID_93_"  style="overflow:visible;"/>
					</clipPath>
					<g class="st50">
						<path class="st3" d="M224,278.3c-2.9,1.6-4.3,4.1-4.5,7.1c-0.3,2.6,0.3,5.3,1.9,7.5c0.5,0.8,1.7,1.2,2.5,1.9
							c0.5,0.4,0.9,0.7,1.5,1.1c-0.5,0.4-1.1,1.1-1.6,1.2c-2.1,0.3-4.1-0.4-5.9-1.9c-4.5-4-4.3-13,0.5-16.5c0.9-0.7,2-1.2,2.9-1.5
							c0.8-0.1,1.6,0.1,2.5,0.3C223.8,277.7,223.8,278,224,278.3"/>
					</g>
				</g>
				<g>
					<defs>
						<rect id="SVGID_95_" x="-81.8" y="-94.2" width="1080.7" height="557.3"/>
					</defs>
					<clipPath id="SVGID_96_">
						<use xlink:href="#SVGID_95_"  style="overflow:visible;"/>
					</clipPath>
					<g class="st51">
						<path class="st19" d="M206.8,302.1c0-0.7-8.8-10.3-8.8-10.3s8.9-8.9,9.5-9.3s30.6-8.6,30.6-8.6s2-4.8,10.5-8.6
							c8.7-3.8,30-8.1,46.4-8.7s33.3-2.6,44.2-0.4c10.9,2.3,21.8,8.6,26.1,11.8c4.3,3.2,8.1,6.5,8.1,6.5s8,2.8,9.7,7
							s5.6,21.2,2.5,28.9c-3.2,7.7-0.1,9.8-8.9,10.3c-8.8,0.5-111.6,0-111.6,0l-64.2-1.5c0,0-0.7-0.4-2.1-6.5
							c-1.5-6.1-0.5-9.7,0.4-11.3C200.1,300,206.8,302.1,206.8,302.1"/>
					</g>
				</g>
				<g>
					<defs>
						<rect id="SVGID_97_" x="-81.8" y="-94.2" width="1080.7" height="557.3"/>
					</defs>
					<clipPath id="SVGID_98_">
						<use xlink:href="#SVGID_97_"  style="overflow:visible;"/>
					</clipPath>
					<g class="st52">
						<path class="st3" d="M241.3,270.2c7.2-6.6,16-9.5,25.3-11.4c22.4-4.4,45-5.2,67.7-3.4c1.9,0.1,3.7,0.5,5.7,0.9
							c-10.3,1.5-19,6-26.2,13.4c-0.7,0.7-2.1,1.1-3.2,1.1c-21.6,1.7-43,3.2-64.6,5c-9.1,0.8-18.2,2-27.2,3.8
							c-4.5,0.9-8.9,3.4-13.1,5.7c-2.1,1.2-3.7,3.3-5.6,5c0.3,0.3,0.4,0.7,0.7,0.9c3.5-0.3,7.1-0.1,10.5-0.8
							c5.5-1.1,9.2,0.8,12.1,5.3c0.7,1.1,2.5,2.1,3.9,2.1c7.7-0.3,15.5-0.8,23.2-1.5c0.9-0.1,2.1-1.1,2.7-1.9
							c3.2-5.4,7.5-8.3,14.1-8.6c9.5-0.3,18.8-1.2,28.5-1.9c-0.9,4.5-1.9,8.7-2.7,13.2c-6.5,0.4-13.2,0.8-19.8,1.2
							c-23.4,1.2-47,2.4-70.5,3.6c-2.4,0.1-3.3,0.9-3.2,3.4c0.4,10.9,0.4,10.7,11.2,10.3c23.2-0.8,46.4-1.6,69.4-2.4
							c6.8-0.3,13.6-0.5,20.2-0.9c0.9-6.6,1.3-13.2,2.9-19.7c1.3-5.2,3.3-10.5,6.1-15c4.4-7,11.9-6.5,15.9,0.8
							c5.5,9.5,6.8,20.1,6.7,30.8c0,3,0.8,3.8,3.7,4c4.4,0.1,8.7,0.8,13.5,1.3c-5.7-12.4-4.4-24.8-1.9-37.7c-8-1.7-16-3.3-24-5
							c6.4-11.1,19.4-15.9,31.3-11c4.9,2,9.5,5,13.6,8.3c3.1,2.5,6.1,4.2,10,4.8c1.3,0.1,2.9,1.2,3.6,2.3
							c8.7,14.2,7.5,28.7,0.9,43.2c-0.4,0.9-2.4,1.6-3.7,1.6c-20.8,0.1-41.6,0.1-62.3,0.1c-38.4,0-76.7,0-115.1,0
							c-1.1,0-2.1,0-3.5,0c-2.4-6.2-2.9-12.6-2.4-19.1c0-0.4,0.3-0.9,0.5-1.3c2.9-3.2,2.9-3.2,2.7-7.3c-0.4-0.1-0.8-0.3-1.2-0.3
							c-0.4-0.1-0.9-0.1-1.5-0.1c0-0.4-0.1-0.8-0.1-1.1c2.3-6.6,8-9.5,13.7-12c11.3-5,23.7-6.4,35.8-7.7c16.4-1.9,32.8-4.1,49.2-4.5
							c10.5-0.3,18.9-4,27.8-10.6c-5.1,0-9.3-0.1-13.5,0c-16.4,0.4-32.6,1.5-48.6,5c-5.5,1.2-10.7,4-16,6.1
							C243.6,269,242.5,269.7,241.3,270.2 M357.2,315.9c0.1-0.9,0.3-1.5,0.3-2c0.1-5-0.4-10.3,0.4-15.2c0.8-5.2,2.1-10.5,4.3-15.2
							c2.4-5.3,7.9-5.6,11.6-1.2c1.5,1.7,2.7,4,3.3,6.1c2.8,8.5,2.4,17.2,1.7,26.1c-0.1,1.1,0.5,2.3,0.7,3.3
							c0.9-0.8,2.3-1.5,2.7-2.5c4.4-12,3.5-23.7-2.7-35c-1.3-2.5-2.9-4.4-6-4.8c-1.5-0.1-2.9-1.5-4.1-2.6
							c-4.8-4.4-9.9-8.2-16.3-10.1c-7.3-2-15.2,0.5-19.2,6.4c8.7,1.6,17.3,3,26.2,4.6c-8.5,12.8-10.4,26.6-8.1,41.3
							C353.8,315.5,355.4,315.7,357.2,315.9"/>
					</g>
				</g>
				<g>
					<defs>
						<rect id="SVGID_99_" x="-81.8" y="-94.2" width="1080.7" height="557.3"/>
					</defs>
					<clipPath id="SVGID_100_">
						<use xlink:href="#SVGID_99_"  style="overflow:visible;"/>
					</clipPath>
					<g class="st53">
						<path class="st19" d="M327.2,298.8c0,11.1-4.4,20.3-9.7,20.3s-9.7-9-9.7-20.3c0-11.1,4.4-20.3,9.7-20.3
							S327.2,287.5,327.2,298.8"/>
					</g>
				</g>
				<g>
					<defs>
						<rect id="SVGID_101_" x="-81.8" y="-94.2" width="1080.7" height="557.3"/>
					</defs>
					<clipPath id="SVGID_102_">
						<use xlink:href="#SVGID_101_"  style="overflow:visible;"/>
					</clipPath>
					<g class="st54">
						<path class="st19" d="M375,301.3c0,9.7-2.9,17.3-6.5,17.3s-6.5-7.8-6.5-17.3c0-9.7,2.9-17.3,6.5-17.3S375,291.6,375,301.3"/>
					</g>
				</g>
				<g>
					<defs>
						<rect id="SVGID_103_" x="-81.8" y="-94.2" width="1080.7" height="557.3"/>
					</defs>
					<clipPath id="SVGID_104_">
						<use xlink:href="#SVGID_103_"  style="overflow:visible;"/>
					</clipPath>
					<g class="st55">
						<path class="st3" d="M449,235.4h-5.2c-2.5,0-3.6,1.6-3.6,4.6v4.4h-4.9v-4.6c0-5.6,2.1-9.7,6.4-10.3c-0.7-2-1.1-4.4-1.1-7.1
							c0-7.7,3.1-13,8.1-13c5.3,0,8.3,5.2,8.3,13C457.2,230.3,454.4,235.4,449,235.4 M449,215.1c-1.9,0-3.2,1.9-3.2,7.3
							c0,5.3,1.3,7.1,3.2,7.1c2,0,3.3-2,3.3-7C452.3,217,451,215.1,449,215.1"/>
					</g>
				</g>
				<g>
					<defs>
						<rect id="SVGID_105_" x="-81.8" y="-94.2" width="1080.7" height="557.3"/>
					</defs>
					<clipPath id="SVGID_106_">
						<use xlink:href="#SVGID_105_"  style="overflow:visible;"/>
					</clipPath>
					<g class="st56">
						<path class="st3" d="M481.3,235.4h-5.2c-2.5,0-3.6,1.6-3.6,4.6v4.4h-4.9v-4.6c0-5.6,2.1-9.7,6.4-10.3c-0.7-2-1.1-4.4-1.1-7.1
							c0-7.7,3.1-13,8.1-13c5.3,0,8.3,5.2,8.3,13C489.6,230.3,486.7,235.4,481.3,235.4 M481.3,215.1c-1.9,0-3.2,1.9-3.2,7.3
							c0,5.3,1.3,7.1,3.2,7.1c2,0,3.3-2,3.3-7C484.7,217,483.3,215.1,481.3,215.1"/>
					</g>
				</g>
				<g>
					<defs>
						<rect id="SVGID_107_" x="-81.8" y="-94.2" width="1080.7" height="557.3"/>
					</defs>
					<clipPath id="SVGID_108_">
						<use xlink:href="#SVGID_107_"  style="overflow:visible;"/>
					</clipPath>
					<g class="st57">
						<path class="st3" d="M500,235.4v-5.8h8.3v-6.9c0-4.6-0.8-5.8-3.2-5.8l0.8-5.7c4.9,0,7.2,3.2,7.2,9.4v14.8H500z M505.8,200.7
							h4.9v6.4h-4.9V200.7z"/>
					</g>
				</g>
				<g>
					<defs>
						<rect id="SVGID_109_" x="-81.8" y="-94.2" width="1080.7" height="557.3"/>
					</defs>
					<clipPath id="SVGID_110_">
						<use xlink:href="#SVGID_109_"  style="overflow:visible;"/>
					</clipPath>
					<g class="st58">
						<path class="st3" d="M544.7,235.4c-1.7,0-3.2-0.5-4.4-1.6v0.3c0,6.2-3.3,10.3-7.9,10.5c-0.5,0-0.7,0-1.1,0
							c-4.5-0.1-7.9-4.4-7.9-10.6v-22.5h4.9v22.4c0,3,1.1,4.8,3.6,4.8c2.4,0,3.5-1.6,3.5-4.8v-22.2h4.9v13.6V225
							c0,2.8,1.9,4.4,4.4,4.4h0.5v5.8h-0.7V235.4z M529.4,200.7h4.9v6.4h-4.9V200.7z"/>
					</g>
				</g>
				<g>
					<defs>
						<rect id="SVGID_111_" x="-81.8" y="-94.2" width="1080.7" height="557.3"/>
					</defs>
					<clipPath id="SVGID_112_">
						<use xlink:href="#SVGID_111_"  style="overflow:visible;"/>
					</clipPath>
					<g class="st59">
						<path class="st3" d="M542.5,239.3h4.4v6.4h-4.4V239.3z M544.7,235.4h-0.4v-5.8h0.4c3.3-0.1,4.3-1.6,4.3-4.6v-13.4h4.9v13.6
							C553.9,231.5,550.7,235.4,544.7,235.4 M548.7,239.3h4.3v6.4h-4.3V239.3z"/>
					</g>
				</g>
				<g>
					<defs>
						<rect id="SVGID_113_" x="-81.8" y="-94.2" width="1080.7" height="557.3"/>
					</defs>
					<clipPath id="SVGID_114_">
						<use xlink:href="#SVGID_113_"  style="overflow:visible;"/>
					</clipPath>
					<g class="st60">
						<path class="st3" d="M555.7,244.6v-5.7c4,0,3.9-4.2,3.9-7.7v-19.5h4.8c0,0,0.1,0.5,0,22.1
							C564.2,239.3,561.5,244.9,555.7,244.6 M559.3,200.7h4.9v6.4h-4.9V200.7z"/>
					</g>
				</g>
				<g>
					<defs>
						<rect id="SVGID_115_" x="-81.8" y="-94.2" width="1080.7" height="557.3"/>
					</defs>
					<clipPath id="SVGID_116_">
						<use xlink:href="#SVGID_115_"  style="overflow:visible;"/>
					</clipPath>
					<g class="st61">
						<path class="st3" d="M583.9,235.4c-0.5,5.7-4,9.3-8,9.7l-0.8,0.1v-6c2,0,3.6-1.7,3.7-3.8h-2.9c-3.5,0-7.9-2.6-7.9-11.3
							c0-8.1,2.8-12.6,7.9-12.6h8.1v18h4.7v5.8L583.9,235.4L583.9,235.4z M579.1,217.2H576c-2.7,0-3.1,4.2-3.1,6.9
							c0,2.9,1.1,5.4,3.1,5.4h3.1V217.2z"/>
					</g>
				</g>
				<g>
					<defs>
						<rect id="SVGID_117_" x="-81.8" y="-94.2" width="1080.7" height="557.3"/>
					</defs>
					<clipPath id="SVGID_118_">
						<use xlink:href="#SVGID_117_"  style="overflow:visible;"/>
					</clipPath>
					<g class="st62">
						<path class="st3" d="M607.5,234c-1.3,3.6-3.7,5.7-7.2,5.7c-3.3,0-5.9-2-7.2-5.4c-1.2,0.8-2.7,1.1-4.3,1.1h-1.5v-5.8
							c1.9-0.1,4.3-0.1,4.4-3.2c0.3-7.4,3.2-12.2,8.5-12.2c5.5,0,8.3,5.4,8.3,12.2c0,2.1,1.2,3.2,3.6,3.2h1.5v5.8
							C611.5,235.4,609.2,235.2,607.5,234 M600.2,219.6c-2,0-3.3,1.9-3.3,7.1s1.3,7,3.3,7c2,0,3.3-1.9,3.3-6.9
							C603.5,221.5,602.2,219.6,600.2,219.6"/>
					</g>
				</g>
				<g>
					<defs>
						<rect id="SVGID_119_" x="-81.8" y="-94.2" width="1080.7" height="557.3"/>
					</defs>
					<clipPath id="SVGID_120_">
						<use xlink:href="#SVGID_119_"  style="overflow:visible;"/>
					</clipPath>
					<g class="st63">
						<path class="st3" d="M610.9,239.3h4.3v6.4h-4.3V239.3z M625.5,235.4c-2.4,0-4.4-0.9-5.9-2.5c-1.5,1.7-3.5,2.5-5.7,2.5h-1.5
							v-5.8h1.5c2,0,3.2-1.5,3.2-3.7v-14.3h4.9V226c0,2.1,1.2,3.6,3.6,3.6h1.5v5.8L625.5,235.4L625.5,235.4z M617.2,239.3h4.3v6.4
							h-4.3V239.3z"/>
					</g>
				</g>
				<g>
					<defs>
						<rect id="SVGID_121_" x="-81.8" y="-94.2" width="1080.7" height="557.3"/>
					</defs>
					<clipPath id="SVGID_122_">
						<use xlink:href="#SVGID_121_"  style="overflow:visible;"/>
					</clipPath>
					<g class="st64">
						<path class="st3" d="M625.6,235.4v-5.8c3.3,0,4.9-1.6,4.9-4.6v-22.5h4.9v22.9C635.5,231.5,631.7,235.4,625.6,235.4"/>
					</g>
				</g>
				<g>
					<defs>
						<rect id="SVGID_123_" x="-81.8" y="-94.2" width="1080.7" height="557.3"/>
					</defs>
					<clipPath id="SVGID_124_">
						<use xlink:href="#SVGID_123_"  style="overflow:visible;"/>
					</clipPath>
					<g class="st65">
						<path class="st3" d="M671.6,235.4v-17.5c-1.5,0-3.1,1.1-3.1,5.4v11.9H646c0.1-3.3,0.4-8.7,1.9-12.8c2.1-6.4,5.5-9.7,12.4-9.5
							v5.4c-3.5,0-5.9,0.5-7.6,4.9c-0.8,1.9-1.2,4.5-1.3,6.1h12.4c0.1-6.8,0.1-6.5,0-6.8c0-10.7,6.9-11.3,12.9-11.3v17.9h4.9v5.8
							h-10V235.4z M651.6,239.3h4.4v6.4h-4.4V239.3z M657.8,239.3h4.4v6.4h-4.4V239.3z"/>
					</g>
				</g>
				<g>
					<defs>
						<rect id="SVGID_125_" x="-81.8" y="-94.2" width="1080.7" height="557.3"/>
					</defs>
					<clipPath id="SVGID_126_">
						<use xlink:href="#SVGID_125_"  style="overflow:visible;"/>
					</clipPath>
					<g class="st66">
						<path class="st3" d="M680.1,235.4v-5.8c3.3,0,4.9-1.6,4.9-4.6v-13.4h4.9v13.6C689.9,231.5,686.2,235.4,680.1,235.4
							 M680.5,200.7h3.9v6.4h-3.9V200.7z M686.3,200.7h3.9v6.4h-3.9V200.7z"/>
					</g>
				</g>
				<g>
					<defs>
						<rect id="SVGID_127_" x="-81.8" y="-94.2" width="1080.7" height="557.3"/>
					</defs>
					<clipPath id="SVGID_128_">
						<use xlink:href="#SVGID_127_"  style="overflow:visible;"/>
					</clipPath>
					<g class="st67">
						<path class="st3" d="M708.3,235.4c-3.3,0-7.9-3-7.9-11.8c0-8.1,2.9-12,7.9-12h8v17.9h5.3v5.8h-13.3V235.4z M711.4,217.2h-2.9
							c-2.7,0-3.3,3.8-3.3,6.5c0,2.9,1.2,5.8,3.3,5.8h2.9V217.2z"/>
					</g>
				</g>
				<g>
					<defs>
						<rect id="SVGID_129_" x="-81.8" y="-94.2" width="1080.7" height="557.3"/>
					</defs>
					<clipPath id="SVGID_130_">
						<use xlink:href="#SVGID_129_"  style="overflow:visible;"/>
					</clipPath>
					<g class="st68">
						<path class="st3" d="M719.2,239.3h4.4v6.4h-4.4V239.3z M721.5,235.4h-0.4v-5.8h0.4c3.3-0.1,4.3-1.6,4.3-4.6v-13.4h4.9v13.6
							C730.7,231.5,727.4,235.4,721.5,235.4 M725.5,239.3h4.3v6.4h-4.3V239.3z"/>
					</g>
				</g>
				<g>
					<defs>
						<rect id="SVGID_131_" x="-81.8" y="-94.2" width="1080.7" height="557.3"/>
					</defs>
					<clipPath id="SVGID_132_">
						<use xlink:href="#SVGID_131_"  style="overflow:visible;"/>
					</clipPath>
					<g class="st69">
						<rect x="734.4" y="202.3" class="st3" width="4.9" height="33.1"/>
					</g>
				</g>
				<g>
					<defs>
						<rect id="SVGID_133_" x="-81.8" y="-94.2" width="1080.7" height="557.3"/>
					</defs>
					<clipPath id="SVGID_134_">
						<use xlink:href="#SVGID_133_"  style="overflow:visible;"/>
					</clipPath>
					<g class="st70">
						<path class="st3" d="M757.6,235.4c-3.3,0-7.9-3-7.9-11.8c0-8.1,2.9-12,7.9-12h8v17.9h5.3v5.8h-13.3V235.4z M760.8,217.2h-2.9
							c-2.7,0-3.3,3.8-3.3,6.5c0,2.9,1.2,5.8,3.3,5.8h2.9V217.2z"/>
					</g>
				</g>
				<g>
					<defs>
						<rect id="SVGID_135_" x="-81.8" y="-94.2" width="1080.7" height="557.3"/>
					</defs>
					<clipPath id="SVGID_136_">
						<use xlink:href="#SVGID_135_"  style="overflow:visible;"/>
					</clipPath>
					<g class="st71">
						<path class="st3" d="M768.5,239.3h4.4v6.4h-4.4V239.3z M770.8,235.4h-0.4v-5.8h0.4c3.3-0.1,4.3-1.6,4.3-4.6v-13.4h4.9v13.6
							C780,231.5,776.8,235.4,770.8,235.4 M774.8,239.3h4.3v6.4h-4.3V239.3z"/>
					</g>
				</g>
				<g>
					<defs>
						<rect id="SVGID_137_" x="-81.8" y="-94.2" width="1080.7" height="557.3"/>
					</defs>
					<clipPath id="SVGID_138_">
						<use xlink:href="#SVGID_137_"  style="overflow:visible;"/>
					</clipPath>
					<g class="st72">
						<rect x="783.9" y="202.3" class="st3" width="4.9" height="33.1"/>
					</g>
				</g>
			</g>
		</g>
	</g>
</g>
<g>
	<path d="M91.9,396.7h-9l-2.1,11.4H70.1l10.3-49.2h13.9l10.3,49.2H94L91.9,396.7z M90.2,387.7c-1.6-8.6-2.3-12.6-2.8-18.2
		c-0.6,5.5-1.2,9.9-2.8,18.2H90.2z"/>
	<path d="M147.2,408.1h-24.1v-49.2H134v40h13.2V408.1z"/>
	<path d="M209.4,396.7h-9l-2.1,11.4h-10.6l10.3-49.2h13.9l10.3,49.2h-10.6L209.4,396.7z M207.6,387.7c-1.6-8.6-2.3-12.6-2.8-18.2
		c-0.6,5.5-1.2,9.9-2.8,18.2H207.6z"/>
	<path d="M254.3,390.7c-2.1-5.6-3.5-9.7-3.5-9.7s0.1,4,0.1,9.7v17.4h-10.3v-49.2h10.3l6.2,16.3c1.9,5.1,3.4,9.6,3.4,9.6
		s1.5-4.5,3.4-9.7l6.2-16.3h10.4v49.2h-10.4v-17.5c0-5.8,0.1-9.5,0.1-9.5s-1.4,4.3-3.4,9.5l-1.9,5h-8.9L254.3,390.7z"/>
	<path d="M327.1,408.1H302v-49.2h25.1v9.2h-14.4v10.4h12.4v9.2h-12.4v11.1h14.4V408.1z"/>
	<path d="M371.9,408.1h-25.1v-49.2h25.1v9.2h-14.4v10.4h12.4v9.2h-12.4v11.1h14.4V408.1z"/>
	<path d="M423.1,358.9v49.2h-10.3l-6.6-16.9c-4-10.2-5.6-15.7-5.9-16.5c0.3,0.9,1.8,7,1.8,20.3v13.1h-10.6v-49.2h10.6l6.5,16.5
		c3.8,9.7,5.4,15.1,5.6,16.3c-0.4-1.3-1.7-7.7-1.7-20.5v-12.4H423.1z"/>
	<path d="M170.7,449.2c0-5.9,3.7-10.2,11.5-10.2s11.5,4.3,11.5,10.2v3h-6.6v-2.7c0-2.7-1.4-4.5-4.9-4.5c-3.6,0-4.9,1.8-4.9,4.5v21.7
		c0,2.7,1.3,4.5,4.8,4.5c3.4,0,5-1.8,5-4.5v-7.1h-4v-5.7h10.7v22.7h-6.3v-3.4c-0.6,1.2-2.6,3.8-7,3.8c-6.7,0-9.7-4.3-9.7-10V449.2z"
		/>
	<path d="M217.3,481.1l-5.3-15.6H212h-4.2v15.6h-6.6v-41.5H212c7.8,0,11.6,4.3,11.6,10.2v5.5c0,4-1.7,7.2-5.1,8.9l6.2,16.9H217.3z
		 M207.8,459.7h4.2c3.6,0,5-1.7,5-4.4v-5.5c0-2.7-1.4-4.4-5-4.4h-4.2V459.7z"/>
	<path d="M252.9,471.5c0,6-3.7,10.2-11.5,10.2s-11.5-4.3-11.5-10.2v-22.3c0-5.9,3.7-10.2,11.5-10.2s11.5,4.3,11.5,10.2V471.5z
		 M246.3,449.5c0-2.7-1.4-4.5-4.9-4.5c-3.6,0-4.9,1.8-4.9,4.5v21.7c0,2.7,1.3,4.6,4.9,4.6c3.5,0,4.9-1.8,4.9-4.6V449.5z"/>
	<path d="M282.8,439.6v31.9c0,6-3.7,10.2-11.6,10.2s-11.5-4.3-11.5-10.2v-31.9h6.6v31.7c0,2.7,1.4,4.5,4.9,4.5c3.6,0,5-1.8,5-4.5
		v-31.7H282.8z"/>
	<path d="M299.7,461.7c0.6,0.1,1.3,0.1,1.9,0.1c3.1,0,4.3-1.5,4.3-4.1v-7.9c0-2.7-1.4-4.4-4.9-4.4h-4.2v35.7h-6.6v-41.5H301
		c7.8,0,11.6,4.3,11.6,10.2v7.8c0,6.3-3.4,10.1-9.8,10.1c-0.9,0-2.1-0.1-3.1-0.2V461.7z"/>
</g>
<g>
	<rect x="333.2" y="465.9" class="st21" width="86.2" height="5.1"/>
</g>
<g>
	<rect x="64.1" y="465.9" class="st21" width="86.2" height="5.1"/>
</g>
</svg>
