<?xml version="1.0" encoding="utf-8"?>
<!-- Generator: Adobe Illustrator 25.2.0, SVG Export Plug-In . SVG Version: 6.00 Build 0)  -->
<svg version="1.1" id="Capa_1" xmlns="http://www.w3.org/2000/svg" xmlns:xlink="http://www.w3.org/1999/xlink" x="0px" y="0px"
	 viewBox="0 0 512 512" style="enable-background:new 0 0 512 512;" xml:space="preserve">
<style type="text/css">
	.st0{fill:#FFFFFF;}
</style>
<g>
	<path class="st0" d="M505.8,304.9l-32.5-32.5c-4-4-9.4-6.2-15-6.2s-11,2.2-15,6.2l-4.5,4.5l-15.6-15.6l10.3-10.3
		c6.7-6.7,10.4-15.7,10.3-25.3c-0.1-9.5-4-18.4-11-25c-5.1-4.9-11.4-7.8-18.1-8.9l5.4-5.4c13.5-13.5,14-35.6,1.1-49.3
		c-5.2-5.5-11.9-9.1-19.3-10.4l5.6-5.6c6.7-6.7,10.4-15.7,10.3-25.3c-0.1-9.5-4-18.4-11-25c-13.2-12.5-34.4-12.4-48-0.1
		c-1.3-7.4-4.9-14.1-10.4-19.3c-13.6-12.9-35.7-12.4-49.3,1.1l-1.4,1.4c-5.8-12.5-18.4-21.1-33.1-21.1c-14.7,0-27.3,8.6-33.1,21.1
		l-1.3-1.3c-14.2-14.2-37.3-14.2-51.5,0c-8.3,8.3-11.8,19.7-10.3,30.5c-10.8-1.4-22.2,2-30.5,10.3c-8.3,8.3-11.8,19.7-10.3,30.5
		c-10.8-1.4-22.2,2-30.5,10.3c-8.8,8.8-12.1,20.9-10,32.3c-10.3-0.9-21,2.6-28.8,10.5c-6.8,6.8-10.6,16-10.6,25.7
		s3.8,18.9,10.6,25.7l25.6,25.6c0,0.1,0,0.3,0,0.4c0.3,8.2-2.9,16.2-8.5,21.9l-2.1,2.1l-4.5-4.5c-8.3-8.3-21.8-8.3-30.1,0L6.2,306.6
		c-8.3,8.3-8.3,21.8,0,30.1l136.3,136.3c4.1,4.1,9.6,6.2,15,6.2s10.9-2.1,15-6.2l32.5-32.5c8.3-8.3,8.3-21.8,0-30.1l-4.4-4.4
		l2.5-2.5c5.6-5.6,13.5-8.7,21.7-8.5c12,0.3,23.9-0.9,35.4-3.5c0.1,0,0.1,0,0.2,0c8.9,1.4,17.9,2,26.8,1.8c8.1-0.2,16,2.9,21.6,8.5
		l2.5,2.5l-4.4,4.4c-4,4-6.2,9.4-6.2,15s2.2,11,6.2,15l32.5,32.5c4,4,9.4,6.2,15,6.2s11-2.2,15-6.2L505.8,335
		C514.1,326.7,514.1,313.2,505.8,304.9L505.8,304.9z M264.7,47.8c10.5,0,19.5,7.9,21.1,18.1l-21.1,21.1l-21.1-21.1
		C245.2,55.8,254.2,47.8,264.7,47.8z M189.4,63.3c8.3-8.3,21.9-8.3,30.2,0l42.1,42.1c8.3,8.3,8.3,21.9,0,30.2
		c-8.3,8.3-21.9,8.3-30.2,0l-42.1-42.1C181.1,85.2,181.1,71.6,189.4,63.3z M107.7,144.9c8.3-8.3,21.9-8.3,30.2,0l6.6,6.6
		c1.5,1.5,3.4,2.2,5.3,2.2s3.8-0.7,5.3-2.2c2.9-2.9,2.9-7.7,0-10.6l-6.6-6.6c-4-4-6.2-9.4-6.2-15.1c0-5.7,2.2-11.1,6.2-15.1
		c4-4,9.4-6.2,15.1-6.2c5.7,0,11.1,2.2,15.1,6.2l68.4,68.4c8.3,8.3,8.3,21.9,0,30.2c-8.3,8.3-21.9,8.3-30.2,0l-40.6-40.6
		c-2.9-2.9-7.7-2.9-10.6,0c-2.9,2.9-2.9,7.7,0,10.6l23.9,23.9c8.3,8.3,8.3,21.9,0,30.2c-4,4-9.4,6.2-15.1,6.2
		c-5.7,0-11.1-2.2-15.1-6.2l-19.3-19.3l-32.4-32.4C99.4,166.8,99.4,153.3,107.7,144.9L107.7,144.9z M62.6,202.9
		c0-5.7,2.2-11.1,6.2-15.1c4.2-4.2,9.6-6.3,15.1-6.3c5.5,0,11,2.1,15.1,6.3l30.4,30.4c4,4,6.2,9.4,6.2,15.1c0,5.7-2.2,11.1-6.2,15.1
		c-8.3,8.3-21.9,8.3-30.2,0L68.8,218C64.8,214,62.6,208.6,62.6,202.9L62.6,202.9z M194.4,429.9L162,462.3c-2.4,2.4-6.4,2.4-8.9,0
		L16.8,326c-2.4-2.4-2.4-6.4,0-8.9l32.5-32.5c1.2-1.2,2.8-1.8,4.4-1.8c1.6,0,3.2,0.6,4.4,1.8L194.4,421
		C196.9,423.5,196.9,427.4,194.4,429.9z M225.2,380c-12.2-0.3-24.1,4.4-32.7,12.9l-2.5,2.5L83.8,289.2l2.1-2.1
		c5.9-5.9,9.9-13.4,11.8-21.5c5.2,2.7,10.9,4,16.7,4c9.3,0,18.6-3.5,25.7-10.6c5.5-5.5,9-12.5,10.2-20.1c6.7,6,15.2,9.2,24.2,9.2
		c9.7,0,18.9-3.8,25.7-10.6c5.8-5.8,9.2-13,10.3-20.6c14.2,10.5,34.4,9.3,47.3-3.6c14.2-14.2,14.2-37.3,0-51.5l-5.5-5.5
		c7.3-1.2,14.4-4.6,20-10.2c13.2-13.2,14.1-34.1,2.7-48.4l34.7-34.7c7.8-7.8,20.5-8.2,28.3-0.8c4,3.8,6.2,8.8,6.3,14.3
		c0.1,5.5-2,10.6-5.9,14.4l-32.9,32.9c-2.9,2.9-2.9,7.7,0,10.6c1.5,1.5,3.4,2.2,5.3,2.2c1.9,0,3.8-0.7,5.3-2.2l32.9-32.9l19.1-19.1
		c7.8-7.8,20.5-8.2,28.3-0.8c4,3.8,6.2,8.8,6.3,14.3c0.1,5.5-2,10.6-5.9,14.4L371,136.5c0,0,0,0,0,0l-26.4,26.4
		c-2.9,2.9-2.9,7.7,0,10.6c1.5,1.5,3.4,2.2,5.3,2.2c1.9,0,3.8-0.7,5.3-2.2l26.4-26.4c3.8-3.8,8.8-5.9,14.2-5.9c0.1,0,0.2,0,0.3,0
		c5.5,0.1,10.5,2.3,14.3,6.3c7.4,7.8,7,20.5-0.8,28.3l-26,26c-1.5,1.5-2.2,3.4-2.2,5.3s0.7,3.8,2.2,5.3c2.9,2.9,7.7,2.9,10.6,0
		c7.8-7.8,20.5-8.2,28.3-0.8c4,3.8,6.2,8.8,6.3,14.3c0.1,5.5-2,10.6-5.9,14.4l-101,101C296.5,366.8,261.2,380.9,225.2,380L225.2,380
		z M495.2,324.4L358.9,460.7c-1.2,1.2-2.8,1.8-4.4,1.8s-3.2-0.7-4.4-1.8l-32.5-32.5c-1.2-1.2-1.8-2.8-1.8-4.4s0.7-3.2,1.8-4.4
		l79.8-79.8c2.9-2.9,2.9-7.7,0-10.6c-2.9-2.9-7.7-2.9-10.6,0l-64.8,64.8l-2.5-2.5c-6.5-6.5-15.1-10.8-24.1-12.3
		c13.7-7,26.3-16,37.2-27l80-80l15.6,15.6L408,307.7c-2.9,2.9-2.9,7.7,0,10.6c2.9,2.9,7.7,2.9,10.6,0l35.3-35.3
		c1.2-1.2,2.8-1.8,4.4-1.8s3.2,0.7,4.4,1.8l32.5,32.5C497.6,318,497.6,321.9,495.2,324.4L495.2,324.4z"/>
</g>
</svg>
