<?xml version="1.0" encoding="utf-8"?>
<!-- Generator: Adobe Illustrator 23.0.5, SVG Export Plug-In . SVG Version: 6.00 Build 0)  -->
<svg version="1.1" id="Layer_1" xmlns="http://www.w3.org/2000/svg" xmlns:xlink="http://www.w3.org/1999/xlink" x="0px" y="0px"
	 viewBox="0 0 512 512" style="enable-background:new 0 0 512 512;" xml:space="preserve">
<style type="text/css">
	.st0{fill:#FFFFFF;}
</style>
<g id="Outline">
	<path class="st0" d="M16,336c0,22.1,17.9,40,39.9,40c7.9,0,15.5-2.3,22.1-6.6l64.6,64.6c-12.2,18.4-7.1,43.2,11.3,55.4
		c18.4,12.2,43.2,7.1,55.4-11.3c2.8-4.3,4.8-9,5.8-14h81.6c4.4,21.6,25.5,35.6,47.2,31.2c21.6-4.4,35.6-25.5,31.2-47.2
		c-1-5-3-9.8-5.9-14.1l34.8-34.8l-11.3-11.3L358,422.6c-18.4-12.2-43.2-7.2-55.4,11.3c-2.8,4.3-4.8,9.1-5.8,14.1h-81.6
		c-2.1-10.4-8.3-19.6-17.2-25.4l4.7-11.6l-14.9-5.9l-4.6,11.6c-10.1-1.8-20.6,0.3-29.2,6L89.4,358c5.7-8.6,7.8-19,6-29.2L155,305
		l-5.9-14.9L89.4,314c-5.8-8.9-15-15.1-25.4-17.2v-81.6c10.4-2.1,19.6-8.3,25.4-17.2l59.6,23.9L155,207l-59.6-23.9
		c1.8-10.1-0.3-20.6-6-29.2l49.8-49.8l-11.3-11.3L78,142.6c-18.4-12.2-43.2-7.1-55.4,11.3s-7.1,43.2,11.3,55.4c4.3,2.8,9,4.8,14,5.8
		v81.6C29.4,300.6,16,317,16,336z M336,432c13.3,0,24,10.7,24,24s-10.7,24-24,24s-24-10.7-24-24C312,442.8,322.8,432,336,432z
		 M176,432c13.3,0,24,10.7,24,24s-10.7,24-24,24s-24-10.7-24-24C152,442.8,162.8,432,176,432z M32,176c0-13.3,10.7-24,24-24
		s24,10.7,24,24s-10.7,24-24,24C42.8,200,32,189.2,32,176z M56,312c13.3,0,24,10.7,24,24s-10.7,24-24,24s-24-10.7-24-24
		C32,322.8,42.8,312,56,312z M496,176c0-22.1-17.9-40-39.9-40c-7.9,0-15.5,2.3-22.1,6.6L369.4,78c12.2-18.4,7.1-43.2-11.3-55.4
		c-18.4-12.2-43.2-7.1-55.4,11.3c-2.8,4.3-4.8,9-5.8,14h-81.6c-4.4-21.7-25.5-35.7-47.2-31.3s-35.7,25.5-31.3,47.2
		c4.3,21.4,25,35.3,46.4,31.4l4.6,11.6l14.9-5.9L198,89.4c8.9-5.8,15.1-15,17.2-25.4h81.6c2.1,10.4,8.3,19.6,17.2,25.4l-7.9,19.6
		L321,115l7.8-19.6c10.1,1.8,20.6-0.3,29.2-6l64.6,64.6c-5.7,8.6-7.8,19-6,29.2L357,207l5.9,14.9l59.6-23.9
		c5.8,8.9,15,15.1,25.4,17.2v81.6c-10.4,2.1-19.6,8.3-25.4,17.2l-23.6-9.5l-5.9,14.9l23.6,9.4c-1.8,10.1,0.3,20.6,6,29.2l-15.8,15.8
		l11.3,11.3l15.8-15.8c18.4,12.2,43.2,7.1,55.4-11.3c12.2-18.4,7.1-43.2-11.3-55.4c-4.3-2.8-9-4.8-14-5.8v-81.6
		C482.6,211.4,496,195,496,176z M176,80c-13.3,0-24-10.7-24-24s10.7-24,24-24s24,10.7,24,24C200,69.2,189.2,80,176,80z M336,80
		c-13.3,0-24-10.7-24-24s10.7-24,24-24s24,10.7,24,24C360,69.2,349.2,80,336,80z M480,336c0,13.3-10.7,24-24,24s-24-10.7-24-24
		s10.7-24,24-24C469.2,312,480,322.8,480,336z M456,200c-13.3,0-24-10.7-24-24s10.7-24,24-24s24,10.7,24,24
		C480,189.2,469.2,200,456,200z M184,184v184c0,8.8,7.2,16,16,16h88v16h-88c-17.7,0-32-14.3-32-32V184H184z M368,376v-87.4
		c0-8.5-3.4-16.6-9.4-22.6L344,251.3v57.4l13.7,13.7l-11.3,11.3l-16-16l-27-27c-3.5-3.5-9.2-3.5-12.7,0s-3.5,9.2,0,12.7l27,27
		c2.7,2.7,3.1,6.9,1,10.1c-8.3,12.5-9.3,28.4-2.6,41.8l3.1,6.2c0.6,1.1,0.8,2.3,0.8,3.6v8h-16v-6.1l-2.3-4.5
		c-8.2-16.4-8.1-35.7,0.2-52.1l-22.7-22.7c-9.7-9.8-9.6-25.6,0.2-35.3c9.7-9.6,25.4-9.6,35.2,0l13.4,13.4V152c0-8.8-7.2-16-16-16
		h-19.1l-5.8,11.6c-1.4,2.7-4.1,4.4-7.2,4.4h-48c-3,0-5.8-1.7-7.2-4.4l-5.8-11.6H200c-8.8,0-16,7.2-16,16v16h-16v-16
		c0-17.7,14.3-32,32-32h112c17.7,0,32,14.3,32,32v76.7l25.9,25.9c9,9,14.1,21.2,14.1,33.9V376H368z M240,352h32v16h-32V352z
		 M274.3,253.7c-10.1-10.1-26.5-10.1-36.7,0l-11.3-11.3c16.4-16.4,42.9-16.4,59.3,0L274.3,253.7z M298.3,233.5
		c-23.4-23.4-61.3-23.4-84.7,0c0,0,0,0,0,0l-11.3-11.3c29.7-29.6,77.7-29.6,107.3,0L298.3,233.5z M264,280v16h-16v-16H264z M216,280
		h16v16h-16V280z"/>
</g>
</svg>
